G04 ================== begin FILE IDENTIFICATION RECORD ==================*
G04 Layout Name:  F:/leeo/CC3200/Hardware/Smartlocker/layout/Smartlocker10x8.brd*
G04 Film Name:    ASSEMBLY_TOP*
G04 File Format:  Gerber RS274X*
G04 File Origin:  Cadence Allegro 16.5-S047*
G04 Origin Date:  Mon Dec 28 14:32:46 2015*
G04 *
G04 Layer:  REF DES/ASSEMBLY_TOP*
G04 Layer:  PACKAGE GEOMETRY/ASSEMBLY_TOP*
G04 Layer:  BOARD GEOMETRY/OUTLINE*
G04 *
G04 Offset:    (0.0 0.0)*
G04 Mirror:    No*
G04 Mode:      Positive*
G04 Rotation:  0*
G04 FullContactRelief:  No*
G04 UndefLineWidth:     0.0*
G04 ================== end FILE IDENTIFICATION RECORD ====================*
%FSLAX25Y25*MOIN*%
%IR0*IPPOS*OFA0.00000B0.00000*MIA0B0*SFA1.00000B1.00000*%
%ADD10C,.001*%
%ADD11C,.003*%
%ADD12C,.005*%
%ADD13C,.006*%
%ADD14C,.0039*%
G75*
%LPD*%
G75*
G36*
G01X86920Y62810D02*
G03I-550J-3D01*
G37*
G54D10*
G01X8000Y0D02*
X307000D01*
G03X315000Y8000I0J8000D01*
G01X307000Y393700D02*
X8000D01*
G03X0Y385700I0J-8000D01*
G01Y8000D01*
G03X8000Y0I8000J0D01*
G54D11*
G01X4320Y51190D02*
X14320D01*
Y101190D01*
X4320D01*
Y51190D01*
G01X296500Y257000D02*
X286500D01*
Y207000D01*
X296500D01*
Y257000D01*
G54D12*
G01X11120Y156190D02*
X7620D01*
G03X6120Y154690I0J-1500D01*
G01Y151690D01*
G03X7620Y150190I1500J0D01*
G01X11120D01*
G01X15820Y64390D02*
Y59390D01*
X21820D01*
Y64390D01*
G01Y66890D02*
Y71890D01*
X15820D01*
Y66890D01*
G01X15520Y126190D02*
X10520D01*
Y120190D01*
X15520D01*
G01X13620Y150190D02*
X17120D01*
G03X18620Y151690I0J1500D01*
G01Y154690D01*
G03X17120Y156190I-1500J0D01*
G01X13620D01*
G01X22820Y64390D02*
Y59390D01*
X28820D01*
Y64390D01*
G01Y66890D02*
Y71890D01*
X22820D01*
Y66890D01*
G01X29620Y80190D02*
X24620D01*
Y74190D01*
X29620D01*
G01X29520Y126190D02*
X24520D01*
Y120190D01*
X29520D01*
G01X18020D02*
X23020D01*
Y126190D01*
X18020D01*
G01X24420Y210390D02*
X29420D01*
Y216390D01*
X24420D01*
G01X21920D02*
X16920D01*
Y210390D01*
X21920D01*
G01X32120Y74190D02*
X37120D01*
Y80190D01*
X32120D01*
G01X33820Y108990D02*
Y103990D01*
X39820D01*
Y108990D01*
G01Y111490D02*
Y116490D01*
X33820D01*
Y111490D01*
G01X32020Y120190D02*
X37020D01*
Y126190D01*
X32020D01*
G01X40500Y88800D02*
Y85300D01*
G03X42000Y83800I1500J0D01*
G01X45000D01*
G03X46500Y85300I0J1500D01*
G01Y88800D01*
G01Y91300D02*
Y94800D01*
G03X45000Y96300I-1500J0D01*
G01X42000D01*
G03X40500Y94800I0J-1500D01*
G01Y91300D01*
G01X50580Y386700D02*
X41730D01*
G03X40230Y385200I0J-1500D01*
G01Y379550D01*
G03X41730Y378050I1500J0D01*
G01X50630D01*
G01X52300Y89500D02*
X47300D01*
Y83500D01*
X52300D01*
G01X54800D02*
X59800D01*
Y89500D01*
X54800D01*
G01X54700Y90500D02*
X59700D01*
Y96500D01*
X54700D01*
G01X52200D02*
X47200D01*
Y90500D01*
X52200D01*
G01X50390Y170450D02*
Y165450D01*
X56390D01*
Y170450D01*
G01X50390Y183960D02*
Y178960D01*
X56390D01*
Y183960D01*
G01Y172950D02*
Y177950D01*
X50390D01*
Y172950D01*
G01X56390Y186460D02*
Y191460D01*
X50390D01*
Y186460D01*
G01X53330Y244370D02*
X48330D01*
Y238370D01*
X53330D01*
G01X53580Y251480D02*
X48580D01*
Y245480D01*
X53580D01*
G01X55830Y238370D02*
X60830D01*
Y244370D01*
X55830D01*
G01X56080Y245480D02*
X61080D01*
Y251480D01*
X56080D01*
G01X56430Y386700D02*
X64380D01*
Y378050D01*
X56380D01*
G01X74300Y12500D02*
X69300D01*
Y6500D01*
X74300D01*
G01Y13000D02*
X71000D01*
G02X69500Y14500I0J1500D01*
G01Y17500D01*
G02X71000Y19000I1500J0D01*
G01X74300D01*
G01X76800Y6500D02*
X81800D01*
Y12500D01*
X76800D01*
G01X76700Y13000D02*
X81500D01*
Y19000D01*
X76700D01*
G01X87800Y87500D02*
X82800D01*
Y81500D01*
X87800D01*
G01X90300D02*
X95300D01*
Y87500D01*
X90300D01*
G01X107500Y14200D02*
Y19200D01*
X101500D01*
Y14200D01*
G01Y11700D02*
Y6700D01*
X107500D01*
Y11700D01*
G01X94500Y11800D02*
Y6800D01*
X100500D01*
Y11800D01*
G01Y14300D02*
Y19300D01*
X94500D01*
Y14300D01*
G01X100700Y57500D02*
X97200D01*
G03X95700Y56000I0J-1500D01*
G01Y53000D01*
G03X97200Y51500I1500J0D01*
G01X100700D01*
G01X101300Y87500D02*
X96300D01*
Y81500D01*
X101300D01*
G01X103200Y51500D02*
X106700D01*
G03X108200Y53000I0J1500D01*
G01Y56000D01*
G03X106700Y57500I-1500J0D01*
G01X103200D01*
G01X103800Y81500D02*
X108800D01*
Y87500D01*
X103800D01*
G01X143800Y13000D02*
X138800D01*
Y7000D01*
X143800D01*
G01Y13500D02*
X140500D01*
G02X139000Y15000I0J1500D01*
G01Y18000D01*
G02X140500Y19500I1500J0D01*
G01X143800D01*
G01X146300Y7000D02*
X151300D01*
Y13000D01*
X146300D01*
G01X146200Y13500D02*
X151000D01*
Y19500D01*
X146200D01*
G01X164000Y11800D02*
Y6800D01*
X170000D01*
Y11800D01*
G01Y14300D02*
Y19300D01*
X164000D01*
Y14300D01*
G01X177000Y14200D02*
Y19200D01*
X171000D01*
Y14200D01*
G01Y11700D02*
Y6700D01*
X177000D01*
Y11700D01*
G01X213300Y13000D02*
X208300D01*
Y7000D01*
X213300D01*
G01Y13500D02*
X210000D01*
G02X208500Y15000I0J1500D01*
G01Y18000D01*
G02X210000Y19500I1500J0D01*
G01X213300D01*
G01X215800Y7000D02*
X220800D01*
Y13000D01*
X215800D01*
G01X215700Y13500D02*
X220500D01*
Y19500D01*
X215700D01*
G01X233500Y11800D02*
Y6800D01*
X239500D01*
Y11800D01*
G01Y14300D02*
Y19300D01*
X233500D01*
Y14300D01*
G01X246500Y14200D02*
Y19200D01*
X240500D01*
Y14200D01*
G01Y11700D02*
Y6700D01*
X246500D01*
Y11700D01*
G01X239210Y35210D02*
Y31710D01*
G03X240710Y30210I1500J0D01*
G01X243710D01*
G03X245210Y31710I0J1500D01*
G01Y35210D01*
G01Y37710D02*
Y41210D01*
G03X243710Y42710I-1500J0D01*
G01X240710D01*
G03X239210Y41210I0J-1500D01*
G01Y37710D01*
G01X253130Y81820D02*
Y86820D01*
X247130D01*
Y81820D01*
G01Y79320D02*
Y74320D01*
X253130D01*
Y79320D01*
G01X251930Y93620D02*
X246930D01*
Y87620D01*
X251930D01*
G01X254430D02*
X259430D01*
Y93620D01*
X254430D01*
G01X260480Y117390D02*
X256980D01*
G03X255480Y115890I0J-1500D01*
G01Y112890D01*
G03X256980Y111390I1500J0D01*
G01X260480D01*
G01X258130Y64920D02*
Y59920D01*
X264130D01*
Y64920D01*
G01Y67420D02*
Y72420D01*
X258130D01*
Y67420D01*
G01X262980Y111390D02*
X266480D01*
G03X267980Y112890I0J1500D01*
G01Y115890D01*
G03X266480Y117390I-1500J0D01*
G01X262980D01*
G01X273500Y296700D02*
Y291700D01*
X279500D01*
Y296700D01*
G01Y299200D02*
Y304200D01*
X273500D01*
Y299200D01*
G01X279800Y327500D02*
X274800D01*
Y321500D01*
X279800D01*
G01X285700Y47660D02*
X282200D01*
G03X280700Y46160I0J-1500D01*
G01Y43160D01*
G03X282200Y41660I1500J0D01*
G01X285700D01*
G01X277120Y104740D02*
Y101240D01*
G03X278620Y99740I1500J0D01*
G01X281620D01*
G03X283120Y101240I0J1500D01*
G01Y104740D01*
G01Y107240D02*
Y110740D01*
G03X281620Y112240I-1500J0D01*
G01X278620D01*
G03X277120Y110740I0J-1500D01*
G01Y107240D01*
G01X285300Y313000D02*
X280300D01*
Y307000D01*
X285300D01*
G01X282300Y321500D02*
X287300D01*
Y327500D01*
X282300D01*
G01X288200Y41660D02*
X291700D01*
G03X293200Y43160I0J1500D01*
G01Y46160D01*
G03X291700Y47660I-1500J0D01*
G01X288200D01*
G01X298990Y47700D02*
X294190D01*
Y41700D01*
X298990D01*
G01X293360Y109680D02*
X289860D01*
G03X288360Y108180I0J-1500D01*
G01Y105180D01*
G03X289860Y103680I1500J0D01*
G01X293360D01*
G01X295860D02*
X299360D01*
G03X300860Y105180I0J1500D01*
G01Y108180D01*
G03X299360Y109680I-1500J0D01*
G01X295860D01*
G01X296830Y174270D02*
X291830D01*
Y168270D01*
X296830D01*
G01X287800Y307000D02*
X292800D01*
Y313000D01*
X287800D01*
G01X299800D02*
X295000D01*
Y307000D01*
X299800D01*
G01X295700Y321500D02*
X300700D01*
Y327500D01*
X295700D01*
G01X293200D02*
X288200D01*
Y321500D01*
X293200D01*
G01X301390Y47700D02*
X304690D01*
G02X306190Y46200I0J-1500D01*
G01Y43200D01*
G02X304690Y41700I-1500J0D01*
G01X301390D01*
G01X302550Y123530D02*
X297750D01*
Y117530D01*
X302550D01*
G01X304950Y123530D02*
X308250D01*
G02X309750Y122030I0J-1500D01*
G01Y119030D01*
G02X308250Y117530I-1500J0D01*
G01X304950D01*
G01X304910Y124430D02*
X309910D01*
Y130430D01*
X304910D01*
G01X302410D02*
X297410D01*
Y124430D01*
X302410D01*
G01X311630Y169470D02*
Y174470D01*
X305630D01*
Y169470D01*
G01Y166970D02*
Y161970D01*
X311630D01*
Y166970D01*
G01X299330Y168270D02*
X304330D01*
Y174270D01*
X299330D01*
G01X302200Y313000D02*
X305500D01*
G02X307000Y311500I0J-1500D01*
G01Y308500D01*
G02X305500Y307000I-1500J0D01*
G01X302200D01*
G01X307080Y40110D02*
Y35110D01*
X313080D01*
Y40110D01*
G01Y42610D02*
Y47610D01*
X307080D01*
Y42610D01*
G54D13*
G01X3280Y205800D02*
X3580Y205450D01*
X3920Y205220D01*
X4330Y205100D01*
X4800Y205220D01*
X5150Y205450D01*
X5500Y205800D01*
X5620Y206270D01*
Y208600D01*
G01X7340Y208020D02*
X7690Y208370D01*
X8100Y208540D01*
X8570Y208600D01*
X9150Y208480D01*
X9560Y208190D01*
X9680Y207840D01*
X9620Y207490D01*
X9380Y207200D01*
X8220Y206620D01*
X7690Y206210D01*
X7340Y205620D01*
X7220Y205100D01*
X9680D01*
G01X13180Y15600D02*
X13480Y15250D01*
X13820Y15020D01*
X14230Y14900D01*
X14700Y15020D01*
X15050Y15250D01*
X15400Y15600D01*
X15520Y16070D01*
Y18400D01*
G01X18350Y14900D02*
Y18400D01*
X17650Y17700D01*
G01Y14900D02*
X19050D01*
G01X21240Y16360D02*
X21650Y16770D01*
X22000Y17000D01*
X22470Y17120D01*
X22880Y17000D01*
X23170Y16770D01*
X23400Y16420D01*
X23460Y16010D01*
X23400Y15660D01*
X23170Y15310D01*
X22820Y15020D01*
X22410Y14900D01*
X21940Y15020D01*
X21530Y15370D01*
X21300Y15890D01*
X21240Y16470D01*
X21360Y17230D01*
X21530Y17640D01*
X21820Y18050D01*
X22230Y18340D01*
X22640Y18400D01*
X23050Y18280D01*
X23340Y17990D01*
G01X9900Y73380D02*
X10250Y73680D01*
X10480Y74020D01*
X10600Y74430D01*
X10480Y74900D01*
X10250Y75250D01*
X9900Y75600D01*
X9430Y75720D01*
X7100D01*
G01X10600Y78550D02*
X7100D01*
X7800Y77850D01*
G01X10600D02*
Y79250D01*
G01X14080Y121800D02*
Y125300D01*
X15540D01*
X16010Y125120D01*
X16300Y124890D01*
X16420Y124420D01*
X16300Y123960D01*
X15950Y123670D01*
X15540Y123490D01*
X14080D01*
G01X15540D02*
X16420Y121800D01*
G01X19250D02*
X19660Y121860D01*
X20120Y122030D01*
X20420Y122320D01*
X20530Y122730D01*
X20420Y123140D01*
X20070Y123490D01*
X19540Y123670D01*
X18960D01*
X18610Y123780D01*
X18320Y124070D01*
X18200Y124480D01*
X18380Y124890D01*
X18780Y125180D01*
X19250Y125300D01*
X19720Y125180D01*
X20120Y124890D01*
X20300Y124480D01*
X20180Y124070D01*
X19890Y123780D01*
X19540Y123670D01*
X18960D01*
X18430Y123490D01*
X18080Y123140D01*
X17970Y122730D01*
X18080Y122320D01*
X18380Y122030D01*
X18840Y121860D01*
X19250Y121800D01*
G01X12430Y154510D02*
X12080Y154680D01*
X11680Y154800D01*
X11210D01*
X10680Y154620D01*
X10280Y154330D01*
X9980Y153980D01*
X9750Y153400D01*
X9690Y152870D01*
X9810Y152350D01*
X9980Y152000D01*
X10330Y151650D01*
X10740Y151420D01*
X11150Y151300D01*
X11560D01*
X11970Y151420D01*
X12320Y151590D01*
X12610Y151820D01*
G01X14160Y151710D02*
X14570Y151420D01*
X15030Y151300D01*
X15500Y151420D01*
X15910Y151770D01*
X16200Y152290D01*
X16320Y152820D01*
Y153460D01*
X16200Y153980D01*
X15910Y154450D01*
X15560Y154680D01*
X15150Y154800D01*
X14680Y154680D01*
X14330Y154450D01*
X14100Y154100D01*
X13980Y153630D01*
X14100Y153230D01*
X14390Y152820D01*
X14740Y152580D01*
X15150Y152520D01*
X15620Y152640D01*
X15970Y152930D01*
X16320Y153460D01*
G01X9980Y163200D02*
X10280Y162850D01*
X10620Y162620D01*
X11030Y162500D01*
X11500Y162620D01*
X11850Y162850D01*
X12200Y163200D01*
X12320Y163670D01*
Y166000D01*
G01X13870Y163020D02*
X14220Y162730D01*
X14620Y162560D01*
X15150Y162500D01*
X15680Y162620D01*
X16080Y162850D01*
X16380Y163260D01*
X16430Y163720D01*
X16320Y164190D01*
X16020Y164480D01*
X15620Y164720D01*
X15210Y164770D01*
X14800Y164720D01*
X14280Y164480D01*
X14450Y166000D01*
X16020D01*
G01X10970Y176800D02*
Y180300D01*
X12130D01*
X12600Y180120D01*
X12950Y179890D01*
X13240Y179540D01*
X13480Y179130D01*
X13530Y178550D01*
X13480Y177970D01*
X13240Y177560D01*
X12950Y177210D01*
X12600Y176970D01*
X12130Y176800D01*
X10970D01*
G01X16250D02*
Y180300D01*
X15550Y179600D01*
G01Y176800D02*
X16950D01*
G01X11780Y186500D02*
X12080Y186150D01*
X12420Y185920D01*
X12830Y185800D01*
X13300Y185920D01*
X13650Y186150D01*
X14000Y186500D01*
X14120Y186970D01*
Y189300D01*
G01X17650Y185800D02*
Y189300D01*
X15490Y186790D01*
X18410D01*
G01X16380Y244000D02*
Y240500D01*
X18720D01*
G01X20320Y240970D02*
X20790Y240670D01*
X21320Y240500D01*
X21780D01*
X22250Y240670D01*
X22600Y240970D01*
X22780Y241380D01*
X22660Y241780D01*
X22370Y242130D01*
X21840Y242370D01*
X21140Y242480D01*
X20730Y242720D01*
X20560Y243120D01*
X20680Y243530D01*
X20970Y243820D01*
X21370Y244000D01*
X21780D01*
X22190Y243880D01*
X22540Y243590D01*
G01X25550Y240500D02*
Y244000D01*
X24850Y243300D01*
G01Y240500D02*
X26250D01*
G01X12600Y288880D02*
X12950Y289180D01*
X13180Y289520D01*
X13300Y289930D01*
X13180Y290400D01*
X12950Y290750D01*
X12600Y291100D01*
X12130Y291220D01*
X9800D01*
G01X13300Y294050D02*
X9800D01*
X10500Y293350D01*
G01X13300D02*
Y294750D01*
G01X10380Y296940D02*
X10030Y297290D01*
X9860Y297700D01*
X9800Y298170D01*
X9920Y298750D01*
X10210Y299160D01*
X10560Y299280D01*
X10910Y299220D01*
X11200Y298980D01*
X11780Y297820D01*
X12190Y297290D01*
X12780Y296940D01*
X13300Y296820D01*
Y299280D01*
G01X12820Y334270D02*
X13290Y333970D01*
X13820Y333800D01*
X14280D01*
X14750Y333970D01*
X15100Y334270D01*
X15280Y334680D01*
X15160Y335080D01*
X14870Y335430D01*
X14340Y335670D01*
X13640Y335780D01*
X13230Y336020D01*
X13060Y336420D01*
X13180Y336830D01*
X13470Y337120D01*
X13870Y337300D01*
X14280D01*
X14690Y337180D01*
X15040Y336890D01*
G01X16300Y337300D02*
X17120Y333800D01*
X18050Y337300D01*
X18980Y333800D01*
X19800Y337300D01*
G01X20940Y336720D02*
X21290Y337070D01*
X21700Y337240D01*
X22170Y337300D01*
X22750Y337180D01*
X23160Y336890D01*
X23280Y336540D01*
X23220Y336190D01*
X22980Y335900D01*
X21820Y335320D01*
X21290Y334910D01*
X20940Y334320D01*
X20820Y333800D01*
X23280D01*
G01X13230Y373800D02*
X13550Y373300D01*
X13930Y372970D01*
X14370Y372800D01*
X14880Y372970D01*
X15260Y373300D01*
X15640Y373800D01*
X15770Y374470D01*
Y377800D01*
G01X19600Y372800D02*
Y377800D01*
X18840Y376800D01*
G01Y372800D02*
X20360D01*
G01X23620Y373380D02*
X24070Y372970D01*
X24570Y372800D01*
X25080Y372970D01*
X25520Y373470D01*
X25840Y374220D01*
X25970Y374970D01*
Y375880D01*
X25840Y376630D01*
X25520Y377300D01*
X25140Y377630D01*
X24700Y377800D01*
X24190Y377630D01*
X23810Y377300D01*
X23560Y376800D01*
X23430Y376130D01*
X23560Y375550D01*
X23880Y374970D01*
X24260Y374630D01*
X24700Y374550D01*
X25210Y374720D01*
X25590Y375130D01*
X25970Y375880D01*
G01X27800Y61980D02*
X24300D01*
Y63440D01*
X24480Y63910D01*
X24710Y64200D01*
X25180Y64320D01*
X25640Y64200D01*
X25930Y63850D01*
X26110Y63440D01*
Y61980D01*
G01Y63440D02*
X27800Y64320D01*
G01X24880Y66040D02*
X24530Y66390D01*
X24360Y66800D01*
X24300Y67270D01*
X24420Y67850D01*
X24710Y68260D01*
X25060Y68380D01*
X25410Y68320D01*
X25700Y68080D01*
X26280Y66920D01*
X26690Y66390D01*
X27280Y66040D01*
X27800Y65920D01*
Y68380D01*
G01X20900Y62980D02*
X17400D01*
Y64440D01*
X17580Y64910D01*
X17810Y65200D01*
X18280Y65320D01*
X18740Y65200D01*
X19030Y64850D01*
X19210Y64440D01*
Y62980D01*
G01Y64440D02*
X20900Y65320D01*
G01Y68150D02*
X17400D01*
X18100Y67450D01*
G01X20900D02*
Y68850D01*
G01X27400Y94580D02*
X27750Y94880D01*
X27980Y95220D01*
X28100Y95630D01*
X27980Y96100D01*
X27750Y96450D01*
X27400Y96800D01*
X26930Y96920D01*
X24600D01*
G01X27400Y98470D02*
X27810Y98820D01*
X28040Y99280D01*
X28100Y99810D01*
X28040Y100280D01*
X27750Y100740D01*
X27400Y101030D01*
X27050Y101090D01*
X26640Y100980D01*
X26350Y100570D01*
X26230Y100160D01*
Y99630D01*
G01Y100160D02*
X26060Y100510D01*
X25770Y100800D01*
X25420Y100920D01*
X25070Y100800D01*
X24780Y100510D01*
X24600Y99980D01*
X24660Y99460D01*
X24890Y98930D01*
G01X18470Y140900D02*
Y138390D01*
X18700Y137870D01*
X19170Y137520D01*
X19750Y137400D01*
X20330Y137520D01*
X20800Y137870D01*
X21030Y138390D01*
Y140900D01*
G01X22640Y140320D02*
X22990Y140670D01*
X23400Y140840D01*
X23870Y140900D01*
X24450Y140780D01*
X24860Y140490D01*
X24980Y140140D01*
X24920Y139790D01*
X24680Y139500D01*
X23520Y138920D01*
X22990Y138510D01*
X22640Y137920D01*
X22520Y137400D01*
X24980D01*
G01X20680Y211800D02*
Y215300D01*
X22140D01*
X22610Y215120D01*
X22900Y214890D01*
X23020Y214420D01*
X22900Y213960D01*
X22550Y213670D01*
X22140Y213490D01*
X20680D01*
G01X22140D02*
X23020Y211800D01*
G01X24860Y212210D02*
X25270Y211920D01*
X25730Y211800D01*
X26200Y211920D01*
X26610Y212270D01*
X26900Y212790D01*
X27020Y213320D01*
Y213960D01*
X26900Y214480D01*
X26610Y214950D01*
X26260Y215180D01*
X25850Y215300D01*
X25380Y215180D01*
X25030Y214950D01*
X24800Y214600D01*
X24680Y214130D01*
X24800Y213730D01*
X25090Y213320D01*
X25440Y213080D01*
X25850Y213020D01*
X26320Y213140D01*
X26670Y213430D01*
X27020Y213960D01*
G01X27980Y75400D02*
Y78900D01*
X29440D01*
X29910Y78720D01*
X30200Y78490D01*
X30320Y78020D01*
X30200Y77560D01*
X29850Y77270D01*
X29440Y77090D01*
X27980D01*
G01X29440D02*
X30320Y75400D01*
G01X31870Y76100D02*
X32220Y75690D01*
X32680Y75460D01*
X33210Y75400D01*
X33680Y75460D01*
X34140Y75750D01*
X34430Y76100D01*
X34490Y76450D01*
X34380Y76860D01*
X33970Y77150D01*
X33560Y77270D01*
X33030D01*
G01X33560D02*
X33910Y77440D01*
X34200Y77730D01*
X34320Y78080D01*
X34200Y78430D01*
X33910Y78720D01*
X33380Y78900D01*
X32860Y78840D01*
X32330Y78610D01*
G01X37500Y108980D02*
X34000D01*
Y110440D01*
X34180Y110910D01*
X34410Y111200D01*
X34880Y111320D01*
X35340Y111200D01*
X35630Y110850D01*
X35810Y110440D01*
Y108980D01*
G01Y110440D02*
X37500Y111320D01*
G01Y114850D02*
X34000D01*
X36510Y112690D01*
Y115610D01*
G01X27480Y121400D02*
Y124900D01*
X28940D01*
X29410Y124720D01*
X29700Y124490D01*
X29820Y124020D01*
X29700Y123560D01*
X29350Y123270D01*
X28940Y123090D01*
X27480D01*
G01X28940D02*
X29820Y121400D01*
G01X32530D02*
X32650Y122160D01*
X32830Y122800D01*
X33060Y123380D01*
X33350Y124020D01*
X33820Y124900D01*
X31480D01*
G01X33200Y289380D02*
X33550Y289680D01*
X33780Y290020D01*
X33900Y290430D01*
X33780Y290900D01*
X33550Y291250D01*
X33200Y291600D01*
X32730Y291720D01*
X30400D01*
G01X33900Y294550D02*
X30400D01*
X31100Y293850D01*
G01X33900D02*
Y295250D01*
G01X33200Y297270D02*
X33610Y297620D01*
X33840Y298080D01*
X33900Y298610D01*
X33840Y299080D01*
X33550Y299540D01*
X33200Y299830D01*
X32850Y299890D01*
X32440Y299780D01*
X32150Y299370D01*
X32030Y298960D01*
Y298430D01*
G01Y298960D02*
X31860Y299310D01*
X31570Y299600D01*
X31220Y299720D01*
X30870Y299600D01*
X30580Y299310D01*
X30400Y298780D01*
X30460Y298260D01*
X30690Y297730D01*
G01X42090Y90730D02*
X41920Y90380D01*
X41800Y89980D01*
Y89510D01*
X41980Y88980D01*
X42270Y88580D01*
X42620Y88280D01*
X43200Y88050D01*
X43730Y87990D01*
X44250Y88110D01*
X44600Y88280D01*
X44950Y88630D01*
X45180Y89040D01*
X45300Y89450D01*
Y89860D01*
X45180Y90270D01*
X45010Y90620D01*
X44780Y90910D01*
G01X45300Y93450D02*
X41800D01*
X42500Y92750D01*
G01X45300D02*
Y94150D01*
G01X46800Y258850D02*
X46740Y258380D01*
X46510Y257980D01*
X46160Y257620D01*
X45750Y257390D01*
X45280Y257270D01*
X44820D01*
X44350Y257390D01*
X43940Y257620D01*
X43590Y257980D01*
X43360Y258380D01*
X43300Y258850D01*
X43360Y259320D01*
X43590Y259720D01*
X43940Y260080D01*
X44350Y260310D01*
X44820Y260430D01*
X45280D01*
X45750Y260310D01*
X46160Y260080D01*
X46510Y259720D01*
X46740Y259320D01*
X46800Y258850D01*
G01X45870Y259320D02*
X46800Y260020D01*
G01X46100Y261570D02*
X46510Y261920D01*
X46740Y262380D01*
X46800Y262910D01*
X46740Y263380D01*
X46450Y263840D01*
X46100Y264130D01*
X45750Y264190D01*
X45340Y264080D01*
X45050Y263670D01*
X44930Y263260D01*
Y262730D01*
G01Y263260D02*
X44760Y263610D01*
X44470Y263900D01*
X44120Y264020D01*
X43770Y263900D01*
X43480Y263610D01*
X43300Y263080D01*
X43360Y262560D01*
X43590Y262030D01*
G01X48580Y84800D02*
Y88300D01*
X50040D01*
X50510Y88120D01*
X50800Y87890D01*
X50920Y87420D01*
X50800Y86960D01*
X50450Y86670D01*
X50040Y86490D01*
X48580D01*
G01X50040D02*
X50920Y84800D01*
G01X52470Y85500D02*
X52820Y85090D01*
X53280Y84860D01*
X53810Y84800D01*
X54280Y84860D01*
X54740Y85150D01*
X55030Y85500D01*
X55090Y85850D01*
X54980Y86260D01*
X54570Y86550D01*
X54160Y86670D01*
X53630D01*
G01X54160D02*
X54510Y86840D01*
X54800Y87130D01*
X54920Y87480D01*
X54800Y87830D01*
X54510Y88120D01*
X53980Y88300D01*
X53460Y88240D01*
X52930Y88010D01*
G01X57750Y84800D02*
Y88300D01*
X57050Y87600D01*
G01Y84800D02*
X58450D01*
G01X48480Y91400D02*
Y94900D01*
X49940D01*
X50410Y94720D01*
X50700Y94490D01*
X50820Y94020D01*
X50700Y93560D01*
X50350Y93270D01*
X49940Y93090D01*
X48480D01*
G01X49940D02*
X50820Y91400D01*
G01X52370Y92100D02*
X52720Y91690D01*
X53180Y91460D01*
X53710Y91400D01*
X54180Y91460D01*
X54640Y91750D01*
X54930Y92100D01*
X54990Y92450D01*
X54880Y92860D01*
X54470Y93150D01*
X54060Y93270D01*
X53530D01*
G01X54060D02*
X54410Y93440D01*
X54700Y93730D01*
X54820Y94080D01*
X54700Y94430D01*
X54410Y94720D01*
X53880Y94900D01*
X53360Y94840D01*
X52830Y94610D01*
G01X56370Y92100D02*
X56720Y91690D01*
X57180Y91460D01*
X57710Y91400D01*
X58180Y91460D01*
X58640Y91750D01*
X58930Y92100D01*
X58990Y92450D01*
X58880Y92860D01*
X58470Y93150D01*
X58060Y93270D01*
X57530D01*
G01X58060D02*
X58410Y93440D01*
X58700Y93730D01*
X58820Y94080D01*
X58700Y94430D01*
X58410Y94720D01*
X57880Y94900D01*
X57360Y94840D01*
X56830Y94610D01*
G01X55100Y166580D02*
X51600D01*
Y168040D01*
X51780Y168510D01*
X52010Y168800D01*
X52480Y168920D01*
X52940Y168800D01*
X53230Y168450D01*
X53410Y168040D01*
Y166580D01*
G01Y168040D02*
X55100Y168920D01*
G01X54400Y170470D02*
X54810Y170820D01*
X55040Y171280D01*
X55100Y171810D01*
X55040Y172280D01*
X54750Y172740D01*
X54400Y173030D01*
X54050Y173090D01*
X53640Y172980D01*
X53350Y172570D01*
X53230Y172160D01*
Y171630D01*
G01Y172160D02*
X53060Y172510D01*
X52770Y172800D01*
X52420Y172920D01*
X52070Y172800D01*
X51780Y172510D01*
X51600Y171980D01*
X51660Y171460D01*
X51890Y170930D01*
G01X55100Y175750D02*
X55040Y176160D01*
X54870Y176620D01*
X54580Y176920D01*
X54170Y177030D01*
X53760Y176920D01*
X53410Y176570D01*
X53230Y176040D01*
Y175460D01*
X53120Y175110D01*
X52830Y174820D01*
X52420Y174700D01*
X52010Y174880D01*
X51720Y175280D01*
X51600Y175750D01*
X51720Y176220D01*
X52010Y176620D01*
X52420Y176800D01*
X52830Y176680D01*
X53120Y176390D01*
X53230Y176040D01*
Y175460D01*
X53410Y174930D01*
X53760Y174580D01*
X54170Y174470D01*
X54580Y174580D01*
X54870Y174880D01*
X55040Y175340D01*
X55100Y175750D01*
G01X55400Y180580D02*
X51900D01*
Y182040D01*
X52080Y182510D01*
X52310Y182800D01*
X52780Y182920D01*
X53240Y182800D01*
X53530Y182450D01*
X53710Y182040D01*
Y180580D01*
G01Y182040D02*
X55400Y182920D01*
G01X54700Y184470D02*
X55110Y184820D01*
X55340Y185280D01*
X55400Y185810D01*
X55340Y186280D01*
X55050Y186740D01*
X54700Y187030D01*
X54350Y187090D01*
X53940Y186980D01*
X53650Y186570D01*
X53530Y186160D01*
Y185630D01*
G01Y186160D02*
X53360Y186510D01*
X53070Y186800D01*
X52720Y186920D01*
X52370Y186800D01*
X52080Y186510D01*
X51900Y185980D01*
X51960Y185460D01*
X52190Y184930D01*
G01X55400Y189630D02*
X54640Y189750D01*
X54000Y189930D01*
X53420Y190160D01*
X52780Y190450D01*
X51900Y190920D01*
Y188580D01*
G01X49380Y239500D02*
Y243000D01*
X50840D01*
X51310Y242820D01*
X51600Y242590D01*
X51720Y242120D01*
X51600Y241660D01*
X51250Y241370D01*
X50840Y241190D01*
X49380D01*
G01X50840D02*
X51720Y239500D01*
G01X54550D02*
Y243000D01*
X53850Y242300D01*
G01Y239500D02*
X55250D01*
G01X58550Y243000D02*
X58080Y242880D01*
X57730Y242590D01*
X57500Y242240D01*
X57320Y241770D01*
X57270Y241250D01*
X57320Y240720D01*
X57500Y240260D01*
X57730Y239910D01*
X58080Y239620D01*
X58550Y239500D01*
X59020Y239620D01*
X59370Y239910D01*
X59600Y240260D01*
X59780Y240720D01*
X59830Y241250D01*
X59780Y241770D01*
X59600Y242240D01*
X59370Y242590D01*
X59020Y242880D01*
X58550Y243000D01*
G01X50280Y247200D02*
Y250700D01*
X51740D01*
X52210Y250520D01*
X52500Y250290D01*
X52620Y249820D01*
X52500Y249360D01*
X52150Y249070D01*
X51740Y248890D01*
X50280D01*
G01X51740D02*
X52620Y247200D01*
G01X55450D02*
Y250700D01*
X54750Y250000D01*
G01Y247200D02*
X56150D01*
G01X59450D02*
Y250700D01*
X58750Y250000D01*
G01Y247200D02*
X60150D01*
G01X52380Y384210D02*
X52030Y384380D01*
X51630Y384500D01*
X51160D01*
X50630Y384320D01*
X50230Y384030D01*
X49930Y383680D01*
X49700Y383100D01*
X49640Y382570D01*
X49760Y382050D01*
X49930Y381700D01*
X50280Y381350D01*
X50690Y381120D01*
X51100Y381000D01*
X51510D01*
X51920Y381120D01*
X52270Y381290D01*
X52560Y381520D01*
G01X55100Y381000D02*
X55510Y381060D01*
X55970Y381230D01*
X56270Y381520D01*
X56380Y381930D01*
X56270Y382340D01*
X55920Y382690D01*
X55390Y382870D01*
X54810D01*
X54460Y382980D01*
X54170Y383270D01*
X54050Y383680D01*
X54230Y384090D01*
X54630Y384380D01*
X55100Y384500D01*
X55570Y384380D01*
X55970Y384090D01*
X56150Y383680D01*
X56030Y383270D01*
X55740Y382980D01*
X55390Y382870D01*
X54810D01*
X54280Y382690D01*
X53930Y382340D01*
X53820Y381930D01*
X53930Y381520D01*
X54230Y381230D01*
X54690Y381060D01*
X55100Y381000D01*
G01X55370Y72000D02*
Y69490D01*
X55600Y68970D01*
X56070Y68620D01*
X56650Y68500D01*
X57230Y68620D01*
X57700Y68970D01*
X57930Y69490D01*
Y72000D01*
G01X60530Y68500D02*
X60650Y69260D01*
X60830Y69900D01*
X61060Y70480D01*
X61350Y71120D01*
X61820Y72000D01*
X59480D01*
G01X70580Y7600D02*
Y11100D01*
X72040D01*
X72510Y10920D01*
X72800Y10690D01*
X72920Y10220D01*
X72800Y9760D01*
X72450Y9470D01*
X72040Y9290D01*
X70580D01*
G01X72040D02*
X72920Y7600D01*
G01X75750D02*
Y11100D01*
X75050Y10400D01*
G01Y7600D02*
X76450D01*
G01X78760Y8010D02*
X79170Y7720D01*
X79630Y7600D01*
X80100Y7720D01*
X80510Y8070D01*
X80800Y8590D01*
X80920Y9120D01*
Y9760D01*
X80800Y10280D01*
X80510Y10750D01*
X80160Y10980D01*
X79750Y11100D01*
X79280Y10980D01*
X78930Y10750D01*
X78700Y10400D01*
X78580Y9930D01*
X78700Y9530D01*
X78990Y9120D01*
X79340Y8880D01*
X79750Y8820D01*
X80220Y8940D01*
X80570Y9230D01*
X80920Y9760D01*
G01X72270Y13900D02*
Y17400D01*
X73430D01*
X73900Y17220D01*
X74250Y16990D01*
X74540Y16640D01*
X74780Y16230D01*
X74830Y15650D01*
X74780Y15070D01*
X74540Y14660D01*
X74250Y14310D01*
X73900Y14070D01*
X73430Y13900D01*
X72270D01*
G01X76270Y14600D02*
X76620Y14190D01*
X77080Y13960D01*
X77610Y13900D01*
X78080Y13960D01*
X78540Y14250D01*
X78830Y14600D01*
X78890Y14950D01*
X78780Y15360D01*
X78370Y15650D01*
X77960Y15770D01*
X77430D01*
G01X77960D02*
X78310Y15940D01*
X78600Y16230D01*
X78720Y16580D01*
X78600Y16930D01*
X78310Y17220D01*
X77780Y17400D01*
X77260Y17340D01*
X76730Y17110D01*
G01X84380Y82500D02*
Y86000D01*
X85840D01*
X86310Y85820D01*
X86600Y85590D01*
X86720Y85120D01*
X86600Y84660D01*
X86250Y84370D01*
X85840Y84190D01*
X84380D01*
G01X85840D02*
X86720Y82500D01*
G01X88270Y83200D02*
X88620Y82790D01*
X89080Y82560D01*
X89610Y82500D01*
X90080Y82560D01*
X90540Y82850D01*
X90830Y83200D01*
X90890Y83550D01*
X90780Y83960D01*
X90370Y84250D01*
X89960Y84370D01*
X89430D01*
G01X89960D02*
X90310Y84540D01*
X90600Y84830D01*
X90720Y85180D01*
X90600Y85530D01*
X90310Y85820D01*
X89780Y86000D01*
X89260Y85940D01*
X88730Y85710D01*
G01X92440Y85420D02*
X92790Y85770D01*
X93200Y85940D01*
X93670Y86000D01*
X94250Y85880D01*
X94660Y85590D01*
X94780Y85240D01*
X94720Y84890D01*
X94480Y84600D01*
X93320Y84020D01*
X92790Y83610D01*
X92440Y83020D01*
X92320Y82500D01*
X94780D01*
G01X88900Y10850D02*
X88840Y10380D01*
X88610Y9980D01*
X88260Y9620D01*
X87850Y9390D01*
X87380Y9270D01*
X86920D01*
X86450Y9390D01*
X86040Y9620D01*
X85690Y9980D01*
X85460Y10380D01*
X85400Y10850D01*
X85460Y11320D01*
X85690Y11720D01*
X86040Y12080D01*
X86450Y12310D01*
X86920Y12430D01*
X87380D01*
X87850Y12310D01*
X88260Y12080D01*
X88610Y11720D01*
X88840Y11320D01*
X88900Y10850D01*
G01X87970Y11320D02*
X88900Y12020D01*
G01X87440Y13740D02*
X87030Y14150D01*
X86800Y14500D01*
X86680Y14970D01*
X86800Y15380D01*
X87030Y15670D01*
X87380Y15900D01*
X87790Y15960D01*
X88140Y15900D01*
X88490Y15670D01*
X88780Y15320D01*
X88900Y14910D01*
X88780Y14440D01*
X88430Y14030D01*
X87910Y13800D01*
X87330Y13740D01*
X86570Y13860D01*
X86160Y14030D01*
X85750Y14320D01*
X85460Y14730D01*
X85400Y15140D01*
X85520Y15550D01*
X85810Y15840D01*
G01X99400Y8180D02*
X95900D01*
Y9640D01*
X96080Y10110D01*
X96310Y10400D01*
X96780Y10520D01*
X97240Y10400D01*
X97530Y10050D01*
X97710Y9640D01*
Y8180D01*
G01Y9640D02*
X99400Y10520D01*
G01X96480Y12240D02*
X96130Y12590D01*
X95960Y13000D01*
X95900Y13470D01*
X96020Y14050D01*
X96310Y14460D01*
X96660Y14580D01*
X97010Y14520D01*
X97300Y14280D01*
X97880Y13120D01*
X98290Y12590D01*
X98880Y12240D01*
X99400Y12120D01*
Y14580D01*
G01X98880Y16070D02*
X99170Y16420D01*
X99340Y16820D01*
X99400Y17350D01*
X99280Y17880D01*
X99050Y18280D01*
X98640Y18580D01*
X98180Y18630D01*
X97710Y18520D01*
X97420Y18220D01*
X97180Y17820D01*
X97130Y17410D01*
X97180Y17000D01*
X97420Y16480D01*
X95900Y16650D01*
Y18220D01*
G01X102530Y55910D02*
X102180Y56080D01*
X101780Y56200D01*
X101310D01*
X100780Y56020D01*
X100380Y55730D01*
X100080Y55380D01*
X99850Y54800D01*
X99790Y54270D01*
X99910Y53750D01*
X100080Y53400D01*
X100430Y53050D01*
X100840Y52820D01*
X101250Y52700D01*
X101660D01*
X102070Y52820D01*
X102420Y52990D01*
X102710Y53220D01*
G01X104140Y55620D02*
X104490Y55970D01*
X104900Y56140D01*
X105370Y56200D01*
X105950Y56080D01*
X106360Y55790D01*
X106480Y55440D01*
X106420Y55090D01*
X106180Y54800D01*
X105020Y54220D01*
X104490Y53810D01*
X104140Y53220D01*
X104020Y52700D01*
X106480D01*
G01X94370Y71800D02*
Y69290D01*
X94600Y68770D01*
X95070Y68420D01*
X95650Y68300D01*
X96230Y68420D01*
X96700Y68770D01*
X96930Y69290D01*
Y71800D01*
G01X98540Y69760D02*
X98950Y70170D01*
X99300Y70400D01*
X99770Y70520D01*
X100180Y70400D01*
X100470Y70170D01*
X100700Y69820D01*
X100760Y69410D01*
X100700Y69060D01*
X100470Y68710D01*
X100120Y68420D01*
X99710Y68300D01*
X99240Y68420D01*
X98830Y68770D01*
X98600Y69290D01*
X98540Y69870D01*
X98660Y70630D01*
X98830Y71040D01*
X99120Y71450D01*
X99530Y71740D01*
X99940Y71800D01*
X100350Y71680D01*
X100640Y71390D01*
G01X96980Y83700D02*
Y87200D01*
X98440D01*
X98910Y87020D01*
X99200Y86790D01*
X99320Y86320D01*
X99200Y85860D01*
X98850Y85570D01*
X98440Y85390D01*
X96980D01*
G01X98440D02*
X99320Y83700D01*
G01X100870Y84400D02*
X101220Y83990D01*
X101680Y83760D01*
X102210Y83700D01*
X102680Y83760D01*
X103140Y84050D01*
X103430Y84400D01*
X103490Y84750D01*
X103380Y85160D01*
X102970Y85450D01*
X102560Y85570D01*
X102030D01*
G01X102560D02*
X102910Y85740D01*
X103200Y86030D01*
X103320Y86380D01*
X103200Y86730D01*
X102910Y87020D01*
X102380Y87200D01*
X101860Y87140D01*
X101330Y86910D01*
G01X106850Y83700D02*
Y87200D01*
X104690Y84690D01*
X107610D01*
G01X106700Y8180D02*
X103200D01*
Y9640D01*
X103380Y10110D01*
X103610Y10400D01*
X104080Y10520D01*
X104540Y10400D01*
X104830Y10050D01*
X105010Y9640D01*
Y8180D01*
G01Y9640D02*
X106700Y10520D01*
G01X103780Y12240D02*
X103430Y12590D01*
X103260Y13000D01*
X103200Y13470D01*
X103320Y14050D01*
X103610Y14460D01*
X103960Y14580D01*
X104310Y14520D01*
X104600Y14280D01*
X105180Y13120D01*
X105590Y12590D01*
X106180Y12240D01*
X106700Y12120D01*
Y14580D01*
G01X103780Y16240D02*
X103430Y16590D01*
X103260Y17000D01*
X103200Y17470D01*
X103320Y18050D01*
X103610Y18460D01*
X103960Y18580D01*
X104310Y18520D01*
X104600Y18280D01*
X105180Y17120D01*
X105590Y16590D01*
X106180Y16240D01*
X106700Y16120D01*
Y18580D01*
G01X139980Y8300D02*
Y11800D01*
X141440D01*
X141910Y11620D01*
X142200Y11390D01*
X142320Y10920D01*
X142200Y10460D01*
X141850Y10170D01*
X141440Y9990D01*
X139980D01*
G01X141440D02*
X142320Y8300D01*
G01X144040Y11220D02*
X144390Y11570D01*
X144800Y11740D01*
X145270Y11800D01*
X145850Y11680D01*
X146260Y11390D01*
X146380Y11040D01*
X146320Y10690D01*
X146080Y10400D01*
X144920Y9820D01*
X144390Y9410D01*
X144040Y8820D01*
X143920Y8300D01*
X146380D01*
G01X149150Y11800D02*
X148680Y11680D01*
X148330Y11390D01*
X148100Y11040D01*
X147920Y10570D01*
X147870Y10050D01*
X147920Y9520D01*
X148100Y9060D01*
X148330Y8710D01*
X148680Y8420D01*
X149150Y8300D01*
X149620Y8420D01*
X149970Y8710D01*
X150200Y9060D01*
X150380Y9520D01*
X150430Y10050D01*
X150380Y10570D01*
X150200Y11040D01*
X149970Y11390D01*
X149620Y11680D01*
X149150Y11800D01*
G01X141870Y15000D02*
Y18500D01*
X143030D01*
X143500Y18320D01*
X143850Y18090D01*
X144140Y17740D01*
X144380Y17330D01*
X144430Y16750D01*
X144380Y16170D01*
X144140Y15760D01*
X143850Y15410D01*
X143500Y15170D01*
X143030Y15000D01*
X141870D01*
G01X147850D02*
Y18500D01*
X145690Y15990D01*
X148610D01*
G01X148110Y188800D02*
Y185220D01*
X148360Y184470D01*
X148870Y183970D01*
X149500Y183800D01*
X150130Y183970D01*
X150640Y184470D01*
X150890Y185220D01*
Y188800D01*
G01X154600Y183800D02*
Y188800D01*
X153840Y187800D01*
G01Y183800D02*
X155360D01*
G01X159300Y11550D02*
X159240Y11080D01*
X159010Y10680D01*
X158660Y10320D01*
X158250Y10090D01*
X157780Y9970D01*
X157320D01*
X156850Y10090D01*
X156440Y10320D01*
X156090Y10680D01*
X155860Y11080D01*
X155800Y11550D01*
X155860Y12020D01*
X156090Y12420D01*
X156440Y12780D01*
X156850Y13010D01*
X157320Y13130D01*
X157780D01*
X158250Y13010D01*
X158660Y12780D01*
X159010Y12420D01*
X159240Y12020D01*
X159300Y11550D01*
G01X158370Y12020D02*
X159300Y12720D01*
G01Y15430D02*
X158540Y15550D01*
X157900Y15730D01*
X157320Y15960D01*
X156680Y16250D01*
X155800Y16720D01*
Y14380D01*
G01X169000Y8380D02*
X165500D01*
Y9840D01*
X165680Y10310D01*
X165910Y10600D01*
X166380Y10720D01*
X166840Y10600D01*
X167130Y10250D01*
X167310Y9840D01*
Y8380D01*
G01Y9840D02*
X169000Y10720D01*
G01X166080Y12440D02*
X165730Y12790D01*
X165560Y13200D01*
X165500Y13670D01*
X165620Y14250D01*
X165910Y14660D01*
X166260Y14780D01*
X166610Y14720D01*
X166900Y14480D01*
X167480Y13320D01*
X167890Y12790D01*
X168480Y12440D01*
X169000Y12320D01*
Y14780D01*
G01X167540Y16440D02*
X167130Y16850D01*
X166900Y17200D01*
X166780Y17670D01*
X166900Y18080D01*
X167130Y18370D01*
X167480Y18600D01*
X167890Y18660D01*
X168240Y18600D01*
X168590Y18370D01*
X168880Y18020D01*
X169000Y17610D01*
X168880Y17140D01*
X168530Y16730D01*
X168010Y16500D01*
X167430Y16440D01*
X166670Y16560D01*
X166260Y16730D01*
X165850Y17020D01*
X165560Y17430D01*
X165500Y17840D01*
X165620Y18250D01*
X165910Y18540D01*
G01X176200Y7780D02*
X172700D01*
Y9240D01*
X172880Y9710D01*
X173110Y10000D01*
X173580Y10120D01*
X174040Y10000D01*
X174330Y9650D01*
X174510Y9240D01*
Y7780D01*
G01Y9240D02*
X176200Y10120D01*
G01X173280Y11840D02*
X172930Y12190D01*
X172760Y12600D01*
X172700Y13070D01*
X172820Y13650D01*
X173110Y14060D01*
X173460Y14180D01*
X173810Y14120D01*
X174100Y13880D01*
X174680Y12720D01*
X175090Y12190D01*
X175680Y11840D01*
X176200Y11720D01*
Y14180D01*
G01X175500Y15670D02*
X175910Y16020D01*
X176140Y16480D01*
X176200Y17010D01*
X176140Y17480D01*
X175850Y17940D01*
X175500Y18230D01*
X175150Y18290D01*
X174740Y18180D01*
X174450Y17770D01*
X174330Y17360D01*
Y16830D01*
G01Y17360D02*
X174160Y17710D01*
X173870Y18000D01*
X173520Y18120D01*
X173170Y18000D01*
X172880Y17710D01*
X172700Y17180D01*
X172760Y16660D01*
X172990Y16130D01*
G01X209680Y8300D02*
Y11800D01*
X211140D01*
X211610Y11620D01*
X211900Y11390D01*
X212020Y10920D01*
X211900Y10460D01*
X211550Y10170D01*
X211140Y9990D01*
X209680D01*
G01X211140D02*
X212020Y8300D01*
G01X214850D02*
Y11800D01*
X214150Y11100D01*
G01Y8300D02*
X215550D01*
G01X218850D02*
X219260Y8360D01*
X219720Y8530D01*
X220020Y8820D01*
X220130Y9230D01*
X220020Y9640D01*
X219670Y9990D01*
X219140Y10170D01*
X218560D01*
X218210Y10280D01*
X217920Y10570D01*
X217800Y10980D01*
X217980Y11390D01*
X218380Y11680D01*
X218850Y11800D01*
X219320Y11680D01*
X219720Y11390D01*
X219900Y10980D01*
X219780Y10570D01*
X219490Y10280D01*
X219140Y10170D01*
X218560D01*
X218030Y9990D01*
X217680Y9640D01*
X217570Y9230D01*
X217680Y8820D01*
X217980Y8530D01*
X218440Y8360D01*
X218850Y8300D01*
G01X211070Y15200D02*
Y18700D01*
X212230D01*
X212700Y18520D01*
X213050Y18290D01*
X213340Y17940D01*
X213580Y17530D01*
X213630Y16950D01*
X213580Y16370D01*
X213340Y15960D01*
X213050Y15610D01*
X212700Y15370D01*
X212230Y15200D01*
X211070D01*
G01X215240Y18120D02*
X215590Y18470D01*
X216000Y18640D01*
X216470Y18700D01*
X217050Y18580D01*
X217460Y18290D01*
X217580Y17940D01*
X217520Y17590D01*
X217280Y17300D01*
X216120Y16720D01*
X215590Y16310D01*
X215240Y15720D01*
X215120Y15200D01*
X217580D01*
G01X228500Y11850D02*
X228440Y11380D01*
X228210Y10980D01*
X227860Y10620D01*
X227450Y10390D01*
X226980Y10270D01*
X226520D01*
X226050Y10390D01*
X225640Y10620D01*
X225290Y10980D01*
X225060Y11380D01*
X225000Y11850D01*
X225060Y12320D01*
X225290Y12720D01*
X225640Y13080D01*
X226050Y13310D01*
X226520Y13430D01*
X226980D01*
X227450Y13310D01*
X227860Y13080D01*
X228210Y12720D01*
X228440Y12320D01*
X228500Y11850D01*
G01X227570Y12320D02*
X228500Y13020D01*
G01X227980Y14570D02*
X228270Y14920D01*
X228440Y15320D01*
X228500Y15850D01*
X228380Y16380D01*
X228150Y16780D01*
X227740Y17080D01*
X227280Y17130D01*
X226810Y17020D01*
X226520Y16720D01*
X226280Y16320D01*
X226230Y15910D01*
X226280Y15500D01*
X226520Y14980D01*
X225000Y15150D01*
Y16720D01*
G01X227580Y354580D02*
Y352070D01*
X227810Y351550D01*
X228280Y351200D01*
X228860Y351080D01*
X229440Y351200D01*
X229910Y351550D01*
X230140Y352070D01*
Y354580D01*
G01X231580Y351600D02*
X231930Y351310D01*
X232330Y351140D01*
X232860Y351080D01*
X233390Y351200D01*
X233790Y351430D01*
X234090Y351840D01*
X234140Y352300D01*
X234030Y352770D01*
X233730Y353060D01*
X233330Y353300D01*
X232920Y353350D01*
X232510Y353300D01*
X231990Y353060D01*
X232160Y354580D01*
X233730D01*
G01X238400Y8280D02*
X234900D01*
Y9740D01*
X235080Y10210D01*
X235310Y10500D01*
X235780Y10620D01*
X236240Y10500D01*
X236530Y10150D01*
X236710Y9740D01*
Y8280D01*
G01Y9740D02*
X238400Y10620D01*
G01X235480Y12340D02*
X235130Y12690D01*
X234960Y13100D01*
X234900Y13570D01*
X235020Y14150D01*
X235310Y14560D01*
X235660Y14680D01*
X236010Y14620D01*
X236300Y14380D01*
X236880Y13220D01*
X237290Y12690D01*
X237880Y12340D01*
X238400Y12220D01*
Y14680D01*
G01Y18150D02*
X234900D01*
X237410Y15990D01*
Y18910D01*
G01X245400Y8280D02*
X241900D01*
Y9740D01*
X242080Y10210D01*
X242310Y10500D01*
X242780Y10620D01*
X243240Y10500D01*
X243530Y10150D01*
X243710Y9740D01*
Y8280D01*
G01Y9740D02*
X245400Y10620D01*
G01X242480Y12340D02*
X242130Y12690D01*
X241960Y13100D01*
X241900Y13570D01*
X242020Y14150D01*
X242310Y14560D01*
X242660Y14680D01*
X243010Y14620D01*
X243300Y14380D01*
X243880Y13220D01*
X244290Y12690D01*
X244880Y12340D01*
X245400Y12220D01*
Y14680D01*
G01Y17450D02*
X241900D01*
X242600Y16750D01*
G01X245400D02*
Y18150D01*
G01X240690Y36430D02*
X240520Y36080D01*
X240400Y35680D01*
Y35210D01*
X240580Y34680D01*
X240870Y34280D01*
X241220Y33980D01*
X241800Y33750D01*
X242330Y33690D01*
X242850Y33810D01*
X243200Y33980D01*
X243550Y34330D01*
X243780Y34740D01*
X243900Y35150D01*
Y35560D01*
X243780Y35970D01*
X243610Y36320D01*
X243380Y36610D01*
G01X242440Y38040D02*
X242030Y38450D01*
X241800Y38800D01*
X241680Y39270D01*
X241800Y39680D01*
X242030Y39970D01*
X242380Y40200D01*
X242790Y40260D01*
X243140Y40200D01*
X243490Y39970D01*
X243780Y39620D01*
X243900Y39210D01*
X243780Y38740D01*
X243430Y38330D01*
X242910Y38100D01*
X242330Y38040D01*
X241570Y38160D01*
X241160Y38330D01*
X240750Y38620D01*
X240460Y39030D01*
X240400Y39440D01*
X240520Y39850D01*
X240810Y40140D01*
G01X248080Y88800D02*
Y92300D01*
X249540D01*
X250010Y92120D01*
X250300Y91890D01*
X250420Y91420D01*
X250300Y90960D01*
X249950Y90670D01*
X249540Y90490D01*
X248080D01*
G01X249540D02*
X250420Y88800D01*
G01X253250D02*
Y92300D01*
X252550Y91600D01*
G01Y88800D02*
X253950D01*
G01X255970Y89500D02*
X256320Y89090D01*
X256780Y88860D01*
X257310Y88800D01*
X257780Y88860D01*
X258240Y89150D01*
X258530Y89500D01*
X258590Y89850D01*
X258480Y90260D01*
X258070Y90550D01*
X257660Y90670D01*
X257130D01*
G01X257660D02*
X258010Y90840D01*
X258300Y91130D01*
X258420Y91480D01*
X258300Y91830D01*
X258010Y92120D01*
X257480Y92300D01*
X256960Y92240D01*
X256430Y92010D01*
G01X251900Y76580D02*
X248400D01*
Y78040D01*
X248580Y78510D01*
X248810Y78800D01*
X249280Y78920D01*
X249740Y78800D01*
X250030Y78450D01*
X250210Y78040D01*
Y76580D01*
G01Y78040D02*
X251900Y78920D01*
G01Y81750D02*
X248400D01*
X249100Y81050D01*
G01X251900D02*
Y82450D01*
G01Y86450D02*
X248400D01*
X250910Y84290D01*
Y87210D01*
G01X261200Y79050D02*
X261140Y78580D01*
X260910Y78180D01*
X260560Y77820D01*
X260150Y77590D01*
X259680Y77470D01*
X259220D01*
X258750Y77590D01*
X258340Y77820D01*
X257990Y78180D01*
X257760Y78580D01*
X257700Y79050D01*
X257760Y79520D01*
X257990Y79920D01*
X258340Y80280D01*
X258750Y80510D01*
X259220Y80630D01*
X259680D01*
X260150Y80510D01*
X260560Y80280D01*
X260910Y79920D01*
X261140Y79520D01*
X261200Y79050D01*
G01X260270Y79520D02*
X261200Y80220D01*
G01Y83750D02*
X257700D01*
X260210Y81590D01*
Y84510D01*
G01X259670Y42400D02*
Y39890D01*
X259900Y39370D01*
X260370Y39020D01*
X260950Y38900D01*
X261530Y39020D01*
X262000Y39370D01*
X262230Y39890D01*
Y42400D01*
G01X263960Y39310D02*
X264370Y39020D01*
X264830Y38900D01*
X265300Y39020D01*
X265710Y39370D01*
X266000Y39890D01*
X266120Y40420D01*
Y41060D01*
X266000Y41580D01*
X265710Y42050D01*
X265360Y42280D01*
X264950Y42400D01*
X264480Y42280D01*
X264130Y42050D01*
X263900Y41700D01*
X263780Y41230D01*
X263900Y40830D01*
X264190Y40420D01*
X264540Y40180D01*
X264950Y40120D01*
X265420Y40240D01*
X265770Y40530D01*
X266120Y41060D01*
G01X262700Y61080D02*
X259200D01*
Y62540D01*
X259380Y63010D01*
X259610Y63300D01*
X260080Y63420D01*
X260540Y63300D01*
X260830Y62950D01*
X261010Y62540D01*
Y61080D01*
G01Y62540D02*
X262700Y63420D01*
G01Y66250D02*
X259200D01*
X259900Y65550D01*
G01X262700D02*
Y66950D01*
G01X259780Y69140D02*
X259430Y69490D01*
X259260Y69900D01*
X259200Y70370D01*
X259320Y70950D01*
X259610Y71360D01*
X259960Y71480D01*
X260310Y71420D01*
X260600Y71180D01*
X261180Y70020D01*
X261590Y69490D01*
X262180Y69140D01*
X262700Y69020D01*
Y71480D01*
G01X262870Y107400D02*
Y104890D01*
X263100Y104370D01*
X263570Y104020D01*
X264150Y103900D01*
X264730Y104020D01*
X265200Y104370D01*
X265430Y104890D01*
Y107400D01*
G01X268150Y103900D02*
X268560Y103960D01*
X269020Y104130D01*
X269320Y104420D01*
X269430Y104830D01*
X269320Y105240D01*
X268970Y105590D01*
X268440Y105770D01*
X267860D01*
X267510Y105880D01*
X267220Y106170D01*
X267100Y106580D01*
X267280Y106990D01*
X267680Y107280D01*
X268150Y107400D01*
X268620Y107280D01*
X269020Y106990D01*
X269200Y106580D01*
X269080Y106170D01*
X268790Y105880D01*
X268440Y105770D01*
X267860D01*
X267330Y105590D01*
X266980Y105240D01*
X266870Y104830D01*
X266980Y104420D01*
X267280Y104130D01*
X267740Y103960D01*
X268150Y103900D01*
G01X261130Y115910D02*
X260780Y116080D01*
X260380Y116200D01*
X259910D01*
X259380Y116020D01*
X258980Y115730D01*
X258680Y115380D01*
X258450Y114800D01*
X258390Y114270D01*
X258510Y113750D01*
X258680Y113400D01*
X259030Y113050D01*
X259440Y112820D01*
X259850Y112700D01*
X260260D01*
X260670Y112820D01*
X261020Y112990D01*
X261310Y113220D01*
G01X262570Y113400D02*
X262920Y112990D01*
X263380Y112760D01*
X263910Y112700D01*
X264380Y112760D01*
X264840Y113050D01*
X265130Y113400D01*
X265190Y113750D01*
X265080Y114160D01*
X264670Y114450D01*
X264260Y114570D01*
X263730D01*
G01X264260D02*
X264610Y114740D01*
X264900Y115030D01*
X265020Y115380D01*
X264900Y115730D01*
X264610Y116020D01*
X264080Y116200D01*
X263560Y116140D01*
X263030Y115910D01*
G01X271350Y7200D02*
Y3700D01*
G01X270010Y7200D02*
X272690D01*
G01X274180Y3700D02*
Y7200D01*
X275580D01*
X276050Y7020D01*
X276400Y6620D01*
X276520Y6150D01*
X276400Y5680D01*
X276110Y5330D01*
X275580Y5160D01*
X274180D01*
G01X279350Y3700D02*
Y7200D01*
X278650Y6500D01*
G01Y3700D02*
X280050D01*
G01X278300Y292780D02*
X274800D01*
Y294240D01*
X274980Y294710D01*
X275210Y295000D01*
X275680Y295120D01*
X276140Y295000D01*
X276430Y294650D01*
X276610Y294240D01*
Y292780D01*
G01Y294240D02*
X278300Y295120D01*
G01X277600Y296670D02*
X278010Y297020D01*
X278240Y297480D01*
X278300Y298010D01*
X278240Y298480D01*
X277950Y298940D01*
X277600Y299230D01*
X277250Y299290D01*
X276840Y299180D01*
X276550Y298770D01*
X276430Y298360D01*
Y297830D01*
G01Y298360D02*
X276260Y298710D01*
X275970Y299000D01*
X275620Y299120D01*
X275270Y299000D01*
X274980Y298710D01*
X274800Y298180D01*
X274860Y297660D01*
X275090Y297130D01*
G01X274800Y301950D02*
X274920Y301480D01*
X275210Y301130D01*
X275560Y300900D01*
X276030Y300720D01*
X276550Y300670D01*
X277080Y300720D01*
X277540Y300900D01*
X277890Y301130D01*
X278180Y301480D01*
X278300Y301950D01*
X278180Y302420D01*
X277890Y302770D01*
X277540Y303000D01*
X277080Y303180D01*
X276550Y303230D01*
X276030Y303180D01*
X275560Y303000D01*
X275210Y302770D01*
X274920Y302420D01*
X274800Y301950D01*
G01X275680Y322700D02*
Y326200D01*
X277140D01*
X277610Y326020D01*
X277900Y325790D01*
X278020Y325320D01*
X277900Y324860D01*
X277550Y324570D01*
X277140Y324390D01*
X275680D01*
G01X277140D02*
X278020Y322700D01*
G01X279740Y325620D02*
X280090Y325970D01*
X280500Y326140D01*
X280970Y326200D01*
X281550Y326080D01*
X281960Y325790D01*
X282080Y325440D01*
X282020Y325090D01*
X281780Y324800D01*
X280620Y324220D01*
X280090Y323810D01*
X279740Y323220D01*
X279620Y322700D01*
X282080D01*
G01X284850D02*
X285260Y322760D01*
X285720Y322930D01*
X286020Y323220D01*
X286130Y323630D01*
X286020Y324040D01*
X285670Y324390D01*
X285140Y324570D01*
X284560D01*
X284210Y324680D01*
X283920Y324970D01*
X283800Y325380D01*
X283980Y325790D01*
X284380Y326080D01*
X284850Y326200D01*
X285320Y326080D01*
X285720Y325790D01*
X285900Y325380D01*
X285780Y324970D01*
X285490Y324680D01*
X285140Y324570D01*
X284560D01*
X284030Y324390D01*
X283680Y324040D01*
X283570Y323630D01*
X283680Y323220D01*
X283980Y322930D01*
X284440Y322760D01*
X284850Y322700D01*
G01X286030Y46110D02*
X285680Y46280D01*
X285280Y46400D01*
X284810D01*
X284280Y46220D01*
X283880Y45930D01*
X283580Y45580D01*
X283350Y45000D01*
X283290Y44470D01*
X283410Y43950D01*
X283580Y43600D01*
X283930Y43250D01*
X284340Y43020D01*
X284750Y42900D01*
X285160D01*
X285570Y43020D01*
X285920Y43190D01*
X286210Y43420D01*
G01X288630Y42900D02*
X288750Y43660D01*
X288930Y44300D01*
X289160Y44880D01*
X289450Y45520D01*
X289920Y46400D01*
X287580D01*
G01X278790Y105030D02*
X278620Y104680D01*
X278500Y104280D01*
Y103810D01*
X278680Y103280D01*
X278970Y102880D01*
X279320Y102580D01*
X279900Y102350D01*
X280430Y102290D01*
X280950Y102410D01*
X281300Y102580D01*
X281650Y102930D01*
X281880Y103340D01*
X282000Y103750D01*
Y104160D01*
X281880Y104570D01*
X281710Y104920D01*
X281480Y105210D01*
G01Y106470D02*
X281770Y106820D01*
X281940Y107220D01*
X282000Y107750D01*
X281880Y108280D01*
X281650Y108680D01*
X281240Y108980D01*
X280780Y109030D01*
X280310Y108920D01*
X280020Y108620D01*
X279780Y108220D01*
X279730Y107810D01*
X279780Y107400D01*
X280020Y106880D01*
X278500Y107050D01*
Y108620D01*
G01X286100Y152980D02*
X282600D01*
Y154380D01*
X282780Y154850D01*
X283180Y155200D01*
X283650Y155320D01*
X284120Y155200D01*
X284470Y154910D01*
X284640Y154380D01*
Y152980D01*
G01X286100Y158150D02*
X282600D01*
X283300Y157450D01*
G01X286100D02*
Y158850D01*
G01X280500Y232380D02*
X280850Y232680D01*
X281080Y233020D01*
X281200Y233430D01*
X281080Y233900D01*
X280850Y234250D01*
X280500Y234600D01*
X280030Y234720D01*
X277700D01*
G01X281200Y237550D02*
X277700D01*
X278400Y236850D01*
G01X281200D02*
Y238250D01*
G01X280680Y240270D02*
X280970Y240620D01*
X281140Y241020D01*
X281200Y241550D01*
X281080Y242080D01*
X280850Y242480D01*
X280440Y242780D01*
X279980Y242830D01*
X279510Y242720D01*
X279220Y242420D01*
X278980Y242020D01*
X278930Y241610D01*
X278980Y241200D01*
X279220Y240680D01*
X277700Y240850D01*
Y242420D01*
G01X281680Y308500D02*
Y312000D01*
X283140D01*
X283610Y311820D01*
X283900Y311590D01*
X284020Y311120D01*
X283900Y310660D01*
X283550Y310370D01*
X283140Y310190D01*
X281680D01*
G01X283140D02*
X284020Y308500D01*
G01X285740Y311420D02*
X286090Y311770D01*
X286500Y311940D01*
X286970Y312000D01*
X287550Y311880D01*
X287960Y311590D01*
X288080Y311240D01*
X288020Y310890D01*
X287780Y310600D01*
X286620Y310020D01*
X286090Y309610D01*
X285740Y309020D01*
X285620Y308500D01*
X288080D01*
G01X289860Y308910D02*
X290270Y308620D01*
X290730Y308500D01*
X291200Y308620D01*
X291610Y308970D01*
X291900Y309490D01*
X292020Y310020D01*
Y310660D01*
X291900Y311180D01*
X291610Y311650D01*
X291260Y311880D01*
X290850Y312000D01*
X290380Y311880D01*
X290030Y311650D01*
X289800Y311300D01*
X289680Y310830D01*
X289800Y310430D01*
X290090Y310020D01*
X290440Y309780D01*
X290850Y309720D01*
X291320Y309840D01*
X291670Y310130D01*
X292020Y310660D01*
G01X288480Y20500D02*
X288780Y20150D01*
X289120Y19920D01*
X289530Y19800D01*
X290000Y19920D01*
X290350Y20150D01*
X290700Y20500D01*
X290820Y20970D01*
Y23300D01*
G01X293650Y19800D02*
Y23300D01*
X292950Y22600D01*
G01Y19800D02*
X294350D01*
G01X297530D02*
X297650Y20560D01*
X297830Y21200D01*
X298060Y21780D01*
X298350Y22420D01*
X298820Y23300D01*
X296480D01*
G01X294950Y40300D02*
Y36800D01*
G01X293610Y40300D02*
X296290D01*
G01X297780Y36800D02*
Y40300D01*
X299180D01*
X299650Y40120D01*
X300000Y39720D01*
X300120Y39250D01*
X300000Y38780D01*
X299710Y38430D01*
X299180Y38260D01*
X297780D01*
G01X301670Y37500D02*
X302020Y37090D01*
X302480Y36860D01*
X303010Y36800D01*
X303480Y36860D01*
X303940Y37150D01*
X304230Y37500D01*
X304290Y37850D01*
X304180Y38260D01*
X303770Y38550D01*
X303360Y38670D01*
X302830D01*
G01X303360D02*
X303710Y38840D01*
X304000Y39130D01*
X304120Y39480D01*
X304000Y39830D01*
X303710Y40120D01*
X303180Y40300D01*
X302660Y40240D01*
X302130Y40010D01*
G01X289570Y67300D02*
Y64790D01*
X289800Y64270D01*
X290270Y63920D01*
X290850Y63800D01*
X291430Y63920D01*
X291900Y64270D01*
X292130Y64790D01*
Y67300D01*
G01X295550Y63800D02*
Y67300D01*
X293390Y64790D01*
X296310D01*
G01X290770Y96800D02*
Y94290D01*
X291000Y93770D01*
X291470Y93420D01*
X292050Y93300D01*
X292630Y93420D01*
X293100Y93770D01*
X293330Y94290D01*
Y96800D01*
G01X294770Y94000D02*
X295120Y93590D01*
X295580Y93360D01*
X296110Y93300D01*
X296580Y93360D01*
X297040Y93650D01*
X297330Y94000D01*
X297390Y94350D01*
X297280Y94760D01*
X296870Y95050D01*
X296460Y95170D01*
X295930D01*
G01X296460D02*
X296810Y95340D01*
X297100Y95630D01*
X297220Y95980D01*
X297100Y96330D01*
X296810Y96620D01*
X296280Y96800D01*
X295760Y96740D01*
X295230Y96510D01*
G01X294330Y108510D02*
X293980Y108680D01*
X293580Y108800D01*
X293110D01*
X292580Y108620D01*
X292180Y108330D01*
X291880Y107980D01*
X291650Y107400D01*
X291590Y106870D01*
X291710Y106350D01*
X291880Y106000D01*
X292230Y105650D01*
X292640Y105420D01*
X293050Y105300D01*
X293460D01*
X293870Y105420D01*
X294220Y105590D01*
X294510Y105820D01*
G01X297750Y105300D02*
Y108800D01*
X295590Y106290D01*
X298510D01*
G01X296550Y114900D02*
Y111400D01*
G01X295210Y114900D02*
X297890D01*
G01X299380Y111400D02*
Y114900D01*
X300780D01*
X301250Y114720D01*
X301600Y114320D01*
X301720Y113850D01*
X301600Y113380D01*
X301310Y113030D01*
X300780Y112860D01*
X299380D01*
G01X303440Y114320D02*
X303790Y114670D01*
X304200Y114840D01*
X304670Y114900D01*
X305250Y114780D01*
X305660Y114490D01*
X305780Y114140D01*
X305720Y113790D01*
X305480Y113500D01*
X304320Y112920D01*
X303790Y112510D01*
X303440Y111920D01*
X303320Y111400D01*
X305780D01*
G01X299400Y159350D02*
X299340Y158880D01*
X299110Y158480D01*
X298760Y158120D01*
X298350Y157890D01*
X297880Y157770D01*
X297420D01*
X296950Y157890D01*
X296540Y158120D01*
X296190Y158480D01*
X295960Y158880D01*
X295900Y159350D01*
X295960Y159820D01*
X296190Y160220D01*
X296540Y160580D01*
X296950Y160810D01*
X297420Y160930D01*
X297880D01*
X298350Y160810D01*
X298760Y160580D01*
X299110Y160220D01*
X299340Y159820D01*
X299400Y159350D01*
G01X298470Y159820D02*
X299400Y160520D01*
G01Y163350D02*
X295900D01*
X296600Y162650D01*
G01X299400D02*
Y164050D01*
G01X294680Y170000D02*
Y173500D01*
X296140D01*
X296610Y173320D01*
X296900Y173090D01*
X297020Y172620D01*
X296900Y172160D01*
X296550Y171870D01*
X296140Y171690D01*
X294680D01*
G01X296140D02*
X297020Y170000D01*
G01X298570Y170520D02*
X298920Y170230D01*
X299320Y170060D01*
X299850Y170000D01*
X300380Y170120D01*
X300780Y170350D01*
X301080Y170760D01*
X301130Y171220D01*
X301020Y171690D01*
X300720Y171980D01*
X300320Y172220D01*
X299910Y172270D01*
X299500Y172220D01*
X298980Y171980D01*
X299150Y173500D01*
X300720D01*
G01X292500Y223280D02*
X292850Y223580D01*
X293080Y223920D01*
X293200Y224330D01*
X293080Y224800D01*
X292850Y225150D01*
X292500Y225500D01*
X292030Y225620D01*
X289700D01*
G01X293200Y228450D02*
X289700D01*
X290400Y227750D01*
G01X293200D02*
Y229150D01*
G01Y233150D02*
X289700D01*
X292210Y230990D01*
Y233910D01*
G01X290220Y282470D02*
X290690Y282170D01*
X291220Y282000D01*
X291680D01*
X292150Y282170D01*
X292500Y282470D01*
X292680Y282880D01*
X292560Y283280D01*
X292270Y283630D01*
X291740Y283870D01*
X291040Y283980D01*
X290630Y284220D01*
X290460Y284620D01*
X290580Y285030D01*
X290870Y285320D01*
X291270Y285500D01*
X291680D01*
X292090Y285380D01*
X292440Y285090D01*
G01X293700Y285500D02*
X294520Y282000D01*
X295450Y285500D01*
X296380Y282000D01*
X297200Y285500D01*
G01X298170Y282700D02*
X298520Y282290D01*
X298980Y282060D01*
X299510Y282000D01*
X299980Y282060D01*
X300440Y282350D01*
X300730Y282700D01*
X300790Y283050D01*
X300680Y283460D01*
X300270Y283750D01*
X299860Y283870D01*
X299330D01*
G01X299860D02*
X300210Y284040D01*
X300500Y284330D01*
X300620Y284680D01*
X300500Y285030D01*
X300210Y285320D01*
X299680Y285500D01*
X299160Y285440D01*
X298630Y285210D01*
G01X289380Y323100D02*
Y326600D01*
X290840D01*
X291310Y326420D01*
X291600Y326190D01*
X291720Y325720D01*
X291600Y325260D01*
X291250Y324970D01*
X290840Y324790D01*
X289380D01*
G01X290840D02*
X291720Y323100D01*
G01X293440Y326020D02*
X293790Y326370D01*
X294200Y326540D01*
X294670Y326600D01*
X295250Y326480D01*
X295660Y326190D01*
X295780Y325840D01*
X295720Y325490D01*
X295480Y325200D01*
X294320Y324620D01*
X293790Y324210D01*
X293440Y323620D01*
X293320Y323100D01*
X295780D01*
G01X298430D02*
X298550Y323860D01*
X298730Y324500D01*
X298960Y325080D01*
X299250Y325720D01*
X299720Y326600D01*
X297380D01*
G01X288520Y341970D02*
X288990Y341670D01*
X289520Y341500D01*
X289980D01*
X290450Y341670D01*
X290800Y341970D01*
X290980Y342380D01*
X290860Y342780D01*
X290570Y343130D01*
X290040Y343370D01*
X289340Y343480D01*
X288930Y343720D01*
X288760Y344120D01*
X288880Y344530D01*
X289170Y344820D01*
X289570Y345000D01*
X289980D01*
X290390Y344880D01*
X290740Y344590D01*
G01X292000Y345000D02*
X292820Y341500D01*
X293750Y345000D01*
X294680Y341500D01*
X295500Y345000D01*
G01X297750Y341500D02*
Y345000D01*
X297050Y344300D01*
G01Y341500D02*
X298450D01*
G01X289230Y372600D02*
X289550Y372100D01*
X289930Y371770D01*
X290370Y371600D01*
X290880Y371770D01*
X291260Y372100D01*
X291640Y372600D01*
X291770Y373270D01*
Y376600D01*
G01X295600Y371600D02*
Y376600D01*
X294840Y375600D01*
G01Y371600D02*
X296360D01*
G01X300700D02*
X301140Y371680D01*
X301650Y371930D01*
X301970Y372350D01*
X302090Y372930D01*
X301970Y373520D01*
X301590Y374020D01*
X301020Y374270D01*
X300380D01*
X300000Y374430D01*
X299690Y374850D01*
X299560Y375430D01*
X299750Y376020D01*
X300190Y376430D01*
X300700Y376600D01*
X301210Y376430D01*
X301650Y376020D01*
X301840Y375430D01*
X301710Y374850D01*
X301400Y374430D01*
X301020Y374270D01*
X300380D01*
X299810Y374020D01*
X299430Y373520D01*
X299310Y372930D01*
X299430Y372350D01*
X299750Y371930D01*
X300260Y371680D01*
X300700Y371600D01*
G01X298760Y43100D02*
Y46600D01*
X299920D01*
X300390Y46420D01*
X300740Y46190D01*
X301030Y45840D01*
X301270Y45430D01*
X301320Y44850D01*
X301270Y44270D01*
X301030Y43860D01*
X300740Y43510D01*
X300390Y43270D01*
X299920Y43100D01*
X298760D01*
G01X303920D02*
X304040Y43860D01*
X304220Y44500D01*
X304450Y45080D01*
X304740Y45720D01*
X305210Y46600D01*
X302870D01*
G01X299570Y118600D02*
Y122100D01*
X300730D01*
X301200Y121920D01*
X301550Y121690D01*
X301840Y121340D01*
X302080Y120930D01*
X302130Y120350D01*
X302080Y119770D01*
X301840Y119360D01*
X301550Y119010D01*
X301200Y118770D01*
X300730Y118600D01*
X299570D01*
G01X303740Y120060D02*
X304150Y120470D01*
X304500Y120700D01*
X304970Y120820D01*
X305380Y120700D01*
X305670Y120470D01*
X305900Y120120D01*
X305960Y119710D01*
X305900Y119360D01*
X305670Y119010D01*
X305320Y118720D01*
X304910Y118600D01*
X304440Y118720D01*
X304030Y119070D01*
X303800Y119590D01*
X303740Y120170D01*
X303860Y120930D01*
X304030Y121340D01*
X304320Y121750D01*
X304730Y122040D01*
X305140Y122100D01*
X305550Y121980D01*
X305840Y121690D01*
G01X298380Y126000D02*
Y129500D01*
X299840D01*
X300310Y129320D01*
X300600Y129090D01*
X300720Y128620D01*
X300600Y128160D01*
X300250Y127870D01*
X299840Y127690D01*
X298380D01*
G01X299840D02*
X300720Y126000D01*
G01X302270Y126700D02*
X302620Y126290D01*
X303080Y126060D01*
X303610Y126000D01*
X304080Y126060D01*
X304540Y126350D01*
X304830Y126700D01*
X304890Y127050D01*
X304780Y127460D01*
X304370Y127750D01*
X303960Y127870D01*
X303430D01*
G01X303960D02*
X304310Y128040D01*
X304600Y128330D01*
X304720Y128680D01*
X304600Y129030D01*
X304310Y129320D01*
X303780Y129500D01*
X303260Y129440D01*
X302730Y129210D01*
G01X306270Y126520D02*
X306620Y126230D01*
X307020Y126060D01*
X307550Y126000D01*
X308080Y126120D01*
X308480Y126350D01*
X308780Y126760D01*
X308830Y127220D01*
X308720Y127690D01*
X308420Y127980D01*
X308020Y128220D01*
X307610Y128270D01*
X307200Y128220D01*
X306680Y127980D01*
X306850Y129500D01*
X308420D01*
G01X302800Y145150D02*
X302740Y144680D01*
X302510Y144280D01*
X302160Y143920D01*
X301750Y143690D01*
X301280Y143570D01*
X300820D01*
X300350Y143690D01*
X299940Y143920D01*
X299590Y144280D01*
X299360Y144680D01*
X299300Y145150D01*
X299360Y145620D01*
X299590Y146020D01*
X299940Y146380D01*
X300350Y146610D01*
X300820Y146730D01*
X301280D01*
X301750Y146610D01*
X302160Y146380D01*
X302510Y146020D01*
X302740Y145620D01*
X302800Y145150D01*
G01X301870Y145620D02*
X302800Y146320D01*
G01X299880Y148040D02*
X299530Y148390D01*
X299360Y148800D01*
X299300Y149270D01*
X299420Y149850D01*
X299710Y150260D01*
X300060Y150380D01*
X300410Y150320D01*
X300700Y150080D01*
X301280Y148920D01*
X301690Y148390D01*
X302280Y148040D01*
X302800Y147920D01*
Y150380D01*
G01X297670Y308500D02*
Y312000D01*
X298830D01*
X299300Y311820D01*
X299650Y311590D01*
X299940Y311240D01*
X300180Y310830D01*
X300230Y310250D01*
X300180Y309670D01*
X299940Y309260D01*
X299650Y308910D01*
X299300Y308670D01*
X298830Y308500D01*
X297670D01*
G01X301670Y309020D02*
X302020Y308730D01*
X302420Y308560D01*
X302950Y308500D01*
X303480Y308620D01*
X303880Y308850D01*
X304180Y309260D01*
X304230Y309720D01*
X304120Y310190D01*
X303820Y310480D01*
X303420Y310720D01*
X303010Y310770D01*
X302600Y310720D01*
X302080Y310480D01*
X302250Y312000D01*
X303820D01*
G01X312000Y36680D02*
X308500D01*
Y38140D01*
X308680Y38610D01*
X308910Y38900D01*
X309380Y39020D01*
X309840Y38900D01*
X310130Y38550D01*
X310310Y38140D01*
Y36680D01*
G01Y38140D02*
X312000Y39020D01*
G01X311300Y40570D02*
X311710Y40920D01*
X311940Y41380D01*
X312000Y41910D01*
X311940Y42380D01*
X311650Y42840D01*
X311300Y43130D01*
X310950Y43190D01*
X310540Y43080D01*
X310250Y42670D01*
X310130Y42260D01*
Y41730D01*
G01Y42260D02*
X309960Y42610D01*
X309670Y42900D01*
X309320Y43020D01*
X308970Y42900D01*
X308680Y42610D01*
X308500Y42080D01*
X308560Y41560D01*
X308790Y41030D01*
G01X310540Y44740D02*
X310130Y45150D01*
X309900Y45500D01*
X309780Y45970D01*
X309900Y46380D01*
X310130Y46670D01*
X310480Y46900D01*
X310890Y46960D01*
X311240Y46900D01*
X311590Y46670D01*
X311880Y46320D01*
X312000Y45910D01*
X311880Y45440D01*
X311530Y45030D01*
X311010Y44800D01*
X310430Y44740D01*
X309670Y44860D01*
X309260Y45030D01*
X308850Y45320D01*
X308560Y45730D01*
X308500Y46140D01*
X308620Y46550D01*
X308910Y46840D01*
G01X310900Y165680D02*
X307400D01*
Y167140D01*
X307580Y167610D01*
X307810Y167900D01*
X308280Y168020D01*
X308740Y167900D01*
X309030Y167550D01*
X309210Y167140D01*
Y165680D01*
G01Y167140D02*
X310900Y168020D01*
G01X309440Y169740D02*
X309030Y170150D01*
X308800Y170500D01*
X308680Y170970D01*
X308800Y171380D01*
X309030Y171670D01*
X309380Y171900D01*
X309790Y171960D01*
X310140Y171900D01*
X310490Y171670D01*
X310780Y171320D01*
X310900Y170910D01*
X310780Y170440D01*
X310430Y170030D01*
X309910Y169800D01*
X309330Y169740D01*
X308570Y169860D01*
X308160Y170030D01*
X307750Y170320D01*
X307460Y170730D01*
X307400Y171140D01*
X307520Y171550D01*
X307810Y171840D01*
G54D14*
G01X19990Y175740D02*
X6610D01*
Y181260D01*
X19990D01*
Y175740D01*
M02*
