G04 ================== begin FILE IDENTIFICATION RECORD ==================*
G04 Layout Name:  F:/leeo/CC3200/Hardware/Smartlocker/layout/Smartlocker10x8.brd*
G04 Film Name:    BOTTOM*
G04 File Format:  Gerber RS274X*
G04 File Origin:  Cadence Allegro 16.5-S047*
G04 Origin Date:  Mon Dec 28 14:32:46 2015*
G04 *
G04 Layer:  ETCH/BOTTOM*
G04 Layer:  PIN/BOTTOM*
G04 Layer:  VIA CLASS/BOTTOM*
G04 *
G04 Offset:    (0.0 0.0)*
G04 Mirror:    No*
G04 Mode:      Positive*
G04 Rotation:  0*
G04 FullContactRelief:  No*
G04 UndefLineWidth:     0.0*
G04 ================== end FILE IDENTIFICATION RECORD ====================*
%FSLAX25Y25*MOIN*%
%IR0*IPPOS*OFA0.00000B0.00000*MIA0B0*SFA1.00000B1.00000*%
%ADD10C,.32*%
%ADD11R,.06X.06*%
%ADD14R,.06X.06*%
%ADD12C,.06*%
%ADD13C,.026*%
%ADD15C,.065*%
%ADD16C,.005*%
%ADD17C,.02*%
%ADD18C,.03*%
%ADD19C,.015*%
%ADD21C,.3304*%
%ADD22R,.0702X.0702*%
%ADD20C,.0704*%
%ADD23C,.0754*%
G75*
%LPD*%
G75*
G36*
G01X8000Y540D02*
G02X540Y8000I0J7460D01*
G01Y385700D01*
G02X8000Y393160I7460J0D01*
G01X212790D01*
Y356080D01*
X202390D01*
G03Y353560I-1310J-1260D01*
G01X212790D01*
Y350180D01*
X202180D01*
G03Y347660I-1310J-1260D01*
G01X212790D01*
Y314590D01*
X240950D01*
Y253680D01*
X270570Y224060D01*
X287660D01*
X288280Y223430D01*
X288230Y223310D01*
G03X290190Y225270I3270J-1310D01*
G01X290070Y225220D01*
X288700Y226580D01*
X271610D01*
X243470Y254720D01*
Y314590D01*
X246650D01*
Y261470D01*
X272200Y235920D01*
X285800D01*
X288280Y233430D01*
X288230Y233310D01*
G03X290190Y235270I3270J-1310D01*
G01X290070Y235220D01*
X286840Y238440D01*
X280820D01*
G02X280580Y239160I-1J400D01*
G03X276420I-2080J2840D01*
G02X276180Y238440I-239J-320D01*
G01X273240D01*
X249170Y262510D01*
Y314590D01*
X256810D01*
Y393160D01*
X307000D01*
G02X314460Y385700I0J-7460D01*
G01Y8000D01*
G02X307000Y540I-7460J0D01*
G01X8000D01*
G37*
%LPC*%
G75*
G36*
G01X201000Y322990D02*
X194830D01*
X177510Y305670D01*
Y294830D01*
X258330Y214010D01*
X288610D01*
G02Y209990I2890J-2010D01*
G01X256670D01*
X173490Y293170D01*
Y306500D01*
G02X174080Y307920I2004J0D01*
G01X193170Y327010D01*
X201000D01*
G02Y322990I0J-2010D01*
G37*
G36*
G01X80210Y106940D02*
G02Y109460I-3290J1260D01*
G01X194560D01*
X229490Y144390D01*
X234990D01*
G03X235180Y145140I-3J400D01*
G02X234330Y150590I1738J3062D01*
G03X234040Y151260I-292J272D01*
G01X228290D01*
X193970Y116940D01*
X80210D01*
G02Y119460I-3290J1260D01*
G01X192930D01*
X227250Y153780D01*
X256860D01*
X276420Y173340D01*
X303080D01*
X306740Y177000D01*
Y177080D01*
G02X308600Y175220I1820J-40D01*
G01X308520D01*
X304120Y170820D01*
X286620D01*
G03X286350Y170120I-5J-400D01*
G02X280710Y166240I-2353J-2620D01*
G01X279770D01*
X255400Y141870D01*
X249080D01*
G03X248860Y141140I3J-399D01*
G02X244980I-1940J-2940D01*
G03X244760Y141870I-223J331D01*
G01X239080D01*
G03X238860Y141140I3J-399D01*
G02X234980I-1940J-2940D01*
G03X234760Y141870I-223J331D01*
G01X230530D01*
X195600Y106940D01*
X80210D01*
G37*
G36*
G01X192820Y125460D02*
G02X190960Y127320I-1820J40D01*
G01X191040D01*
X221480Y157760D01*
X222980D01*
X230430Y165210D01*
X233980D01*
G03X234280Y165870I-3J399D01*
G02X234950Y171120I2639J2331D01*
G03X234730Y171850I-223J331D01*
G01X232880D01*
X203110Y142080D01*
X78720D01*
G03X78540Y141320I0J-401D01*
G02X75300I-1620J-3120D01*
G03X75120Y142080I-180J359D01*
G01X72580D01*
X70140Y139630D01*
G02X68230Y141470I-3219J-1430D01*
G01X68350Y141420D01*
X71540Y144600D01*
X74660D01*
G03X74890Y145330I-1J401D01*
G02X78950I2030J2870D01*
G03X79180Y144600I231J-329D01*
G01X202070D01*
X231840Y174370D01*
X235020D01*
G03X235220Y175120I4J401D01*
G02X238620I1700J3080D01*
G03X238820Y174370I196J-349D01*
G01X245020D01*
G03X245220Y175120I4J401D01*
G02X248620I1700J3080D01*
G03X248820Y174370I196J-349D01*
G01X263240D01*
X267630Y178760D01*
X280710D01*
G02Y176240I3290J-1260D01*
G01X268670D01*
X264280Y171850D01*
X249110D01*
G03X248890Y171120I3J-399D01*
G02X245610Y164930I-1963J-2924D01*
G01X245490Y164980D01*
X243190Y162690D01*
X231470D01*
X224020Y155240D01*
X222520D01*
X192820Y125540D01*
Y125460D01*
G37*
G36*
G01X281290Y64770D02*
X292490D01*
X297370Y69660D01*
X297320Y69780D01*
G02X299280Y67820I3270J1310D01*
G01X299160Y67870D01*
X293530Y62250D01*
X281290D01*
G02Y64770I-1310J1260D01*
G37*
G36*
G01X66540Y72780D02*
X66460D01*
X58610Y64930D01*
X12610D01*
G02Y67450I-3290J1260D01*
G01X57570D01*
X64680Y74560D01*
Y74640D01*
G02X66540Y72780I1820J-40D01*
G37*
G36*
G01X31300Y130030D02*
G02X33820I1260J1310D01*
G01Y125640D01*
X19750Y111570D01*
Y94840D01*
X12540Y87620D01*
G02X10630Y89460I-3219J-1430D01*
G01X10750Y89410D01*
X17230Y95880D01*
Y112610D01*
X31300Y126680D01*
Y130030D01*
G37*
G36*
G01X14880Y304770D02*
X14850Y304660D01*
X21480Y298030D01*
Y269580D01*
X43400Y247660D01*
Y148720D01*
X62410Y129710D01*
X63740D01*
G02Y126690I3180J-1510D01*
G01X61150D01*
X40380Y147460D01*
Y246400D01*
X18460Y268320D01*
Y296770D01*
X12710Y302520D01*
X12600Y302490D01*
G02X10020Y309020I-1064J3354D01*
G01Y310970D01*
X11420Y312370D01*
Y316930D01*
G02X14440I1510J3180D01*
G01Y311110D01*
X13040Y309710D01*
Y309020D01*
G02X14880Y304770I-1512J-3178D01*
G37*
G36*
G01X28460Y306980D02*
X28490Y307090D01*
X21420Y314160D01*
Y316930D01*
G02X24440I1510J3180D01*
G01Y315420D01*
X30630Y309230D01*
X30740Y309260D01*
G02Y302560I1070J-3350D01*
G01X30630Y302590D01*
X27110Y299070D01*
Y276680D01*
X49030Y254760D01*
Y166490D01*
X55810Y159710D01*
X63740D01*
G02Y156690I3180J-1510D01*
G01X54550D01*
X46010Y165230D01*
Y253500D01*
X24090Y275420D01*
Y300330D01*
X28490Y304730D01*
X28460Y304840D01*
G02Y306980I3350J1070D01*
G37*
G36*
G01X110640Y191620D02*
X67020Y235240D01*
X66940D01*
G02X68800Y237100I40J1820D01*
G01Y237020D01*
X111680Y194140D01*
X201860D01*
G02Y191620I1310J-1260D01*
G01X110640D01*
G37*
G36*
G01X194700Y382060D02*
X191550Y378910D01*
Y364900D01*
G02X189030I-1260J-1310D01*
G01Y379950D01*
X192920Y383840D01*
Y383920D01*
G02X194780Y382060I1820J-40D01*
G01X194700D01*
G37*
G36*
G01X184520Y383530D02*
G02X187040I1260J1310D01*
G01Y365420D01*
G02X184520I-1260J-1310D01*
G01Y383530D01*
G37*
G36*
G01X235320Y70040D02*
Y69960D01*
G02X233460Y71820I-1820J40D01*
G01X233540D01*
X245660Y83940D01*
Y104910D01*
G02X248180I1260J3290D01*
G01Y82900D01*
X235320Y70040D01*
G37*
G36*
G01X34700Y297920D02*
X38920D01*
X50010Y286830D01*
Y262830D01*
X58010Y254830D01*
Y215830D01*
X68930Y204910D01*
Y201090D01*
G02X64910I-2010J-2890D01*
G01Y203250D01*
X54580Y213580D01*
G02X53990Y215000I1414J1420D01*
G01Y253170D01*
X45990Y261170D01*
Y285170D01*
X37260Y293900D01*
X34700D01*
G02Y297920I-2890J2010D01*
G37*
G36*
G01X260270Y119610D02*
X265670Y125010D01*
X278670D01*
X280530Y126880D01*
X280520Y126980D01*
G02X283480Y124020I3480J520D01*
G01X283380Y124030D01*
X280330Y120990D01*
X267330D01*
X264290Y117950D01*
Y49030D01*
X243630Y28370D01*
G02X242170Y27780I-1423J1419D01*
G01X226620D01*
X219420Y20580D01*
G02X216510Y20640I-1426J1419D01*
G01Y20650D01*
X212670Y24490D01*
X166830D01*
X163130Y20790D01*
X113630D01*
X104830Y11990D01*
X87170D01*
X78150Y21010D01*
X78140D01*
G02X77490Y22500I1364J1482D01*
G01Y82490D01*
X38170D01*
X38150Y82470D01*
X34020D01*
G02X32010Y84520I0J2010D01*
G01Y115350D01*
X39490Y122830D01*
Y138670D01*
X29810Y148350D01*
Y184770D01*
G03X29150Y185050I-399J-23D01*
G02Y190330I-2330J2640D01*
G03X29810Y190610I261J303D01*
G01Y213390D01*
G02X33830I2010J0D01*
G01Y150010D01*
X43510Y140330D01*
Y122040D01*
G02X42920Y120580I-2009J-37D01*
G01X36030Y113690D01*
Y86490D01*
X36490D01*
X36510Y86510D01*
X79460D01*
G02X81510Y84500I40J-2010D01*
G01Y49010D01*
X89500D01*
G02Y44990I0J-2010D01*
G01X81510D01*
Y23330D01*
X88830Y16010D01*
X103170D01*
X111970Y24810D01*
X161470D01*
X165170Y28510D01*
X214330D01*
X218000Y24840D01*
X224960Y31800D01*
X241380D01*
X260270Y50690D01*
Y119610D01*
G37*
G54D21*
X295000Y20000D03*
Y373700D03*
X20000D03*
Y20000D03*
G54D22*
X300590Y56910D03*
X291500Y252000D03*
X284000Y197500D03*
X278000Y346500D03*
X278500Y232000D03*
X22930Y350110D03*
X26820Y106690D03*
X11530Y285840D03*
X6640Y201570D03*
X6820Y187690D03*
X8320Y163190D03*
X9320Y56190D03*
X31810Y285910D03*
G54D20*
X26820Y86690D03*
X308000Y346500D03*
Y336500D03*
X291500Y242000D03*
X284000Y187500D03*
Y157500D03*
Y147500D03*
Y137500D03*
X286410Y71090D03*
Y56910D03*
X278000Y336500D03*
X246920Y198200D03*
Y188200D03*
Y158200D03*
Y128200D03*
Y118200D03*
X236920Y198200D03*
Y188200D03*
Y158200D03*
Y128200D03*
Y118200D03*
Y108200D03*
X76920Y198200D03*
Y188200D03*
Y178200D03*
Y168200D03*
Y158200D03*
Y128200D03*
X66920Y188200D03*
Y178200D03*
Y168200D03*
Y148200D03*
Y118200D03*
Y108200D03*
X26820Y96690D03*
X12930Y350110D03*
X11530Y295840D03*
X17590Y257220D03*
Y227300D03*
X16820Y187690D03*
X18320Y163190D03*
X6640Y211570D03*
X9320Y96190D03*
Y76190D03*
X284000Y117500D03*
G54D23*
X26320Y142690D03*
X21320Y132690D03*
X16320Y142690D03*
%LPD*%
G75*
G54D10*
X20000Y20000D03*
Y373700D03*
X295000Y20000D03*
Y373700D03*
G54D11*
X9320Y56190D03*
X8320Y163190D03*
X11530Y285840D03*
X26820Y106690D03*
X22930Y350110D03*
X31810Y285910D03*
X284000Y197500D03*
X291500Y252000D03*
X300590Y56910D03*
G54D12*
X9320Y66190D03*
Y76190D03*
Y86190D03*
Y96190D03*
X6640Y211570D03*
X18320Y163190D03*
X16820Y187690D03*
X17590Y227300D03*
Y257220D03*
X11530Y295840D03*
Y305840D03*
X12930Y320110D03*
Y350110D03*
X26820Y86690D03*
Y96690D03*
Y187690D03*
X22930Y320110D03*
X31810Y295910D03*
Y305910D03*
X66920Y108200D03*
Y118200D03*
Y128200D03*
Y138200D03*
Y148200D03*
Y158200D03*
Y168200D03*
Y178200D03*
Y188200D03*
Y198200D03*
X76920Y108200D03*
Y118200D03*
Y128200D03*
Y138200D03*
Y148200D03*
Y158200D03*
Y168200D03*
Y178200D03*
Y188200D03*
Y198200D03*
X236920Y108200D03*
Y118200D03*
Y128200D03*
Y138200D03*
Y148200D03*
Y158200D03*
Y168200D03*
Y178200D03*
Y188200D03*
Y198200D03*
X246920Y108200D03*
Y118200D03*
Y128200D03*
Y138200D03*
Y148200D03*
Y158200D03*
Y168200D03*
Y178200D03*
Y188200D03*
Y198200D03*
X278500Y242000D03*
X278000Y336500D03*
X286410Y56910D03*
Y71090D03*
X284000Y117500D03*
Y127500D03*
Y137500D03*
Y147500D03*
Y157500D03*
Y167500D03*
Y177500D03*
Y187500D03*
X291500Y212000D03*
Y222000D03*
Y232000D03*
Y242000D03*
X300590Y71090D03*
X308000Y336500D03*
Y346500D03*
G54D13*
X8690Y123190D03*
X34020Y84480D03*
X32560Y131340D03*
X31820Y213390D03*
X41500Y122000D03*
X56500Y53500D03*
X51500D03*
X50300Y99200D03*
X56000Y215000D03*
X55330Y261170D03*
X66500Y53000D03*
X61500Y53500D03*
X66500Y74600D03*
X58980Y168550D03*
X63520Y248480D03*
X66980Y237060D03*
X68600Y382400D03*
X79500Y22500D03*
Y84500D03*
X89500Y47000D03*
X92280Y57780D03*
X97500Y21500D03*
X98570Y58570D03*
X101720Y59780D03*
X105700Y89700D03*
X148200Y22800D03*
X167000Y20500D03*
X175500Y306500D03*
X191000Y125500D03*
X185780Y364110D03*
X190290Y363590D03*
X185780Y384840D03*
X201000Y325000D03*
X201080Y354820D03*
X200870Y348920D03*
X194740Y383880D03*
X203170Y192880D03*
X204500Y313000D03*
X218000Y22000D03*
X236500Y20500D03*
X233500Y70000D03*
X242210Y29790D03*
Y44710D03*
X242140Y50140D03*
X245580Y77420D03*
X262280Y96780D03*
X262390Y312110D03*
X274890Y10390D03*
X269610Y114390D03*
X274130Y113370D03*
X276500Y289500D03*
X279980Y63510D03*
X290100Y38900D03*
X297640Y84130D03*
X291300Y331160D03*
X305300Y38210D03*
X303820Y106680D03*
X300510Y132990D03*
X304630Y154130D03*
X304200Y316190D03*
X308560Y177040D03*
G54D14*
X6820Y187690D03*
X6640Y201570D03*
X278500Y232000D03*
X278000Y346500D03*
G54D15*
X16320Y142690D03*
X21320Y132690D03*
X26320Y142690D03*
G54D16*
G01X5610Y96190D02*
X9320D01*
G01X2930Y211570D02*
X6640D01*
G01X9320Y92480D02*
Y96190D01*
G01D02*
Y99900D01*
G01Y96190D02*
X13030D01*
G01X6640Y207860D02*
Y211570D01*
G01D02*
Y215280D01*
G01Y211570D02*
X10350D01*
G01X11530Y282130D02*
Y285840D01*
G01D02*
Y289550D01*
G01X7820Y285840D02*
X11530D01*
G01D02*
X15240D01*
G01X23110Y96690D02*
X26820D01*
G01X22360Y142690D02*
X26320D01*
G01X26820Y92980D02*
Y96690D01*
G01D02*
Y100400D01*
G01Y96690D02*
X30530D01*
G01X26320Y138730D02*
Y142690D01*
G01D02*
Y146650D01*
G01Y142690D02*
X30280D01*
G01X31810Y282200D02*
Y285910D01*
G01D02*
Y289620D01*
G01X28100Y285910D02*
X31810D01*
G01D02*
X35520D01*
G01X73210Y188200D02*
X76920D01*
G01Y184490D02*
Y188200D01*
G01D02*
Y191910D01*
G01Y188200D02*
X80630D01*
G01X246920Y194490D02*
Y198200D01*
G01D02*
Y201910D01*
G01X243210Y198200D02*
X246920D01*
G01D02*
X250630D01*
G01X284000Y193790D02*
Y197500D01*
G01D02*
Y201210D01*
G01X280290Y197500D02*
X284000D01*
G01D02*
X287710D01*
G01X291500Y248290D02*
Y252000D01*
G01D02*
Y255710D01*
G01X287790Y252000D02*
X291500D01*
G01D02*
X295210D01*
G01X300590Y53200D02*
Y56910D01*
G01D02*
Y60620D01*
G01X296880Y56910D02*
X300590D01*
G01D02*
X304300D01*
G54D17*
G01X11530Y305840D02*
X19970Y297400D01*
Y268950D01*
X41890Y247030D01*
Y148090D01*
X61780Y128200D01*
X66920D01*
G01X12930Y320110D02*
Y311740D01*
X11530Y310340D01*
Y305840D01*
G01X31810Y305910D02*
X25600Y299700D01*
Y276050D01*
X47520Y254130D01*
Y165860D01*
X55180Y158200D01*
X66920D01*
G01X22930Y320110D02*
Y314790D01*
X31810Y305910D01*
G54D18*
G01X34020Y84480D02*
Y114520D01*
X41500Y122000D01*
G01X79500Y84500D02*
X37340D01*
X37320Y84480D01*
X34020D01*
G01X31820Y213390D02*
Y149180D01*
X41500Y139500D01*
Y122000D01*
G01X31810Y295910D02*
X38090D01*
X48000Y286000D01*
Y262000D01*
X56000Y254000D01*
Y215000D01*
G01X66920Y198200D02*
Y204080D01*
X56000Y215000D01*
G01X79500Y22500D02*
X88000Y14000D01*
X104000D01*
X112800Y22800D01*
X148200D01*
G01X79500Y47000D02*
Y22500D01*
G01Y84500D02*
Y47000D01*
G01D02*
X89500D01*
G01X218000Y22000D02*
X213500Y26500D01*
X166000D01*
X162300Y22800D01*
X148200D01*
G01X175500Y306500D02*
Y294000D01*
X257500Y212000D01*
X291500D01*
G01X175500Y306500D02*
X194000Y325000D01*
X201000D01*
G01X242210Y29790D02*
X225790D01*
X218000Y22000D01*
G01X262280Y96780D02*
Y49860D01*
X242210Y29790D01*
G01X284000Y127500D02*
X279500Y123000D01*
X266500D01*
X262280Y118780D01*
Y96780D01*
G54D19*
G01X66500Y74600D02*
X58090Y66190D01*
X9320D01*
G01Y86190D02*
X18490Y95360D01*
Y112090D01*
X32560Y126160D01*
Y131340D01*
G01X284000Y177500D02*
X268150D01*
X263760Y173110D01*
X232360D01*
X202590Y143340D01*
X72060D01*
X66920Y138200D01*
G01X203170Y192880D02*
X111160D01*
X66980Y237060D01*
G01X284000Y167500D02*
X279250D01*
X254880Y143130D01*
X230010D01*
X195080Y108200D01*
X76920D01*
G01X308560Y177040D02*
X303600Y172080D01*
X276940D01*
X257380Y152520D01*
X227770D01*
X193450Y118200D01*
X76920D01*
G01X185780Y384840D02*
Y364110D01*
G01X190290Y363590D02*
Y379430D01*
X194740Y383880D01*
G01X191000Y125500D02*
X222000Y156500D01*
X223500D01*
X230950Y163950D01*
X242670D01*
X246920Y168200D01*
G01X291500Y222000D02*
X288180Y225320D01*
X271090D01*
X242210Y254200D01*
Y336560D01*
X229850Y348920D01*
X200870D01*
G01X291500Y232000D02*
X286320Y237180D01*
X272720D01*
X247910Y261990D01*
Y338260D01*
X231350Y354820D01*
X201080D01*
G01X246920Y108200D02*
Y83420D01*
X233500Y70000D01*
G01X279980Y63510D02*
X293010D01*
X300590Y71090D01*
M02*
