G04 ================== begin FILE IDENTIFICATION RECORD ==================*
G04 Layout Name:  F:/leeo/CC3200/Hardware/Smartlocker/layout/Smartlocker10x8.brd*
G04 Film Name:    SILK_TOP*
G04 File Format:  Gerber RS274X*
G04 File Origin:  Cadence Allegro 16.5-S047*
G04 Origin Date:  Mon Dec 28 14:32:46 2015*
G04 *
G04 Layer:  REF DES/SILKSCREEN_TOP*
G04 Layer:  PACKAGE GEOMETRY/SILKSCREEN_TOP*
G04 Layer:  BOARD GEOMETRY/OUTLINE*
G04 *
G04 Offset:    (0.0 0.0)*
G04 Mirror:    No*
G04 Mode:      Positive*
G04 Rotation:  0*
G04 FullContactRelief:  No*
G04 UndefLineWidth:     5.0*
G04 ================== end FILE IDENTIFICATION RECORD ====================*
%FSLAX25Y25*MOIN*%
%IR0*IPPOS*OFA0.00000B0.00000*MIA0B0*SFA1.00000B1.00000*%
%ADD10C,.001*%
%ADD11C,.005*%
%ADD12C,.006*%
%ADD13C,.0039*%
%ADD14C,.01*%
G75*
%LPD*%
G75*
G36*
G01X13300Y175740D02*
Y181260D01*
X10540Y178500D01*
X13300Y175740D01*
G37*
G36*
G01X86760Y62810D02*
G03I-390J-3D01*
G37*
G36*
G01X271180Y101200D02*
G03I-850J0D01*
G37*
G36*
G01X312320Y54000D02*
G03I-3938J0D01*
G37*
G36*
G01X301970Y85340D02*
G03I-883J-1D01*
G37*
G54D10*
G01X8000Y0D02*
X307000D01*
G03X315000Y8000I0J8000D01*
G01X307000Y393700D02*
X8000D01*
G03X0Y385700I0J-8000D01*
G01Y8000D01*
G03X8000Y0I8000J0D01*
G54D11*
G01X11120Y156190D02*
X7620D01*
G03X6120Y154690I0J-1500D01*
G01Y151690D01*
G03X7620Y150190I1500J0D01*
G01X11120D01*
G01X15820Y64390D02*
Y59390D01*
X21820D01*
Y64390D01*
G01Y66890D02*
Y71890D01*
X15820D01*
Y66890D01*
G01X15520Y126190D02*
X10520D01*
Y120190D01*
X15520D01*
G01X13620Y150190D02*
X17120D01*
G03X18620Y151690I0J1500D01*
G01Y154690D01*
G03X17120Y156190I-1500J0D01*
G01X13620D01*
G01X12320Y152590D02*
Y150790D01*
G01Y155590D02*
Y153990D01*
G01X11520Y153790D02*
X13120D01*
G01X11520Y152790D02*
X13120D01*
G01X22820Y64390D02*
Y59390D01*
X28820D01*
Y64390D01*
G01Y66890D02*
Y71890D01*
X22820D01*
Y66890D01*
G01X28040Y65650D02*
X27240D01*
X26840Y65250D01*
X26040Y66050D01*
X25240Y65250D01*
X24440Y66050D01*
X24040Y65650D01*
X23440D01*
G01X21040D02*
X20240D01*
X19840Y65250D01*
X19040Y66050D01*
X18240Y65250D01*
X17440Y66050D01*
X17040Y65650D01*
X16440D01*
G01X29620Y80190D02*
X24620D01*
Y74190D01*
X29620D01*
G01X29520Y126190D02*
X24520D01*
Y120190D01*
X29520D01*
G01X18020D02*
X23020D01*
Y126190D01*
X18020D01*
G01X16780Y120970D02*
Y121770D01*
X16380Y122170D01*
X17180Y122970D01*
X16380Y123770D01*
X17180Y124570D01*
X16780Y124970D01*
Y125570D01*
G01X24420Y210390D02*
X29420D01*
Y216390D01*
X24420D01*
G01X21920D02*
X16920D01*
Y210390D01*
X21920D01*
G01X23180Y211170D02*
Y211970D01*
X22780Y212370D01*
X23580Y213170D01*
X22780Y213970D01*
X23580Y214770D01*
X23180Y215170D01*
Y215770D01*
G01X32120Y74190D02*
X37120D01*
Y80190D01*
X32120D01*
G01X30860Y79410D02*
Y78610D01*
X31260Y78210D01*
X30460Y77410D01*
X31260Y76610D01*
X30460Y75810D01*
X30860Y75410D01*
Y74810D01*
G01X33820Y108990D02*
Y103990D01*
X39820D01*
Y108990D01*
G01Y111490D02*
Y116490D01*
X33820D01*
Y111490D01*
G01X34600Y110230D02*
X35400D01*
X35800Y110630D01*
X36600Y109830D01*
X37400Y110630D01*
X38200Y109830D01*
X38600Y110230D01*
X39200D01*
G01X32020Y120190D02*
X37020D01*
Y126190D01*
X32020D01*
G01X30780Y120970D02*
Y121770D01*
X30380Y122170D01*
X31180Y122970D01*
X30380Y123770D01*
X31180Y124570D01*
X30780Y124970D01*
Y125570D01*
G01X40500Y88800D02*
Y85300D01*
G03X42000Y83800I1500J0D01*
G01X45000D01*
G03X46500Y85300I0J1500D01*
G01Y88800D01*
G01Y91300D02*
Y94800D01*
G03X45000Y96300I-1500J0D01*
G01X42000D01*
G03X40500Y94800I0J-1500D01*
G01Y91300D01*
G01X41100Y90000D02*
X42700D01*
G01X42900Y89200D02*
Y90800D01*
G01X43900Y89200D02*
Y90800D01*
G01X44100Y90000D02*
X45900D01*
G01X41780Y386700D02*
Y378050D01*
G01X50630Y386700D02*
X41780D01*
G03X40280Y385200I0J-1500D01*
G01Y379550D01*
G03X41780Y378050I1500J0D01*
G01X50680D01*
G01X52300Y89500D02*
X47300D01*
Y83500D01*
X52300D01*
G01X54800D02*
X59800D01*
Y89500D01*
X54800D01*
G01X53540Y88720D02*
Y87920D01*
X53940Y87520D01*
X53140Y86720D01*
X53940Y85920D01*
X53140Y85120D01*
X53540Y84720D01*
Y84120D01*
G01X54700Y90500D02*
X59700D01*
Y96500D01*
X54700D01*
G01X52200D02*
X47200D01*
Y90500D01*
X52200D01*
G01X53460Y91280D02*
Y92080D01*
X53060Y92480D01*
X53860Y93280D01*
X53060Y94080D01*
X53860Y94880D01*
X53460Y95280D01*
Y95880D01*
G01X50390Y170450D02*
Y165450D01*
X56390D01*
Y170450D01*
G01X50390Y183960D02*
Y178960D01*
X56390D01*
Y183960D01*
G01Y172950D02*
Y177950D01*
X50390D01*
Y172950D01*
G01X55610Y171710D02*
X54810D01*
X54410Y171310D01*
X53610Y172110D01*
X52810Y171310D01*
X52010Y172110D01*
X51610Y171710D01*
X51010D01*
G01X56390Y186460D02*
Y191460D01*
X50390D01*
Y186460D01*
G01X55610Y185220D02*
X54810D01*
X54410Y184820D01*
X53610Y185620D01*
X52810Y184820D01*
X52010Y185620D01*
X51610Y185220D01*
X51010D01*
G01X53330Y244370D02*
X48330D01*
Y238370D01*
X53330D01*
G01X54590Y239150D02*
Y239950D01*
X54190Y240350D01*
X54990Y241150D01*
X54190Y241950D01*
X54990Y242750D01*
X54590Y243150D01*
Y243750D01*
G01X53580Y251480D02*
X48580D01*
Y245480D01*
X53580D01*
G01X54820Y250700D02*
Y249900D01*
X55220Y249500D01*
X54420Y248700D01*
X55220Y247900D01*
X54420Y247100D01*
X54820Y246700D01*
Y246100D01*
G01X53930Y384400D02*
Y380450D01*
G01X54130Y382350D02*
X55280D01*
G01X52630Y384400D02*
Y380450D01*
G01X51180Y382350D02*
X52330D01*
G01X55830Y238370D02*
X60830D01*
Y244370D01*
X55830D01*
G01X56080Y245480D02*
X61080D01*
Y251480D01*
X56080D01*
G01X56430Y386700D02*
X64380D01*
Y378050D01*
X56380D01*
G01X74300Y12500D02*
X69300D01*
Y6500D01*
X74300D01*
G01Y13000D02*
X71000D01*
G02X69500Y14500I0J1500D01*
G01Y17500D01*
G02X71000Y19000I1500J0D01*
G01X74300D01*
G01X76800Y6500D02*
X81800D01*
Y12500D01*
X76800D01*
G01X75540Y11720D02*
Y10920D01*
X75940Y10520D01*
X75140Y9720D01*
X75940Y8920D01*
X75140Y8120D01*
X75540Y7720D01*
Y7120D01*
G01X76700Y13000D02*
X81500D01*
Y19000D01*
X76700D01*
G01X75500Y13800D02*
Y14800D01*
G01X76300Y15000D02*
X74700D01*
X75500Y16600D01*
X76300Y15000D01*
G01Y17000D02*
X74700D01*
G01X75500Y17200D02*
Y18200D01*
G01X87800Y87500D02*
X82800D01*
Y81500D01*
X87800D01*
G01X90300D02*
X95300D01*
Y87500D01*
X90300D01*
G01X89040Y86720D02*
Y85920D01*
X89440Y85520D01*
X88640Y84720D01*
X89440Y83920D01*
X88640Y83120D01*
X89040Y82720D01*
Y82120D01*
G01X107500Y14200D02*
Y19200D01*
X101500D01*
Y14200D01*
G01Y11700D02*
Y6700D01*
X107500D01*
Y11700D01*
G01X106720Y12960D02*
X105920D01*
X105520Y12560D01*
X104720Y13360D01*
X103920Y12560D01*
X103120Y13360D01*
X102720Y12960D01*
X102120D01*
G01X94500Y11800D02*
Y6800D01*
X100500D01*
Y11800D01*
G01Y14300D02*
Y19300D01*
X94500D01*
Y14300D01*
G01X95280Y13040D02*
X96080D01*
X96480Y13440D01*
X97280Y12640D01*
X98080Y13440D01*
X98880Y12640D01*
X99280Y13040D01*
X99880D01*
G01X100700Y57500D02*
X97200D01*
G03X95700Y56000I0J-1500D01*
G01Y53000D01*
G03X97200Y51500I1500J0D01*
G01X100700D01*
G01X102000Y52100D02*
Y53700D01*
G01X102800Y53900D02*
X101200D01*
G01X102800Y54900D02*
X101200D01*
G01X102000Y55100D02*
Y56900D01*
G01X101300Y87500D02*
X96300D01*
Y81500D01*
X101300D01*
G01X102540Y86720D02*
Y85920D01*
X102940Y85520D01*
X102140Y84720D01*
X102940Y83920D01*
X102140Y83120D01*
X102540Y82720D01*
Y82120D01*
G01X103200Y51500D02*
X106700D01*
G03X108200Y53000I0J1500D01*
G01Y56000D01*
G03X106700Y57500I-1500J0D01*
G01X103200D01*
G01X103800Y81500D02*
X108800D01*
Y87500D01*
X103800D01*
G01X143800Y13000D02*
X138800D01*
Y7000D01*
X143800D01*
G01Y13500D02*
X140500D01*
G02X139000Y15000I0J1500D01*
G01Y18000D01*
G02X140500Y19500I1500J0D01*
G01X143800D01*
G01X146300Y7000D02*
X151300D01*
Y13000D01*
X146300D01*
G01X145040Y12220D02*
Y11420D01*
X145440Y11020D01*
X144640Y10220D01*
X145440Y9420D01*
X144640Y8620D01*
X145040Y8220D01*
Y7620D01*
G01X146200Y13500D02*
X151000D01*
Y19500D01*
X146200D01*
G01X145000Y14300D02*
Y15300D01*
G01X145800Y15500D02*
X144200D01*
X145000Y17100D01*
X145800Y15500D01*
G01Y17500D02*
X144200D01*
G01X145000Y17700D02*
Y18700D01*
G01X164000Y11800D02*
Y6800D01*
X170000D01*
Y11800D01*
G01Y14300D02*
Y19300D01*
X164000D01*
Y14300D01*
G01X164780Y13040D02*
X165580D01*
X165980Y13440D01*
X166780Y12640D01*
X167580Y13440D01*
X168380Y12640D01*
X168780Y13040D01*
X169380D01*
G01X177000Y14200D02*
Y19200D01*
X171000D01*
Y14200D01*
G01Y11700D02*
Y6700D01*
X177000D01*
Y11700D01*
G01X176220Y12960D02*
X175420D01*
X175020Y12560D01*
X174220Y13360D01*
X173420Y12560D01*
X172620Y13360D01*
X172220Y12960D01*
X171620D01*
G01X213300Y13000D02*
X208300D01*
Y7000D01*
X213300D01*
G01Y13500D02*
X210000D01*
G02X208500Y15000I0J1500D01*
G01Y18000D01*
G02X210000Y19500I1500J0D01*
G01X213300D01*
G01X263500Y279500D02*
X201000D01*
Y267500D01*
X263500D01*
Y279500D01*
G01X201000Y291500D02*
Y279500D01*
X263500D01*
Y291500D01*
G01X201000Y302000D02*
X263500D01*
Y291500D01*
X201000D01*
Y302000D01*
X211500Y291500D01*
G01X215800Y7000D02*
X220800D01*
Y13000D01*
X215800D01*
G01X214540Y12220D02*
Y11420D01*
X214940Y11020D01*
X214140Y10220D01*
X214940Y9420D01*
X214140Y8620D01*
X214540Y8220D01*
Y7620D01*
G01X215700Y13500D02*
X220500D01*
Y19500D01*
X215700D01*
G01X214500Y14300D02*
Y15300D01*
G01X215300Y15500D02*
X213700D01*
X214500Y17100D01*
X215300Y15500D01*
G01Y17500D02*
X213700D01*
G01X214500Y17700D02*
Y18700D01*
G01Y302000D02*
X215000D01*
Y267500D01*
G01X233500Y11800D02*
Y6800D01*
X239500D01*
Y11800D01*
G01Y14300D02*
Y19300D01*
X233500D01*
Y14300D01*
G01X234280Y13040D02*
X235080D01*
X235480Y13440D01*
X236280Y12640D01*
X237080Y13440D01*
X237880Y12640D01*
X238280Y13040D01*
X238880D01*
G01X246500Y14200D02*
Y19200D01*
X240500D01*
Y14200D01*
G01Y11700D02*
Y6700D01*
X246500D01*
Y11700D01*
G01X245720Y12960D02*
X244920D01*
X244520Y12560D01*
X243720Y13360D01*
X242920Y12560D01*
X242120Y13360D01*
X241720Y12960D01*
X241120D01*
G01X239210Y35210D02*
Y31710D01*
G03X240710Y30210I1500J0D01*
G01X243710D01*
G03X245210Y31710I0J1500D01*
G01Y35210D01*
G01Y37710D02*
Y41210D01*
G03X243710Y42710I-1500J0D01*
G01X240710D01*
G03X239210Y41210I0J-1500D01*
G01Y37710D01*
G01X239810Y36410D02*
X241410D01*
G01X241610Y35610D02*
Y37210D01*
G01X242610Y35610D02*
Y37210D01*
G01X242810Y36410D02*
X244610D01*
G01X253130Y81820D02*
Y86820D01*
X247130D01*
Y81820D01*
G01Y79320D02*
Y74320D01*
X253130D01*
Y79320D01*
G01X252350Y80580D02*
X251550D01*
X251150Y80180D01*
X250350Y80980D01*
X249550Y80180D01*
X248750Y80980D01*
X248350Y80580D01*
X247750D01*
G01X251930Y93620D02*
X246930D01*
Y87620D01*
X251930D01*
G01X240000Y302000D02*
X239000D01*
Y268000D01*
G01X254430Y87620D02*
X259430D01*
Y93620D01*
X254430D01*
G01X253170Y92840D02*
Y92040D01*
X253570Y91640D01*
X252770Y90840D01*
X253570Y90040D01*
X252770Y89240D01*
X253170Y88840D01*
Y88240D01*
G01X260480Y117390D02*
X256980D01*
G03X255480Y115890I0J-1500D01*
G01Y112890D01*
G03X256980Y111390I1500J0D01*
G01X260480D01*
G01X258130Y64920D02*
Y59920D01*
X264130D01*
Y64920D01*
G01Y67420D02*
Y72420D01*
X258130D01*
Y67420D01*
G01X258910Y66160D02*
X259710D01*
X260110Y66560D01*
X260910Y65760D01*
X261710Y66560D01*
X262510Y65760D01*
X262910Y66160D01*
X263510D01*
G01X262980Y111390D02*
X266480D01*
G03X267980Y112890I0J1500D01*
G01Y115890D01*
G03X266480Y117390I-1500J0D01*
G01X262980D01*
G01X261680Y113790D02*
Y111990D01*
G01Y116790D02*
Y115190D01*
G01X260880Y114990D02*
X262480D01*
G01X260880Y113990D02*
X262480D01*
G01X273500Y296700D02*
Y291700D01*
X279500D01*
Y296700D01*
G01Y299200D02*
Y304200D01*
X273500D01*
Y299200D01*
G01X278720Y297960D02*
X277920D01*
X277520Y297560D01*
X276720Y298360D01*
X275920Y297560D01*
X275120Y298360D01*
X274720Y297960D01*
X274120D01*
G01X279800Y327500D02*
X274800D01*
Y321500D01*
X279800D01*
G01X285700Y47660D02*
X282200D01*
G03X280700Y46160I0J-1500D01*
G01Y43160D01*
G03X282200Y41660I1500J0D01*
G01X285700D01*
G01X286100Y44260D02*
X287700D01*
G01X286100Y45260D02*
X287700D01*
G01X277120Y104740D02*
Y101240D01*
G03X278620Y99740I1500J0D01*
G01X281620D01*
G03X283120Y101240I0J1500D01*
G01Y104740D01*
G01Y107240D02*
Y110740D01*
G03X281620Y112240I-1500J0D01*
G01X278620D01*
G03X277120Y110740I0J-1500D01*
G01Y107240D01*
G01X277720Y105940D02*
X279320D01*
G01X279520Y105140D02*
Y106740D01*
G01X280520Y105140D02*
Y106740D01*
G01X280720Y105940D02*
X282520D01*
G01X285300Y313000D02*
X280300D01*
Y307000D01*
X285300D01*
G01X286540Y312220D02*
Y311420D01*
X286940Y311020D01*
X286140Y310220D01*
X286940Y309420D01*
X286140Y308620D01*
X286540Y308220D01*
Y307620D01*
G01X282300Y321500D02*
X287300D01*
Y327500D01*
X282300D01*
G01X281040Y326720D02*
Y325920D01*
X281440Y325520D01*
X280640Y324720D01*
X281440Y323920D01*
X280640Y323120D01*
X281040Y322720D01*
Y322120D01*
G01X288200Y41660D02*
X291700D01*
G03X293200Y43160I0J1500D01*
G01Y46160D01*
G03X291700Y47660I-1500J0D01*
G01X288200D01*
G01X286900Y44060D02*
Y42260D01*
G01X298990Y47700D02*
X294190D01*
Y41700D01*
X298990D01*
G01X286900Y47060D02*
Y45460D01*
G01X293360Y109680D02*
X289860D01*
G03X288360Y108180I0J-1500D01*
G01Y105180D01*
G03X289860Y103680I1500J0D01*
G01X293360D01*
G01X295860D02*
X299360D01*
G03X300860Y105180I0J1500D01*
G01Y108180D01*
G03X299360Y109680I-1500J0D01*
G01X295860D01*
G01X294560Y109080D02*
Y107480D01*
G01X293760Y107280D02*
X295360D01*
G01X293760Y106280D02*
X295360D01*
G01X294560Y106080D02*
Y104280D01*
G01X296830Y174270D02*
X291830D01*
Y168270D01*
X296830D01*
G01X287800Y307000D02*
X292800D01*
Y313000D01*
X287800D01*
G01X299800D02*
X295000D01*
Y307000D01*
X299800D01*
G01X295700Y321500D02*
X300700D01*
Y327500D01*
X295700D01*
G01X293200D02*
X288200D01*
Y321500D01*
X293200D01*
G01X294460Y322280D02*
Y323080D01*
X294060Y323480D01*
X294860Y324280D01*
X294060Y325080D01*
X294860Y325880D01*
X294460Y326280D01*
Y326880D01*
G01X301390Y47700D02*
X304690D01*
G02X306190Y46200I0J-1500D01*
G01Y43200D01*
G02X304690Y41700I-1500J0D01*
G01X301390D01*
G01X299390Y45700D02*
X300990D01*
X300190Y44100D01*
X299390Y45700D01*
G01Y43700D02*
X300990D01*
G01X300190Y43500D02*
Y42500D01*
G01Y46900D02*
Y45900D01*
G01X302550Y123530D02*
X297750D01*
Y117530D01*
X302550D01*
G01X304950Y123530D02*
X308250D01*
G02X309750Y122030I0J-1500D01*
G01Y119030D01*
G02X308250Y117530I-1500J0D01*
G01X304950D01*
G01X303750Y122730D02*
Y121730D01*
G01X302950Y121530D02*
X304550D01*
X303750Y119930D01*
X302950Y121530D01*
G01Y119530D02*
X304550D01*
G01X303750Y119330D02*
Y118330D01*
G01X304910Y124430D02*
X309910D01*
Y130430D01*
X304910D01*
G01X302410D02*
X297410D01*
Y124430D01*
X302410D01*
G01X303670Y125210D02*
Y126010D01*
X303270Y126410D01*
X304070Y127210D01*
X303270Y128010D01*
X304070Y128810D01*
X303670Y129210D01*
Y129810D01*
G01X311630Y169470D02*
Y174470D01*
X305630D01*
Y169470D01*
G01Y166970D02*
Y161970D01*
X311630D01*
Y166970D01*
G01X299330Y168270D02*
X304330D01*
Y174270D01*
X299330D01*
G01X298090Y169050D02*
Y169850D01*
X297690Y170250D01*
X298490Y171050D01*
X297690Y171850D01*
X298490Y172650D01*
X298090Y173050D01*
Y173650D01*
G01X302200Y313000D02*
X305500D01*
G02X307000Y311500I0J-1500D01*
G01Y308500D01*
G02X305500Y307000I-1500J0D01*
G01X302200D01*
G01X301000Y312200D02*
Y311200D01*
G01X300200Y311000D02*
X301800D01*
X301000Y309400D01*
X300200Y311000D01*
G01Y309000D02*
X301800D01*
G01X301000Y308800D02*
Y307800D01*
G01X307080Y40110D02*
Y35110D01*
X313080D01*
Y40110D01*
G01Y42610D02*
Y47610D01*
X307080D01*
Y42610D01*
G01X312300Y41370D02*
X311500D01*
X311100Y40970D01*
X310300Y41770D01*
X309500Y40970D01*
X308700Y41770D01*
X308300Y41370D01*
X307700D01*
G01X310850Y168230D02*
X310050D01*
X309650Y167830D01*
X308850Y168630D01*
X308050Y167830D01*
X307250Y168630D01*
X306850Y168230D01*
X306250D01*
G01X41210Y242260D02*
G03I-23620J0D01*
G01X315000Y8000D02*
Y385700D01*
G03X307000Y393700I-8000J0D01*
G01X14320Y51190D02*
Y101190D01*
X4420D01*
Y51190D01*
X14320D01*
G01X4320Y61190D02*
X14320D01*
G01X23320Y158190D02*
X3320D01*
Y168190D01*
X23320D01*
Y158190D01*
G01X5000Y171500D02*
X10100D01*
G01X1820Y182690D02*
X31820D01*
Y192790D01*
X1820D01*
Y182690D01*
G01X11640Y216570D02*
Y196570D01*
X1640D01*
Y216570D01*
X11640D01*
G01X3100Y282400D02*
X52100D01*
Y290100D01*
G01X4700Y292900D02*
X52100D01*
Y299400D01*
G01X30830Y354610D02*
Y315610D01*
X5030D01*
Y354610D01*
X30830D01*
G01X34320Y146690D02*
X8320D01*
Y137690D01*
X17320Y128690D01*
X25320D01*
X34320Y137690D01*
Y146690D01*
G01X7200Y173600D02*
Y169000D01*
G01X13500Y202900D02*
Y199300D01*
G01X12000Y201400D02*
X15100D01*
G01X12000Y212000D02*
X14500D01*
G01X16530Y280840D02*
Y310840D01*
X6430D01*
Y280840D01*
X16530D01*
G01X11460Y338860D02*
X12020Y339610D01*
X12670Y339990D01*
X13420Y340110D01*
X14350Y339860D01*
X15000Y339230D01*
X15190Y338490D01*
X15100Y337730D01*
X14720Y337110D01*
X12860Y335860D01*
X12020Y334980D01*
X11460Y333730D01*
X11270Y332610D01*
X15190D01*
G01X21820Y111690D02*
Y81690D01*
X31920D01*
Y111690D01*
X21820D01*
G01X17500Y170000D02*
X22000D01*
G01X16800Y191500D02*
Y196000D01*
X27100D01*
Y191000D01*
G01X23520Y225720D02*
Y227600D01*
G01X22150Y226580D02*
X24890D01*
G01X23230Y332610D02*
Y340110D01*
X22110Y338610D01*
G01Y332610D02*
X24350D01*
G01X36810Y280910D02*
Y310910D01*
X26710D01*
Y280910D01*
X36810D01*
G01X49920Y23200D02*
X263920D01*
G03X271920Y31200I0J8000D01*
G01Y385200D01*
G03X263920Y393200I-8000J0D01*
G01X49920D01*
G03X41920Y385200I0J-8000D01*
G01Y31200D01*
G03X49920Y23200I8000J0D01*
G01X69000Y62250D02*
X49000D01*
Y75750D01*
X69000D01*
Y62250D01*
G01X49000Y64000D02*
X69000D01*
G01X52500Y65250D02*
G03I-1000J0D01*
G01X87940Y63590D02*
X87160D01*
Y68320D01*
G01Y70680D02*
Y75410D01*
X87940D01*
G01X106060Y63590D02*
X106840D01*
Y68320D01*
G01X106060Y75410D02*
X106840D01*
Y70680D01*
G01X196300Y246600D02*
Y234800D01*
X273100D01*
G01X214120Y317220D02*
Y392810D01*
X255060D01*
Y317220D01*
X214120D01*
G01X232950Y325890D02*
X232580Y326260D01*
X231950Y326540D01*
X231070Y326730D01*
X230330Y326540D01*
X229830Y326170D01*
X229450Y325510D01*
Y322990D01*
X236950D01*
Y326070D01*
X236450Y326730D01*
X235700Y327100D01*
X234820Y327290D01*
X233950Y327100D01*
X233200Y326540D01*
X232950Y325890D01*
Y322990D01*
G01X236950Y332640D02*
X229450D01*
G01X231950Y338550D02*
X235450D01*
X236330Y338930D01*
X236830Y339490D01*
X236950Y340140D01*
X236830Y340790D01*
X236330Y341350D01*
X235450Y341730D01*
G01X236950D02*
X231950D01*
G01X233580Y346240D02*
Y349230D01*
X232700Y348950D01*
X232200Y348480D01*
X231950Y347830D01*
X232080Y347170D01*
X232450Y346610D01*
X233330Y346240D01*
X234080Y346050D01*
X234820D01*
X235580Y346240D01*
X236330Y346710D01*
X236830Y347270D01*
X236950Y347920D01*
X236700Y348570D01*
X235950Y349230D01*
G01X229450Y355140D02*
X236950D01*
G01X231950Y353830D02*
Y356450D01*
G01X236950Y362640D02*
X236830Y362080D01*
X236330Y361520D01*
X235450Y361150D01*
X234450Y360960D01*
X233450Y361150D01*
X232580Y361520D01*
X232080Y362080D01*
X231950Y362640D01*
X232080Y363200D01*
X232580Y363760D01*
X233450Y364130D01*
X234450Y364230D01*
X235450Y364130D01*
X236330Y363760D01*
X236830Y363200D01*
X236950Y362640D01*
G01Y370140D02*
X236830Y369580D01*
X236330Y369020D01*
X235450Y368650D01*
X234450Y368460D01*
X233450Y368650D01*
X232580Y369020D01*
X232080Y369580D01*
X231950Y370140D01*
X232080Y370700D01*
X232580Y371260D01*
X233450Y371630D01*
X234450Y371730D01*
X235450Y371630D01*
X236330Y371260D01*
X236830Y370700D01*
X236950Y370140D01*
G01X229450Y377640D02*
X236950D01*
G01X231950Y376330D02*
Y378950D01*
G01X236950Y383550D02*
X229450D01*
G01X233070D02*
X232450Y384020D01*
X232080Y384490D01*
X231950Y385230D01*
X232080Y385790D01*
X232580Y386450D01*
X233330Y386730D01*
X236950D01*
G01X254950Y54640D02*
Y27640D01*
X268950D01*
Y54640D01*
X254950D01*
G01X259630Y100200D02*
Y110200D01*
X271730D01*
Y100200D01*
X259630D01*
G01X276790Y5420D02*
G03I-1900J0D01*
G01X313190Y49240D02*
X273810D01*
Y108290D01*
X313190D01*
Y49240D01*
G01X283500Y247000D02*
Y227000D01*
X273500D01*
Y247000D01*
X283500D01*
G01X273500Y354400D02*
X312500D01*
Y328600D01*
X273500D01*
Y354400D01*
G01X289000Y202500D02*
Y112500D01*
X279000D01*
Y202500D01*
X289000D01*
G01X279000Y192500D02*
X289000D01*
G01X307900Y291000D02*
Y274900D01*
X284100D01*
Y291000D01*
X307900D01*
G01X287700Y86130D02*
X300300D01*
Y101870D01*
X287700D01*
Y86130D01*
G01X286500Y257000D02*
Y207000D01*
X296400D01*
Y257000D01*
X286500D01*
G01X296500Y247000D02*
X286500D01*
G01X287300Y271200D02*
Y274800D01*
G01X287000Y294400D02*
Y291000D01*
G01X289250Y335030D02*
X288500Y335590D01*
X288120Y336240D01*
X288000Y336990D01*
X288250Y337920D01*
X288880Y338570D01*
X289620Y338760D01*
X290380Y338670D01*
X291000Y338290D01*
X292250Y336430D01*
X293130Y335590D01*
X294380Y335030D01*
X295500Y334840D01*
Y338760D01*
G01Y346800D02*
X288000D01*
X289500Y345680D01*
G01X295500D02*
Y347920D01*
G01X302100Y38780D02*
G03I-1900J0D01*
G01X302320Y114030D02*
G03I-1900J0D01*
G01X304600Y271100D02*
Y274700D01*
X304500Y274800D01*
G01X304700Y294500D02*
Y290900D01*
G54D12*
G01X5380Y104100D02*
X5680Y103750D01*
X6020Y103520D01*
X6430Y103400D01*
X6900Y103520D01*
X7250Y103750D01*
X7600Y104100D01*
X7720Y104570D01*
Y106900D01*
G01X10550Y103400D02*
Y106900D01*
X9850Y106200D01*
G01Y103400D02*
X11250D01*
G01X3080Y121500D02*
Y125000D01*
X4540D01*
X5010Y124820D01*
X5300Y124590D01*
X5420Y124120D01*
X5300Y123660D01*
X4950Y123370D01*
X4540Y123190D01*
X3080D01*
G01X4540D02*
X5420Y121500D01*
G01X8250D02*
X8660Y121560D01*
X9120Y121730D01*
X9420Y122020D01*
X9530Y122430D01*
X9420Y122840D01*
X9070Y123190D01*
X8540Y123370D01*
X7960D01*
X7610Y123480D01*
X7320Y123770D01*
X7200Y124180D01*
X7380Y124590D01*
X7780Y124880D01*
X8250Y125000D01*
X8720Y124880D01*
X9120Y124590D01*
X9300Y124180D01*
X9180Y123770D01*
X8890Y123480D01*
X8540Y123370D01*
X7960D01*
X7430Y123190D01*
X7080Y122840D01*
X6970Y122430D01*
X7080Y122020D01*
X7380Y121730D01*
X7840Y121560D01*
X8250Y121500D01*
G01X2970Y135000D02*
Y132490D01*
X3200Y131970D01*
X3670Y131620D01*
X4250Y131500D01*
X4830Y131620D01*
X5300Y131970D01*
X5530Y132490D01*
Y135000D01*
G01X7140Y134420D02*
X7490Y134770D01*
X7900Y134940D01*
X8370Y135000D01*
X8950Y134880D01*
X9360Y134590D01*
X9480Y134240D01*
X9420Y133890D01*
X9180Y133600D01*
X8020Y133020D01*
X7490Y132610D01*
X7140Y132020D01*
X7020Y131500D01*
X9480D01*
G01X7050Y178900D02*
Y182400D01*
X6350Y181700D01*
G01Y178900D02*
X7750D01*
G01X4080Y193700D02*
X4380Y193350D01*
X4720Y193120D01*
X5130Y193000D01*
X5600Y193120D01*
X5950Y193350D01*
X6300Y193700D01*
X6420Y194170D01*
Y196500D01*
G01X8140Y195920D02*
X8490Y196270D01*
X8900Y196440D01*
X9370Y196500D01*
X9950Y196380D01*
X10360Y196090D01*
X10480Y195740D01*
X10420Y195390D01*
X10180Y195100D01*
X9020Y194520D01*
X8490Y194110D01*
X8140Y193520D01*
X8020Y193000D01*
X10480D01*
G01X6080Y312200D02*
X6380Y311850D01*
X6720Y311620D01*
X7130Y311500D01*
X7600Y311620D01*
X7950Y311850D01*
X8300Y312200D01*
X8420Y312670D01*
Y315000D01*
G01X11250Y311500D02*
Y315000D01*
X10550Y314300D01*
G01Y311500D02*
X11950D01*
G01X14140Y314420D02*
X14490Y314770D01*
X14900Y314940D01*
X15370Y315000D01*
X15950Y314880D01*
X16360Y314590D01*
X16480Y314240D01*
X16420Y313890D01*
X16180Y313600D01*
X15020Y313020D01*
X14490Y312610D01*
X14140Y312020D01*
X14020Y311500D01*
X16480D01*
G01X14580Y19200D02*
X14880Y18850D01*
X15220Y18620D01*
X15630Y18500D01*
X16100Y18620D01*
X16450Y18850D01*
X16800Y19200D01*
X16920Y19670D01*
Y22000D01*
G01X19750Y18500D02*
Y22000D01*
X19050Y21300D01*
G01Y18500D02*
X20450D01*
G01X22640Y19960D02*
X23050Y20370D01*
X23400Y20600D01*
X23870Y20720D01*
X24280Y20600D01*
X24570Y20370D01*
X24800Y20020D01*
X24860Y19610D01*
X24800Y19260D01*
X24570Y18910D01*
X24220Y18620D01*
X23810Y18500D01*
X23340Y18620D01*
X22930Y18970D01*
X22700Y19490D01*
X22640Y20070D01*
X22760Y20830D01*
X22930Y21240D01*
X23220Y21650D01*
X23630Y21940D01*
X24040Y22000D01*
X24450Y21880D01*
X24740Y21590D01*
G01X15470Y46700D02*
X15820Y46290D01*
X16280Y46060D01*
X16810Y46000D01*
X17280Y46060D01*
X17740Y46350D01*
X18030Y46700D01*
X18090Y47050D01*
X17980Y47460D01*
X17570Y47750D01*
X17160Y47870D01*
X16630D01*
G01X17160D02*
X17510Y48040D01*
X17800Y48330D01*
X17920Y48680D01*
X17800Y49030D01*
X17510Y49320D01*
X16980Y49500D01*
X16460Y49440D01*
X15930Y49210D01*
G01X19290Y49500D02*
X20750Y46000D01*
X22210Y49500D01*
G01X23470Y46700D02*
X23820Y46290D01*
X24280Y46060D01*
X24810Y46000D01*
X25280Y46060D01*
X25740Y46350D01*
X26030Y46700D01*
X26090Y47050D01*
X25980Y47460D01*
X25570Y47750D01*
X25160Y47870D01*
X24630D01*
G01X25160D02*
X25510Y48040D01*
X25800Y48330D01*
X25920Y48680D01*
X25800Y49030D01*
X25510Y49320D01*
X24980Y49500D01*
X24460Y49440D01*
X23930Y49210D01*
G01X16050Y45000D02*
X17450D01*
G01X16750D02*
Y41500D01*
G01X16050D02*
X17450D01*
G01X19580D02*
Y45000D01*
X21040D01*
X21510Y44820D01*
X21800Y44590D01*
X21920Y44120D01*
X21800Y43660D01*
X21450Y43370D01*
X21040Y43190D01*
X19580D01*
G01X21040D02*
X21920Y41500D01*
G01X24750D02*
X24280Y41560D01*
X23880Y41790D01*
X23520Y42140D01*
X23290Y42550D01*
X23170Y43020D01*
Y43480D01*
X23290Y43950D01*
X23520Y44360D01*
X23880Y44710D01*
X24280Y44940D01*
X24750Y45000D01*
X25220Y44940D01*
X25620Y44710D01*
X25980Y44360D01*
X26210Y43950D01*
X26330Y43480D01*
Y43020D01*
X26210Y42550D01*
X25980Y42140D01*
X25620Y41790D01*
X25220Y41560D01*
X24750Y41500D01*
G01X25220Y42430D02*
X25920Y41500D01*
G01X17600Y38750D02*
X18770D01*
Y37700D01*
X18420Y37350D01*
X18010Y37120D01*
X17430Y37000D01*
X16840Y37120D01*
X16430Y37350D01*
X16080Y37700D01*
X15850Y38110D01*
X15730Y38570D01*
Y38980D01*
X15850Y39330D01*
X16080Y39740D01*
X16430Y40090D01*
X16780Y40320D01*
X17250Y40500D01*
X17660D01*
X18120Y40380D01*
X18480Y40150D01*
G01X19910Y37000D02*
Y40500D01*
X22590Y37000D01*
Y40500D01*
G01X23970Y37000D02*
Y40500D01*
X25130D01*
X25600Y40320D01*
X25950Y40090D01*
X26240Y39740D01*
X26480Y39330D01*
X26530Y38750D01*
X26480Y38170D01*
X26240Y37760D01*
X25950Y37410D01*
X25600Y37170D01*
X25130Y37000D01*
X23970D01*
G01X16020Y55470D02*
X16490Y55170D01*
X17020Y55000D01*
X17480D01*
X17950Y55170D01*
X18300Y55470D01*
X18480Y55880D01*
X18360Y56280D01*
X18070Y56630D01*
X17540Y56870D01*
X16840Y56980D01*
X16430Y57220D01*
X16260Y57620D01*
X16380Y58030D01*
X16670Y58320D01*
X17070Y58500D01*
X17480D01*
X17890Y58380D01*
X18240Y58090D01*
G01X22530Y58210D02*
X22180Y58380D01*
X21780Y58500D01*
X21310D01*
X20780Y58320D01*
X20380Y58030D01*
X20080Y57680D01*
X19850Y57100D01*
X19790Y56570D01*
X19910Y56050D01*
X20080Y55700D01*
X20430Y55350D01*
X20840Y55120D01*
X21250Y55000D01*
X21660D01*
X22070Y55120D01*
X22420Y55290D01*
X22710Y55520D01*
G01X24080Y58500D02*
Y55000D01*
X26420D01*
G01X15520Y50970D02*
X15990Y50670D01*
X16520Y50500D01*
X16980D01*
X17450Y50670D01*
X17800Y50970D01*
X17980Y51380D01*
X17860Y51780D01*
X17570Y52130D01*
X17040Y52370D01*
X16340Y52480D01*
X15930Y52720D01*
X15760Y53120D01*
X15880Y53530D01*
X16170Y53820D01*
X16570Y54000D01*
X16980D01*
X17390Y53880D01*
X17740Y53590D01*
G01X19470Y50500D02*
Y54000D01*
X20630D01*
X21100Y53820D01*
X21450Y53590D01*
X21740Y53240D01*
X21980Y52830D01*
X22030Y52250D01*
X21980Y51670D01*
X21740Y51260D01*
X21450Y50910D01*
X21100Y50670D01*
X20630Y50500D01*
X19470D01*
G01X23290D02*
X24750Y54000D01*
X26210Y50500D01*
G01X25680Y51720D02*
X23820D01*
G01X11820Y47940D02*
X8320D01*
X9020Y47240D01*
G01X11820D02*
Y48640D01*
G01X17750Y103600D02*
Y104770D01*
X18800D01*
X19150Y104420D01*
X19380Y104010D01*
X19500Y103430D01*
X19380Y102840D01*
X19150Y102430D01*
X18800Y102080D01*
X18390Y101850D01*
X17930Y101730D01*
X17520D01*
X17170Y101850D01*
X16760Y102080D01*
X16410Y102430D01*
X16180Y102780D01*
X16000Y103250D01*
Y103660D01*
X16120Y104120D01*
X16350Y104480D01*
G01X16000Y107250D02*
X16120Y106780D01*
X16410Y106430D01*
X16760Y106200D01*
X17230Y106020D01*
X17750Y105970D01*
X18280Y106020D01*
X18740Y106200D01*
X19090Y106430D01*
X19380Y106780D01*
X19500Y107250D01*
X19380Y107720D01*
X19090Y108070D01*
X18740Y108300D01*
X18280Y108480D01*
X17750Y108530D01*
X17230Y108480D01*
X16760Y108300D01*
X16410Y108070D01*
X16120Y107720D01*
X16000Y107250D01*
G01X19500Y111250D02*
X19440Y111660D01*
X19270Y112120D01*
X18980Y112420D01*
X18570Y112530D01*
X18160Y112420D01*
X17810Y112070D01*
X17630Y111540D01*
Y110960D01*
X17520Y110610D01*
X17230Y110320D01*
X16820Y110200D01*
X16410Y110380D01*
X16120Y110780D01*
X16000Y111250D01*
X16120Y111720D01*
X16410Y112120D01*
X16820Y112300D01*
X17230Y112180D01*
X17520Y111890D01*
X17630Y111540D01*
Y110960D01*
X17810Y110430D01*
X18160Y110080D01*
X18570Y109970D01*
X18980Y110080D01*
X19270Y110380D01*
X19440Y110840D01*
X19500Y111250D01*
G01X13030Y277590D02*
X9530D01*
X10230Y276890D01*
G01X13030D02*
Y278290D01*
G01X14080Y371700D02*
X14380Y371350D01*
X14720Y371120D01*
X15130Y371000D01*
X15600Y371120D01*
X15950Y371350D01*
X16300Y371700D01*
X16420Y372170D01*
Y374500D01*
G01X19250Y371000D02*
Y374500D01*
X18550Y373800D01*
G01Y371000D02*
X19950D01*
G01X22260Y371410D02*
X22670Y371120D01*
X23130Y371000D01*
X23600Y371120D01*
X24010Y371470D01*
X24300Y371990D01*
X24420Y372520D01*
Y373160D01*
X24300Y373680D01*
X24010Y374150D01*
X23660Y374380D01*
X23250Y374500D01*
X22780Y374380D01*
X22430Y374150D01*
X22200Y373800D01*
X22080Y373330D01*
X22200Y372930D01*
X22490Y372520D01*
X22840Y372280D01*
X23250Y372220D01*
X23720Y372340D01*
X24070Y372630D01*
X24420Y373160D01*
G01X19150Y83000D02*
Y84170D01*
X20200D01*
X20550Y83820D01*
X20780Y83410D01*
X20900Y82830D01*
X20780Y82240D01*
X20550Y81830D01*
X20200Y81480D01*
X19790Y81250D01*
X19330Y81130D01*
X18920D01*
X18570Y81250D01*
X18160Y81480D01*
X17810Y81830D01*
X17580Y82180D01*
X17400Y82650D01*
Y83060D01*
X17520Y83520D01*
X17750Y83880D01*
G01X20200Y85370D02*
X20610Y85720D01*
X20840Y86180D01*
X20900Y86710D01*
X20840Y87180D01*
X20550Y87640D01*
X20200Y87930D01*
X19850Y87990D01*
X19440Y87880D01*
X19150Y87470D01*
X19030Y87060D01*
Y86530D01*
G01Y87060D02*
X18860Y87410D01*
X18570Y87700D01*
X18220Y87820D01*
X17870Y87700D01*
X17580Y87410D01*
X17400Y86880D01*
X17460Y86360D01*
X17690Y85830D01*
G01X17400Y90650D02*
X17520Y90180D01*
X17810Y89830D01*
X18160Y89600D01*
X18630Y89420D01*
X19150Y89370D01*
X19680Y89420D01*
X20140Y89600D01*
X20490Y89830D01*
X20780Y90180D01*
X20900Y90650D01*
X20780Y91120D01*
X20490Y91470D01*
X20140Y91700D01*
X19680Y91880D01*
X19150Y91930D01*
X18630Y91880D01*
X18160Y91700D01*
X17810Y91470D01*
X17520Y91120D01*
X17400Y90650D01*
G01X21880Y114100D02*
X22180Y113750D01*
X22520Y113520D01*
X22930Y113400D01*
X23400Y113520D01*
X23750Y113750D01*
X24100Y114100D01*
X24220Y114570D01*
Y116900D01*
G01X25770Y114100D02*
X26120Y113690D01*
X26580Y113460D01*
X27110Y113400D01*
X27580Y113460D01*
X28040Y113750D01*
X28330Y114100D01*
X28390Y114450D01*
X28280Y114860D01*
X27870Y115150D01*
X27460Y115270D01*
X26930D01*
G01X27460D02*
X27810Y115440D01*
X28100Y115730D01*
X28220Y116080D01*
X28100Y116430D01*
X27810Y116720D01*
X27280Y116900D01*
X26760Y116840D01*
X26230Y116610D01*
G01X23030Y155210D02*
X22680Y155380D01*
X22280Y155500D01*
X21810D01*
X21280Y155320D01*
X20880Y155030D01*
X20580Y154680D01*
X20350Y154100D01*
X20290Y153570D01*
X20410Y153050D01*
X20580Y152700D01*
X20930Y152350D01*
X21340Y152120D01*
X21750Y152000D01*
X22160D01*
X22570Y152120D01*
X22920Y152290D01*
X23210Y152520D01*
G01X24760Y152410D02*
X25170Y152120D01*
X25630Y152000D01*
X26100Y152120D01*
X26510Y152470D01*
X26800Y152990D01*
X26920Y153520D01*
Y154160D01*
X26800Y154680D01*
X26510Y155150D01*
X26160Y155380D01*
X25750Y155500D01*
X25280Y155380D01*
X24930Y155150D01*
X24700Y154800D01*
X24580Y154330D01*
X24700Y153930D01*
X24990Y153520D01*
X25340Y153280D01*
X25750Y153220D01*
X26220Y153340D01*
X26570Y153630D01*
X26920Y154160D01*
G01X25080Y162200D02*
X25380Y161850D01*
X25720Y161620D01*
X26130Y161500D01*
X26600Y161620D01*
X26950Y161850D01*
X27300Y162200D01*
X27420Y162670D01*
Y165000D01*
G01X28970Y162020D02*
X29320Y161730D01*
X29720Y161560D01*
X30250Y161500D01*
X30780Y161620D01*
X31180Y161850D01*
X31480Y162260D01*
X31530Y162720D01*
X31420Y163190D01*
X31120Y163480D01*
X30720Y163720D01*
X30310Y163770D01*
X29900Y163720D01*
X29380Y163480D01*
X29550Y165000D01*
X31120D01*
G01X24220Y197300D02*
X21880D01*
Y200800D01*
X24220D01*
G01X23280Y199110D02*
X21880D01*
G01X26180Y199630D02*
X27920Y197300D01*
G01Y199630D02*
X26180Y197300D01*
G01X29300Y196130D02*
X32800D01*
G01X33880Y197300D02*
Y200800D01*
X35280D01*
X35750Y200620D01*
X36100Y200220D01*
X36220Y199750D01*
X36100Y199280D01*
X35810Y198930D01*
X35280Y198760D01*
X33880D01*
G01X39050Y197300D02*
X38700Y197360D01*
X38350Y197590D01*
X38120Y198000D01*
X38000Y198470D01*
X38120Y198930D01*
X38350Y199340D01*
X38700Y199570D01*
X39050Y199630D01*
X39400Y199570D01*
X39750Y199340D01*
X39980Y198930D01*
X40040Y198470D01*
X39980Y198000D01*
X39750Y197590D01*
X39400Y197360D01*
X39050Y197300D01*
G01X41590Y199630D02*
X42290Y197300D01*
X43050Y199630D01*
X43810Y197300D01*
X44510Y199630D01*
G01X46180Y198870D02*
X48040D01*
X47870Y199280D01*
X47580Y199520D01*
X47170Y199630D01*
X46760Y199570D01*
X46410Y199400D01*
X46180Y198990D01*
X46060Y198640D01*
Y198290D01*
X46180Y197940D01*
X46470Y197590D01*
X46820Y197360D01*
X47230Y197300D01*
X47630Y197420D01*
X48040Y197770D01*
G01X50230Y197300D02*
Y199630D01*
G01Y199170D02*
X50520Y199400D01*
X50820Y199570D01*
X51230Y199630D01*
X51520Y199570D01*
X51870Y199400D01*
G01X19500Y306650D02*
X20670D01*
Y305600D01*
X20320Y305250D01*
X19910Y305020D01*
X19330Y304900D01*
X18740Y305020D01*
X18330Y305250D01*
X17980Y305600D01*
X17750Y306010D01*
X17630Y306470D01*
Y306880D01*
X17750Y307230D01*
X17980Y307640D01*
X18330Y307990D01*
X18680Y308220D01*
X19150Y308400D01*
X19560D01*
X20020Y308280D01*
X20380Y308050D01*
G01X23030Y304900D02*
X23150Y305660D01*
X23330Y306300D01*
X23560Y306880D01*
X23850Y307520D01*
X24320Y308400D01*
X21980D01*
G01X38000Y62080D02*
X34500D01*
Y63540D01*
X34680Y64010D01*
X34910Y64300D01*
X35380Y64420D01*
X35840Y64300D01*
X36130Y63950D01*
X36310Y63540D01*
Y62080D01*
G01Y63540D02*
X38000Y64420D01*
G01X35080Y66140D02*
X34730Y66490D01*
X34560Y66900D01*
X34500Y67370D01*
X34620Y67950D01*
X34910Y68360D01*
X35260Y68480D01*
X35610Y68420D01*
X35900Y68180D01*
X36480Y67020D01*
X36890Y66490D01*
X37480Y66140D01*
X38000Y66020D01*
Y68480D01*
G01X33500Y62080D02*
X30000D01*
Y63540D01*
X30180Y64010D01*
X30410Y64300D01*
X30880Y64420D01*
X31340Y64300D01*
X31630Y63950D01*
X31810Y63540D01*
Y62080D01*
G01Y63540D02*
X33500Y64420D01*
G01Y67250D02*
X30000D01*
X30700Y66550D01*
G01X33500D02*
Y67950D01*
G01X34550Y93400D02*
Y94570D01*
X35600D01*
X35950Y94220D01*
X36180Y93810D01*
X36300Y93230D01*
X36180Y92640D01*
X35950Y92230D01*
X35600Y91880D01*
X35190Y91650D01*
X34730Y91530D01*
X34320D01*
X33970Y91650D01*
X33560Y91880D01*
X33210Y92230D01*
X32980Y92580D01*
X32800Y93050D01*
Y93460D01*
X32920Y93920D01*
X33150Y94280D01*
G01X36300Y95710D02*
X32800D01*
X36300Y98390D01*
X32800D01*
G01X36300Y99770D02*
X32800D01*
Y100930D01*
X32980Y101400D01*
X33210Y101750D01*
X33560Y102040D01*
X33970Y102280D01*
X34550Y102330D01*
X35130Y102280D01*
X35540Y102040D01*
X35890Y101750D01*
X36130Y101400D01*
X36300Y100930D01*
Y99770D01*
G01X32650Y113500D02*
Y117000D01*
X31950Y116300D01*
G01Y113500D02*
X33350D01*
G01X27450Y176810D02*
Y180310D01*
X28610D01*
X29080Y180130D01*
X29430Y179900D01*
X29720Y179550D01*
X29960Y179140D01*
X30010Y178560D01*
X29960Y177980D01*
X29720Y177570D01*
X29430Y177220D01*
X29080Y176980D01*
X28610Y176810D01*
X27450D01*
G01X32730D02*
Y180310D01*
X32030Y179610D01*
G01Y176810D02*
X33430D01*
G01X32580Y186200D02*
X32880Y185850D01*
X33220Y185620D01*
X33630Y185500D01*
X34100Y185620D01*
X34450Y185850D01*
X34800Y186200D01*
X34920Y186670D01*
Y189000D01*
G01X38450Y185500D02*
Y189000D01*
X36290Y186490D01*
X39210D01*
G01X31580Y211500D02*
Y215000D01*
X33040D01*
X33510Y214820D01*
X33800Y214590D01*
X33920Y214120D01*
X33800Y213660D01*
X33450Y213370D01*
X33040Y213190D01*
X31580D01*
G01X33040D02*
X33920Y211500D01*
G01X35760Y211910D02*
X36170Y211620D01*
X36630Y211500D01*
X37100Y211620D01*
X37510Y211970D01*
X37800Y212490D01*
X37920Y213020D01*
Y213660D01*
X37800Y214180D01*
X37510Y214650D01*
X37160Y214880D01*
X36750Y215000D01*
X36280Y214880D01*
X35930Y214650D01*
X35700Y214300D01*
X35580Y213830D01*
X35700Y213430D01*
X35990Y213020D01*
X36340Y212780D01*
X36750Y212720D01*
X37220Y212840D01*
X37570Y213130D01*
X37920Y213660D01*
G01X36080Y224500D02*
Y221000D01*
X38420D01*
G01X40020Y221470D02*
X40490Y221170D01*
X41020Y221000D01*
X41480D01*
X41950Y221170D01*
X42300Y221470D01*
X42480Y221880D01*
X42360Y222280D01*
X42070Y222630D01*
X41540Y222870D01*
X40840Y222980D01*
X40430Y223220D01*
X40260Y223620D01*
X40380Y224030D01*
X40670Y224320D01*
X41070Y224500D01*
X41480D01*
X41890Y224380D01*
X42240Y224090D01*
G01X45250Y221000D02*
Y224500D01*
X44550Y223800D01*
G01Y221000D02*
X45950D01*
G01X33310Y277660D02*
X29810D01*
X30510Y276960D01*
G01X33310D02*
Y278360D01*
G01X26580Y312700D02*
X26880Y312350D01*
X27220Y312120D01*
X27630Y312000D01*
X28100Y312120D01*
X28450Y312350D01*
X28800Y312700D01*
X28920Y313170D01*
Y315500D01*
G01X31750Y312000D02*
Y315500D01*
X31050Y314800D01*
G01Y312000D02*
X32450D01*
G01X34470Y312700D02*
X34820Y312290D01*
X35280Y312060D01*
X35810Y312000D01*
X36280Y312060D01*
X36740Y312350D01*
X37030Y312700D01*
X37090Y313050D01*
X36980Y313460D01*
X36570Y313750D01*
X36160Y313870D01*
X35630D01*
G01X36160D02*
X36510Y314040D01*
X36800Y314330D01*
X36920Y314680D01*
X36800Y315030D01*
X36510Y315320D01*
X35980Y315500D01*
X35460Y315440D01*
X34930Y315210D01*
G01X31020Y338970D02*
X31490Y338670D01*
X32020Y338500D01*
X32480D01*
X32950Y338670D01*
X33300Y338970D01*
X33480Y339380D01*
X33360Y339780D01*
X33070Y340130D01*
X32540Y340370D01*
X31840Y340480D01*
X31430Y340720D01*
X31260Y341120D01*
X31380Y341530D01*
X31670Y341820D01*
X32070Y342000D01*
X32480D01*
X32890Y341880D01*
X33240Y341590D01*
G01X34500Y342000D02*
X35320Y338500D01*
X36250Y342000D01*
X37180Y338500D01*
X38000Y342000D01*
G01X39140Y341420D02*
X39490Y341770D01*
X39900Y341940D01*
X40370Y342000D01*
X40950Y341880D01*
X41360Y341590D01*
X41480Y341240D01*
X41420Y340890D01*
X41180Y340600D01*
X40020Y340020D01*
X39490Y339610D01*
X39140Y339020D01*
X39020Y338500D01*
X41480D01*
G01X33340Y348300D02*
Y351800D01*
X35560D01*
G01X34740Y350110D02*
X33340D01*
G01X38450Y348300D02*
Y351800D01*
G01X42450Y348300D02*
X42100Y348360D01*
X41750Y348590D01*
X41520Y349000D01*
X41400Y349470D01*
X41520Y349930D01*
X41750Y350340D01*
X42100Y350570D01*
X42450Y350630D01*
X42800Y350570D01*
X43150Y350340D01*
X43380Y349930D01*
X43440Y349470D01*
X43380Y349000D01*
X43150Y348590D01*
X42800Y348360D01*
X42450Y348300D01*
G01X44990Y350630D02*
X45690Y348300D01*
X46450Y350630D01*
X47210Y348300D01*
X47910Y350630D01*
G01X55620Y348300D02*
X53280D01*
Y351800D01*
X55620D01*
G01X54680Y350110D02*
X53280D01*
G01X57460Y348300D02*
Y350630D01*
G01Y350050D02*
X57690Y350340D01*
X58040Y350570D01*
X58510Y350630D01*
X58920Y350570D01*
X59270Y350340D01*
X59440Y349930D01*
Y348300D01*
G01X63500D02*
Y350630D01*
G01Y350230D02*
X63270Y350460D01*
X62920Y350570D01*
X62510Y350630D01*
X62100Y350520D01*
X61750Y350280D01*
X61520Y349930D01*
X61400Y349470D01*
X61520Y349000D01*
X61750Y348650D01*
X62100Y348420D01*
X62510Y348300D01*
X62920Y348360D01*
X63270Y348530D01*
X63500Y348770D01*
G01X65400Y348300D02*
Y351800D01*
G01Y350050D02*
X65690Y350400D01*
X66040Y350570D01*
X66390Y350630D01*
X66920Y350520D01*
X67270Y350280D01*
X67500Y349870D01*
Y349410D01*
X67380Y348940D01*
X67150Y348590D01*
X66740Y348360D01*
X66390Y348300D01*
X66040Y348360D01*
X65690Y348530D01*
X65400Y348820D01*
G01X70450Y348300D02*
Y351800D01*
G01X73580Y349870D02*
X75440D01*
X75270Y350280D01*
X74980Y350520D01*
X74570Y350630D01*
X74160Y350570D01*
X73810Y350400D01*
X73580Y349990D01*
X73460Y349640D01*
Y349290D01*
X73580Y348940D01*
X73870Y348590D01*
X74220Y348360D01*
X74630Y348300D01*
X75030Y348420D01*
X75440Y348770D01*
G01X39080Y75500D02*
Y79000D01*
X40540D01*
X41010Y78820D01*
X41300Y78590D01*
X41420Y78120D01*
X41300Y77660D01*
X40950Y77370D01*
X40540Y77190D01*
X39080D01*
G01X40540D02*
X41420Y75500D01*
G01X42970Y76200D02*
X43320Y75790D01*
X43780Y75560D01*
X44310Y75500D01*
X44780Y75560D01*
X45240Y75850D01*
X45530Y76200D01*
X45590Y76550D01*
X45480Y76960D01*
X45070Y77250D01*
X44660Y77370D01*
X44130D01*
G01X44660D02*
X45010Y77540D01*
X45300Y77830D01*
X45420Y78180D01*
X45300Y78530D01*
X45010Y78820D01*
X44480Y79000D01*
X43960Y78940D01*
X43430Y78710D01*
G01X41790Y100530D02*
X41620Y100180D01*
X41500Y99780D01*
Y99310D01*
X41680Y98780D01*
X41970Y98380D01*
X42320Y98080D01*
X42900Y97850D01*
X43430Y97790D01*
X43950Y97910D01*
X44300Y98080D01*
X44650Y98430D01*
X44880Y98840D01*
X45000Y99250D01*
Y99660D01*
X44880Y100070D01*
X44710Y100420D01*
X44480Y100710D01*
G01X45000Y103250D02*
X41500D01*
X42200Y102550D01*
G01X45000D02*
Y103950D01*
G01X41080Y109000D02*
Y112500D01*
X42540D01*
X43010Y112320D01*
X43300Y112090D01*
X43420Y111620D01*
X43300Y111160D01*
X42950Y110870D01*
X42540Y110690D01*
X41080D01*
G01X42540D02*
X43420Y109000D01*
G01X46950D02*
Y112500D01*
X44790Y109990D01*
X47710D01*
G01X38080Y121000D02*
Y124500D01*
X39540D01*
X40010Y124320D01*
X40300Y124090D01*
X40420Y123620D01*
X40300Y123160D01*
X39950Y122870D01*
X39540Y122690D01*
X38080D01*
G01X39540D02*
X40420Y121000D01*
G01X43130D02*
X43250Y121760D01*
X43430Y122400D01*
X43660Y122980D01*
X43950Y123620D01*
X44420Y124500D01*
X42080D01*
G01X42200Y285150D02*
X43370D01*
Y284100D01*
X43020Y283750D01*
X42610Y283520D01*
X42030Y283400D01*
X41440Y283520D01*
X41030Y283750D01*
X40680Y284100D01*
X40450Y284510D01*
X40330Y284970D01*
Y285380D01*
X40450Y285730D01*
X40680Y286140D01*
X41030Y286490D01*
X41380Y286720D01*
X41850Y286900D01*
X42260D01*
X42720Y286780D01*
X43080Y286550D01*
G01X44510Y283400D02*
Y286900D01*
X47190Y283400D01*
Y286900D01*
G01X48570Y283400D02*
Y286900D01*
X49730D01*
X50200Y286720D01*
X50550Y286490D01*
X50840Y286140D01*
X51080Y285730D01*
X51130Y285150D01*
X51080Y284570D01*
X50840Y284160D01*
X50550Y283810D01*
X50200Y283570D01*
X49730Y283400D01*
X48570D01*
G01X39970Y295000D02*
X40320Y294590D01*
X40780Y294360D01*
X41310Y294300D01*
X41780Y294360D01*
X42240Y294650D01*
X42530Y295000D01*
X42590Y295350D01*
X42480Y295760D01*
X42070Y296050D01*
X41660Y296170D01*
X41130D01*
G01X41660D02*
X42010Y296340D01*
X42300Y296630D01*
X42420Y296980D01*
X42300Y297330D01*
X42010Y297620D01*
X41480Y297800D01*
X40960Y297740D01*
X40430Y297510D01*
G01X43790Y297800D02*
X45250Y294300D01*
X46710Y297800D01*
G01X47970Y295000D02*
X48320Y294590D01*
X48780Y294360D01*
X49310Y294300D01*
X49780Y294360D01*
X50240Y294650D01*
X50530Y295000D01*
X50590Y295350D01*
X50480Y295760D01*
X50070Y296050D01*
X49660Y296170D01*
X49130D01*
G01X49660D02*
X50010Y296340D01*
X50300Y296630D01*
X50420Y296980D01*
X50300Y297330D01*
X50010Y297620D01*
X49480Y297800D01*
X48960Y297740D01*
X48430Y297510D01*
G01X42000Y307550D02*
X43170D01*
Y306500D01*
X42820Y306150D01*
X42410Y305920D01*
X41830Y305800D01*
X41240Y305920D01*
X40830Y306150D01*
X40480Y306500D01*
X40250Y306910D01*
X40130Y307370D01*
Y307780D01*
X40250Y308130D01*
X40480Y308540D01*
X40830Y308890D01*
X41180Y309120D01*
X41650Y309300D01*
X42060D01*
X42520Y309180D01*
X42880Y308950D01*
G01X44540Y307260D02*
X44950Y307670D01*
X45300Y307900D01*
X45770Y308020D01*
X46180Y307900D01*
X46470Y307670D01*
X46700Y307320D01*
X46760Y306910D01*
X46700Y306560D01*
X46470Y306210D01*
X46120Y305920D01*
X45710Y305800D01*
X45240Y305920D01*
X44830Y306270D01*
X44600Y306790D01*
X44540Y307370D01*
X44660Y308130D01*
X44830Y308540D01*
X45120Y308950D01*
X45530Y309240D01*
X45940Y309300D01*
X46350Y309180D01*
X46640Y308890D01*
G01X52750Y260500D02*
X52280Y260560D01*
X51880Y260790D01*
X51520Y261140D01*
X51290Y261550D01*
X51170Y262020D01*
Y262480D01*
X51290Y262950D01*
X51520Y263360D01*
X51880Y263710D01*
X52280Y263940D01*
X52750Y264000D01*
X53220Y263940D01*
X53620Y263710D01*
X53980Y263360D01*
X54210Y262950D01*
X54330Y262480D01*
Y262020D01*
X54210Y261550D01*
X53980Y261140D01*
X53620Y260790D01*
X53220Y260560D01*
X52750Y260500D01*
G01X53220Y261430D02*
X53920Y260500D01*
G01X55470Y261200D02*
X55820Y260790D01*
X56280Y260560D01*
X56810Y260500D01*
X57280Y260560D01*
X57740Y260850D01*
X58030Y261200D01*
X58090Y261550D01*
X57980Y261960D01*
X57570Y262250D01*
X57160Y262370D01*
X56630D01*
G01X57160D02*
X57510Y262540D01*
X57800Y262830D01*
X57920Y263180D01*
X57800Y263530D01*
X57510Y263820D01*
X56980Y264000D01*
X56460Y263940D01*
X55930Y263710D01*
G01X51970Y369900D02*
Y367390D01*
X52200Y366870D01*
X52670Y366520D01*
X53250Y366400D01*
X53830Y366520D01*
X54300Y366870D01*
X54530Y367390D01*
Y369900D01*
G01X57250Y366400D02*
Y369900D01*
X56550Y369200D01*
G01Y366400D02*
X57950D01*
G01X57580Y7500D02*
Y11000D01*
X59040D01*
X59510Y10820D01*
X59800Y10590D01*
X59920Y10120D01*
X59800Y9660D01*
X59450Y9370D01*
X59040Y9190D01*
X57580D01*
G01X59040D02*
X59920Y7500D01*
G01X62750D02*
Y11000D01*
X62050Y10300D01*
G01Y7500D02*
X63450D01*
G01X65760Y7910D02*
X66170Y7620D01*
X66630Y7500D01*
X67100Y7620D01*
X67510Y7970D01*
X67800Y8490D01*
X67920Y9020D01*
Y9660D01*
X67800Y10180D01*
X67510Y10650D01*
X67160Y10880D01*
X66750Y11000D01*
X66280Y10880D01*
X65930Y10650D01*
X65700Y10300D01*
X65580Y9830D01*
X65700Y9430D01*
X65990Y9020D01*
X66340Y8780D01*
X66750Y8720D01*
X67220Y8840D01*
X67570Y9130D01*
X67920Y9660D01*
G01X61470Y15000D02*
Y18500D01*
X62630D01*
X63100Y18320D01*
X63450Y18090D01*
X63740Y17740D01*
X63980Y17330D01*
X64030Y16750D01*
X63980Y16170D01*
X63740Y15760D01*
X63450Y15410D01*
X63100Y15170D01*
X62630Y15000D01*
X61470D01*
G01X65470Y15700D02*
X65820Y15290D01*
X66280Y15060D01*
X66810Y15000D01*
X67280Y15060D01*
X67740Y15350D01*
X68030Y15700D01*
X68090Y16050D01*
X67980Y16460D01*
X67570Y16750D01*
X67160Y16870D01*
X66630D01*
G01X67160D02*
X67510Y17040D01*
X67800Y17330D01*
X67920Y17680D01*
X67800Y18030D01*
X67510Y18320D01*
X66980Y18500D01*
X66460Y18440D01*
X65930Y18210D01*
G01X62080Y85000D02*
Y88500D01*
X63540D01*
X64010Y88320D01*
X64300Y88090D01*
X64420Y87620D01*
X64300Y87160D01*
X63950Y86870D01*
X63540Y86690D01*
X62080D01*
G01X63540D02*
X64420Y85000D01*
G01X65970Y85700D02*
X66320Y85290D01*
X66780Y85060D01*
X67310Y85000D01*
X67780Y85060D01*
X68240Y85350D01*
X68530Y85700D01*
X68590Y86050D01*
X68480Y86460D01*
X68070Y86750D01*
X67660Y86870D01*
X67130D01*
G01X67660D02*
X68010Y87040D01*
X68300Y87330D01*
X68420Y87680D01*
X68300Y88030D01*
X68010Y88320D01*
X67480Y88500D01*
X66960Y88440D01*
X66430Y88210D01*
G01X71250Y85000D02*
Y88500D01*
X70550Y87800D01*
G01Y85000D02*
X71950D01*
G01X62580Y92000D02*
Y95500D01*
X64040D01*
X64510Y95320D01*
X64800Y95090D01*
X64920Y94620D01*
X64800Y94160D01*
X64450Y93870D01*
X64040Y93690D01*
X62580D01*
G01X64040D02*
X64920Y92000D01*
G01X66470Y92700D02*
X66820Y92290D01*
X67280Y92060D01*
X67810Y92000D01*
X68280Y92060D01*
X68740Y92350D01*
X69030Y92700D01*
X69090Y93050D01*
X68980Y93460D01*
X68570Y93750D01*
X68160Y93870D01*
X67630D01*
G01X68160D02*
X68510Y94040D01*
X68800Y94330D01*
X68920Y94680D01*
X68800Y95030D01*
X68510Y95320D01*
X67980Y95500D01*
X67460Y95440D01*
X66930Y95210D01*
G01X70470Y92700D02*
X70820Y92290D01*
X71280Y92060D01*
X71810Y92000D01*
X72280Y92060D01*
X72740Y92350D01*
X73030Y92700D01*
X73090Y93050D01*
X72980Y93460D01*
X72570Y93750D01*
X72160Y93870D01*
X71630D01*
G01X72160D02*
X72510Y94040D01*
X72800Y94330D01*
X72920Y94680D01*
X72800Y95030D01*
X72510Y95320D01*
X71980Y95500D01*
X71460Y95440D01*
X70930Y95210D01*
G01X62000Y166580D02*
X58500D01*
Y168040D01*
X58680Y168510D01*
X58910Y168800D01*
X59380Y168920D01*
X59840Y168800D01*
X60130Y168450D01*
X60310Y168040D01*
Y166580D01*
G01Y168040D02*
X62000Y168920D01*
G01X61300Y170470D02*
X61710Y170820D01*
X61940Y171280D01*
X62000Y171810D01*
X61940Y172280D01*
X61650Y172740D01*
X61300Y173030D01*
X60950Y173090D01*
X60540Y172980D01*
X60250Y172570D01*
X60130Y172160D01*
Y171630D01*
G01Y172160D02*
X59960Y172510D01*
X59670Y172800D01*
X59320Y172920D01*
X58970Y172800D01*
X58680Y172510D01*
X58500Y171980D01*
X58560Y171460D01*
X58790Y170930D01*
G01X62000Y175750D02*
X61940Y176160D01*
X61770Y176620D01*
X61480Y176920D01*
X61070Y177030D01*
X60660Y176920D01*
X60310Y176570D01*
X60130Y176040D01*
Y175460D01*
X60020Y175110D01*
X59730Y174820D01*
X59320Y174700D01*
X58910Y174880D01*
X58620Y175280D01*
X58500Y175750D01*
X58620Y176220D01*
X58910Y176620D01*
X59320Y176800D01*
X59730Y176680D01*
X60020Y176390D01*
X60130Y176040D01*
Y175460D01*
X60310Y174930D01*
X60660Y174580D01*
X61070Y174470D01*
X61480Y174580D01*
X61770Y174880D01*
X61940Y175340D01*
X62000Y175750D01*
G01Y180080D02*
X58500D01*
Y181540D01*
X58680Y182010D01*
X58910Y182300D01*
X59380Y182420D01*
X59840Y182300D01*
X60130Y181950D01*
X60310Y181540D01*
Y180080D01*
G01Y181540D02*
X62000Y182420D01*
G01X61300Y183970D02*
X61710Y184320D01*
X61940Y184780D01*
X62000Y185310D01*
X61940Y185780D01*
X61650Y186240D01*
X61300Y186530D01*
X60950Y186590D01*
X60540Y186480D01*
X60250Y186070D01*
X60130Y185660D01*
Y185130D01*
G01Y185660D02*
X59960Y186010D01*
X59670Y186300D01*
X59320Y186420D01*
X58970Y186300D01*
X58680Y186010D01*
X58500Y185480D01*
X58560Y184960D01*
X58790Y184430D01*
G01X62000Y189130D02*
X61240Y189250D01*
X60600Y189430D01*
X60020Y189660D01*
X59380Y189950D01*
X58500Y190420D01*
Y188080D01*
G01X62580Y239500D02*
Y243000D01*
X64040D01*
X64510Y242820D01*
X64800Y242590D01*
X64920Y242120D01*
X64800Y241660D01*
X64450Y241370D01*
X64040Y241190D01*
X62580D01*
G01X64040D02*
X64920Y239500D01*
G01X67750D02*
Y243000D01*
X67050Y242300D01*
G01Y239500D02*
X68450D01*
G01X71750Y243000D02*
X71280Y242880D01*
X70930Y242590D01*
X70700Y242240D01*
X70520Y241770D01*
X70470Y241250D01*
X70520Y240720D01*
X70700Y240260D01*
X70930Y239910D01*
X71280Y239620D01*
X71750Y239500D01*
X72220Y239620D01*
X72570Y239910D01*
X72800Y240260D01*
X72980Y240720D01*
X73030Y241250D01*
X72980Y241770D01*
X72800Y242240D01*
X72570Y242590D01*
X72220Y242880D01*
X71750Y243000D01*
G01X62580Y247000D02*
Y250500D01*
X64040D01*
X64510Y250320D01*
X64800Y250090D01*
X64920Y249620D01*
X64800Y249160D01*
X64450Y248870D01*
X64040Y248690D01*
X62580D01*
G01X64040D02*
X64920Y247000D01*
G01X67750D02*
Y250500D01*
X67050Y249800D01*
G01Y247000D02*
X68450D01*
G01X71750D02*
Y250500D01*
X71050Y249800D01*
G01Y247000D02*
X72450D01*
G01X70970Y69500D02*
Y66990D01*
X71200Y66470D01*
X71670Y66120D01*
X72250Y66000D01*
X72830Y66120D01*
X73300Y66470D01*
X73530Y66990D01*
Y69500D01*
G01X76130Y66000D02*
X76250Y66760D01*
X76430Y67400D01*
X76660Y67980D01*
X76950Y68620D01*
X77420Y69500D01*
X75080D01*
G01X68610Y384410D02*
X68260Y384580D01*
X67860Y384700D01*
X67390D01*
X66860Y384520D01*
X66460Y384230D01*
X66160Y383880D01*
X65930Y383300D01*
X65870Y382770D01*
X65990Y382250D01*
X66160Y381900D01*
X66510Y381550D01*
X66920Y381320D01*
X67330Y381200D01*
X67740D01*
X68150Y381320D01*
X68500Y381490D01*
X68790Y381720D01*
G01X71330Y381200D02*
X71740Y381260D01*
X72200Y381430D01*
X72500Y381720D01*
X72610Y382130D01*
X72500Y382540D01*
X72150Y382890D01*
X71620Y383070D01*
X71040D01*
X70690Y383180D01*
X70400Y383470D01*
X70280Y383880D01*
X70460Y384290D01*
X70860Y384580D01*
X71330Y384700D01*
X71800Y384580D01*
X72200Y384290D01*
X72380Y383880D01*
X72260Y383470D01*
X71970Y383180D01*
X71620Y383070D01*
X71040D01*
X70510Y382890D01*
X70160Y382540D01*
X70050Y382130D01*
X70160Y381720D01*
X70460Y381430D01*
X70920Y381260D01*
X71330Y381200D01*
G01X77970Y63500D02*
Y60990D01*
X78200Y60470D01*
X78670Y60120D01*
X79250Y60000D01*
X79830Y60120D01*
X80300Y60470D01*
X80530Y60990D01*
Y63500D01*
G01X82140Y61460D02*
X82550Y61870D01*
X82900Y62100D01*
X83370Y62220D01*
X83780Y62100D01*
X84070Y61870D01*
X84300Y61520D01*
X84360Y61110D01*
X84300Y60760D01*
X84070Y60410D01*
X83720Y60120D01*
X83310Y60000D01*
X82840Y60120D01*
X82430Y60470D01*
X82200Y60990D01*
X82140Y61570D01*
X82260Y62330D01*
X82430Y62740D01*
X82720Y63150D01*
X83130Y63440D01*
X83540Y63500D01*
X83950Y63380D01*
X84240Y63090D01*
G01X83080Y89500D02*
Y93000D01*
X84540D01*
X85010Y92820D01*
X85300Y92590D01*
X85420Y92120D01*
X85300Y91660D01*
X84950Y91370D01*
X84540Y91190D01*
X83080D01*
G01X84540D02*
X85420Y89500D01*
G01X86970Y90200D02*
X87320Y89790D01*
X87780Y89560D01*
X88310Y89500D01*
X88780Y89560D01*
X89240Y89850D01*
X89530Y90200D01*
X89590Y90550D01*
X89480Y90960D01*
X89070Y91250D01*
X88660Y91370D01*
X88130D01*
G01X88660D02*
X89010Y91540D01*
X89300Y91830D01*
X89420Y92180D01*
X89300Y92530D01*
X89010Y92820D01*
X88480Y93000D01*
X87960Y92940D01*
X87430Y92710D01*
G01X91140Y92420D02*
X91490Y92770D01*
X91900Y92940D01*
X92370Y93000D01*
X92950Y92880D01*
X93360Y92590D01*
X93480Y92240D01*
X93420Y91890D01*
X93180Y91600D01*
X92020Y91020D01*
X91490Y90610D01*
X91140Y90020D01*
X91020Y89500D01*
X93480D01*
G01X86250Y3500D02*
X85780Y3560D01*
X85380Y3790D01*
X85020Y4140D01*
X84790Y4550D01*
X84670Y5020D01*
Y5480D01*
X84790Y5950D01*
X85020Y6360D01*
X85380Y6710D01*
X85780Y6940D01*
X86250Y7000D01*
X86720Y6940D01*
X87120Y6710D01*
X87480Y6360D01*
X87710Y5950D01*
X87830Y5480D01*
Y5020D01*
X87710Y4550D01*
X87480Y4140D01*
X87120Y3790D01*
X86720Y3560D01*
X86250Y3500D01*
G01X86720Y4430D02*
X87420Y3500D01*
G01X89140Y4960D02*
X89550Y5370D01*
X89900Y5600D01*
X90370Y5720D01*
X90780Y5600D01*
X91070Y5370D01*
X91300Y5020D01*
X91360Y4610D01*
X91300Y4260D01*
X91070Y3910D01*
X90720Y3620D01*
X90310Y3500D01*
X89840Y3620D01*
X89430Y3970D01*
X89200Y4490D01*
X89140Y5070D01*
X89260Y5830D01*
X89430Y6240D01*
X89720Y6650D01*
X90130Y6940D01*
X90540Y7000D01*
X90950Y6880D01*
X91240Y6590D01*
G01X106000Y20580D02*
X102500D01*
Y22040D01*
X102680Y22510D01*
X102910Y22800D01*
X103380Y22920D01*
X103840Y22800D01*
X104130Y22450D01*
X104310Y22040D01*
Y20580D01*
G01Y22040D02*
X106000Y22920D01*
G01X103080Y24640D02*
X102730Y24990D01*
X102560Y25400D01*
X102500Y25870D01*
X102620Y26450D01*
X102910Y26860D01*
X103260Y26980D01*
X103610Y26920D01*
X103900Y26680D01*
X104480Y25520D01*
X104890Y24990D01*
X105480Y24640D01*
X106000Y24520D01*
Y26980D01*
G01X103080Y28640D02*
X102730Y28990D01*
X102560Y29400D01*
X102500Y29870D01*
X102620Y30450D01*
X102910Y30860D01*
X103260Y30980D01*
X103610Y30920D01*
X103900Y30680D01*
X104480Y29520D01*
X104890Y28990D01*
X105480Y28640D01*
X106000Y28520D01*
Y30980D01*
G01X99500Y21080D02*
X96000D01*
Y22540D01*
X96180Y23010D01*
X96410Y23300D01*
X96880Y23420D01*
X97340Y23300D01*
X97630Y22950D01*
X97810Y22540D01*
Y21080D01*
G01Y22540D02*
X99500Y23420D01*
G01X96580Y25140D02*
X96230Y25490D01*
X96060Y25900D01*
X96000Y26370D01*
X96120Y26950D01*
X96410Y27360D01*
X96760Y27480D01*
X97110Y27420D01*
X97400Y27180D01*
X97980Y26020D01*
X98390Y25490D01*
X98980Y25140D01*
X99500Y25020D01*
Y27480D01*
G01X98980Y28970D02*
X99270Y29320D01*
X99440Y29720D01*
X99500Y30250D01*
X99380Y30780D01*
X99150Y31180D01*
X98740Y31480D01*
X98280Y31530D01*
X97810Y31420D01*
X97520Y31120D01*
X97280Y30720D01*
X97230Y30310D01*
X97280Y29900D01*
X97520Y29380D01*
X96000Y29550D01*
Y31120D01*
G01X101530Y50210D02*
X101180Y50380D01*
X100780Y50500D01*
X100310D01*
X99780Y50320D01*
X99380Y50030D01*
X99080Y49680D01*
X98850Y49100D01*
X98790Y48570D01*
X98910Y48050D01*
X99080Y47700D01*
X99430Y47350D01*
X99840Y47120D01*
X100250Y47000D01*
X100660D01*
X101070Y47120D01*
X101420Y47290D01*
X101710Y47520D01*
G01X103140Y49920D02*
X103490Y50270D01*
X103900Y50440D01*
X104370Y50500D01*
X104950Y50380D01*
X105360Y50090D01*
X105480Y49740D01*
X105420Y49390D01*
X105180Y49100D01*
X104020Y48520D01*
X103490Y48110D01*
X103140Y47520D01*
X103020Y47000D01*
X105480D01*
G01X97580Y90000D02*
Y93500D01*
X99040D01*
X99510Y93320D01*
X99800Y93090D01*
X99920Y92620D01*
X99800Y92160D01*
X99450Y91870D01*
X99040Y91690D01*
X97580D01*
G01X99040D02*
X99920Y90000D01*
G01X101470Y90700D02*
X101820Y90290D01*
X102280Y90060D01*
X102810Y90000D01*
X103280Y90060D01*
X103740Y90350D01*
X104030Y90700D01*
X104090Y91050D01*
X103980Y91460D01*
X103570Y91750D01*
X103160Y91870D01*
X102630D01*
G01X103160D02*
X103510Y92040D01*
X103800Y92330D01*
X103920Y92680D01*
X103800Y93030D01*
X103510Y93320D01*
X102980Y93500D01*
X102460Y93440D01*
X101930Y93210D01*
G01X107450Y90000D02*
Y93500D01*
X105290Y90990D01*
X108210D01*
G01X112280Y18700D02*
Y15200D01*
X114620D01*
G01X118620D02*
X116280D01*
Y18700D01*
X118620D01*
G01X117680Y17010D02*
X116280D01*
G01X120170Y15200D02*
Y18700D01*
X121330D01*
X121800Y18520D01*
X122150Y18290D01*
X122440Y17940D01*
X122680Y17530D01*
X122730Y16950D01*
X122680Y16370D01*
X122440Y15960D01*
X122150Y15610D01*
X121800Y15370D01*
X121330Y15200D01*
X120170D01*
G01X125450D02*
Y18700D01*
X124750Y18000D01*
G01Y15200D02*
X126150D01*
G01X114400Y10750D02*
X115570D01*
Y9700D01*
X115220Y9350D01*
X114810Y9120D01*
X114230Y9000D01*
X113640Y9120D01*
X113230Y9350D01*
X112880Y9700D01*
X112650Y10110D01*
X112530Y10570D01*
Y10980D01*
X112650Y11330D01*
X112880Y11740D01*
X113230Y12090D01*
X113580Y12320D01*
X114050Y12500D01*
X114460D01*
X114920Y12380D01*
X115280Y12150D01*
G01X118050Y9000D02*
Y12500D01*
X117350Y11800D01*
G01Y9000D02*
X118750D01*
G01X120770Y9700D02*
X121120Y9290D01*
X121580Y9060D01*
X122110Y9000D01*
X122580Y9060D01*
X123040Y9350D01*
X123330Y9700D01*
X123390Y10050D01*
X123280Y10460D01*
X122870Y10750D01*
X122460Y10870D01*
X121930D01*
G01X122460D02*
X122810Y11040D01*
X123100Y11330D01*
X123220Y11680D01*
X123100Y12030D01*
X122810Y12320D01*
X122280Y12500D01*
X121760Y12440D01*
X121230Y12210D01*
G01X140580Y2000D02*
Y5500D01*
X142040D01*
X142510Y5320D01*
X142800Y5090D01*
X142920Y4620D01*
X142800Y4160D01*
X142450Y3870D01*
X142040Y3690D01*
X140580D01*
G01X142040D02*
X142920Y2000D01*
G01X144640Y4920D02*
X144990Y5270D01*
X145400Y5440D01*
X145870Y5500D01*
X146450Y5380D01*
X146860Y5090D01*
X146980Y4740D01*
X146920Y4390D01*
X146680Y4100D01*
X145520Y3520D01*
X144990Y3110D01*
X144640Y2520D01*
X144520Y2000D01*
X146980D01*
G01X149750Y5500D02*
X149280Y5380D01*
X148930Y5090D01*
X148700Y4740D01*
X148520Y4270D01*
X148470Y3750D01*
X148520Y3220D01*
X148700Y2760D01*
X148930Y2410D01*
X149280Y2120D01*
X149750Y2000D01*
X150220Y2120D01*
X150570Y2410D01*
X150800Y2760D01*
X150980Y3220D01*
X151030Y3750D01*
X150980Y4270D01*
X150800Y4740D01*
X150570Y5090D01*
X150220Y5380D01*
X149750Y5500D01*
G01X141970Y21000D02*
Y24500D01*
X143130D01*
X143600Y24320D01*
X143950Y24090D01*
X144240Y23740D01*
X144480Y23330D01*
X144530Y22750D01*
X144480Y22170D01*
X144240Y21760D01*
X143950Y21410D01*
X143600Y21170D01*
X143130Y21000D01*
X141970D01*
G01X147950D02*
Y24500D01*
X145790Y21990D01*
X148710D01*
G01X155750Y2500D02*
X155280Y2560D01*
X154880Y2790D01*
X154520Y3140D01*
X154290Y3550D01*
X154170Y4020D01*
Y4480D01*
X154290Y4950D01*
X154520Y5360D01*
X154880Y5710D01*
X155280Y5940D01*
X155750Y6000D01*
X156220Y5940D01*
X156620Y5710D01*
X156980Y5360D01*
X157210Y4950D01*
X157330Y4480D01*
Y4020D01*
X157210Y3550D01*
X156980Y3140D01*
X156620Y2790D01*
X156220Y2560D01*
X155750Y2500D01*
G01X156220Y3430D02*
X156920Y2500D01*
G01X159630D02*
X159750Y3260D01*
X159930Y3900D01*
X160160Y4480D01*
X160450Y5120D01*
X160920Y6000D01*
X158580D01*
G01X168500Y20580D02*
X165000D01*
Y22040D01*
X165180Y22510D01*
X165410Y22800D01*
X165880Y22920D01*
X166340Y22800D01*
X166630Y22450D01*
X166810Y22040D01*
Y20580D01*
G01Y22040D02*
X168500Y22920D01*
G01X165580Y24640D02*
X165230Y24990D01*
X165060Y25400D01*
X165000Y25870D01*
X165120Y26450D01*
X165410Y26860D01*
X165760Y26980D01*
X166110Y26920D01*
X166400Y26680D01*
X166980Y25520D01*
X167390Y24990D01*
X167980Y24640D01*
X168500Y24520D01*
Y26980D01*
G01X167040Y28640D02*
X166630Y29050D01*
X166400Y29400D01*
X166280Y29870D01*
X166400Y30280D01*
X166630Y30570D01*
X166980Y30800D01*
X167390Y30860D01*
X167740Y30800D01*
X168090Y30570D01*
X168380Y30220D01*
X168500Y29810D01*
X168380Y29340D01*
X168030Y28930D01*
X167510Y28700D01*
X166930Y28640D01*
X166170Y28760D01*
X165760Y28930D01*
X165350Y29220D01*
X165060Y29630D01*
X165000Y30040D01*
X165120Y30450D01*
X165410Y30740D01*
G01X179780Y19300D02*
Y15800D01*
X182120D01*
G01X186120D02*
X183780D01*
Y19300D01*
X186120D01*
G01X185180Y17610D02*
X183780D01*
G01X187670Y15800D02*
Y19300D01*
X188830D01*
X189300Y19120D01*
X189650Y18890D01*
X189940Y18540D01*
X190180Y18130D01*
X190230Y17550D01*
X190180Y16970D01*
X189940Y16560D01*
X189650Y16210D01*
X189300Y15970D01*
X188830Y15800D01*
X187670D01*
G01X191840Y18720D02*
X192190Y19070D01*
X192600Y19240D01*
X193070Y19300D01*
X193650Y19180D01*
X194060Y18890D01*
X194180Y18540D01*
X194120Y18190D01*
X193880Y17900D01*
X192720Y17320D01*
X192190Y16910D01*
X191840Y16320D01*
X191720Y15800D01*
X194180D01*
G01X181300Y11650D02*
X182470D01*
Y10600D01*
X182120Y10250D01*
X181710Y10020D01*
X181130Y9900D01*
X180540Y10020D01*
X180130Y10250D01*
X179780Y10600D01*
X179550Y11010D01*
X179430Y11470D01*
Y11880D01*
X179550Y12230D01*
X179780Y12640D01*
X180130Y12990D01*
X180480Y13220D01*
X180950Y13400D01*
X181360D01*
X181820Y13280D01*
X182180Y13050D01*
G01X183670Y10600D02*
X184020Y10190D01*
X184480Y9960D01*
X185010Y9900D01*
X185480Y9960D01*
X185940Y10250D01*
X186230Y10600D01*
X186290Y10950D01*
X186180Y11360D01*
X185770Y11650D01*
X185360Y11770D01*
X184830D01*
G01X185360D02*
X185710Y11940D01*
X186000Y12230D01*
X186120Y12580D01*
X186000Y12930D01*
X185710Y13220D01*
X185180Y13400D01*
X184660Y13340D01*
X184130Y13110D01*
G01X188950Y9900D02*
Y13400D01*
X188250Y12700D01*
G01Y9900D02*
X189650D01*
G01X176000Y20580D02*
X172500D01*
Y22040D01*
X172680Y22510D01*
X172910Y22800D01*
X173380Y22920D01*
X173840Y22800D01*
X174130Y22450D01*
X174310Y22040D01*
Y20580D01*
G01Y22040D02*
X176000Y22920D01*
G01X173080Y24640D02*
X172730Y24990D01*
X172560Y25400D01*
X172500Y25870D01*
X172620Y26450D01*
X172910Y26860D01*
X173260Y26980D01*
X173610Y26920D01*
X173900Y26680D01*
X174480Y25520D01*
X174890Y24990D01*
X175480Y24640D01*
X176000Y24520D01*
Y26980D01*
G01X175300Y28470D02*
X175710Y28820D01*
X175940Y29280D01*
X176000Y29810D01*
X175940Y30280D01*
X175650Y30740D01*
X175300Y31030D01*
X174950Y31090D01*
X174540Y30980D01*
X174250Y30570D01*
X174130Y30160D01*
Y29630D01*
G01Y30160D02*
X173960Y30510D01*
X173670Y30800D01*
X173320Y30920D01*
X172970Y30800D01*
X172680Y30510D01*
X172500Y29980D01*
X172560Y29460D01*
X172790Y28930D01*
G01X193330Y392380D02*
Y389870D01*
X193560Y389350D01*
X194030Y389000D01*
X194610Y388880D01*
X195190Y389000D01*
X195660Y389350D01*
X195890Y389870D01*
Y392380D01*
G01X197330Y389400D02*
X197680Y389110D01*
X198080Y388940D01*
X198610Y388880D01*
X199140Y389000D01*
X199540Y389230D01*
X199840Y389640D01*
X199890Y390100D01*
X199780Y390570D01*
X199480Y390860D01*
X199080Y391100D01*
X198670Y391150D01*
X198260Y391100D01*
X197740Y390860D01*
X197910Y392380D01*
X199480D01*
G01X209080Y2500D02*
Y6000D01*
X210540D01*
X211010Y5820D01*
X211300Y5590D01*
X211420Y5120D01*
X211300Y4660D01*
X210950Y4370D01*
X210540Y4190D01*
X209080D01*
G01X210540D02*
X211420Y2500D01*
G01X214250D02*
Y6000D01*
X213550Y5300D01*
G01Y2500D02*
X214950D01*
G01X218250D02*
X218660Y2560D01*
X219120Y2730D01*
X219420Y3020D01*
X219530Y3430D01*
X219420Y3840D01*
X219070Y4190D01*
X218540Y4370D01*
X217960D01*
X217610Y4480D01*
X217320Y4770D01*
X217200Y5180D01*
X217380Y5590D01*
X217780Y5880D01*
X218250Y6000D01*
X218720Y5880D01*
X219120Y5590D01*
X219300Y5180D01*
X219180Y4770D01*
X218890Y4480D01*
X218540Y4370D01*
X217960D01*
X217430Y4190D01*
X217080Y3840D01*
X216970Y3430D01*
X217080Y3020D01*
X217380Y2730D01*
X217840Y2560D01*
X218250Y2500D01*
G01X202220Y239270D02*
X202450Y239440D01*
X202620Y239730D01*
X202740Y240140D01*
X202620Y240490D01*
X202390Y240720D01*
X201980Y240900D01*
X200410D01*
Y237400D01*
X202330D01*
X202740Y237630D01*
X202980Y237980D01*
X203090Y238390D01*
X202980Y238800D01*
X202620Y239150D01*
X202220Y239270D01*
X200410D01*
G01X205750Y237400D02*
X205400Y237460D01*
X205050Y237690D01*
X204820Y238100D01*
X204700Y238570D01*
X204820Y239030D01*
X205050Y239440D01*
X205400Y239670D01*
X205750Y239730D01*
X206100Y239670D01*
X206450Y239440D01*
X206680Y239030D01*
X206740Y238570D01*
X206680Y238100D01*
X206450Y237690D01*
X206100Y237460D01*
X205750Y237400D01*
G01X210800D02*
Y239730D01*
G01Y239330D02*
X210570Y239560D01*
X210220Y239670D01*
X209810Y239730D01*
X209400Y239620D01*
X209050Y239380D01*
X208820Y239030D01*
X208700Y238570D01*
X208820Y238100D01*
X209050Y237750D01*
X209400Y237520D01*
X209810Y237400D01*
X210220Y237460D01*
X210570Y237630D01*
X210800Y237870D01*
G01X212930Y237400D02*
Y239730D01*
G01Y239270D02*
X213220Y239500D01*
X213520Y239670D01*
X213930Y239730D01*
X214220Y239670D01*
X214570Y239500D01*
G01X218800Y240900D02*
Y237400D01*
G01Y237920D02*
X218570Y237630D01*
X218220Y237460D01*
X217810Y237400D01*
X217340Y237520D01*
X216990Y237810D01*
X216760Y238160D01*
X216700Y238570D01*
X216760Y238970D01*
X216990Y239330D01*
X217340Y239620D01*
X217810Y239730D01*
X218220Y239670D01*
X218510Y239560D01*
X218800Y239330D01*
G01X220000Y236230D02*
X223500D01*
G01X224930Y237400D02*
Y239730D01*
G01Y239270D02*
X225220Y239500D01*
X225520Y239670D01*
X225930Y239730D01*
X226220Y239670D01*
X226570Y239500D01*
G01X228880Y238970D02*
X230740D01*
X230570Y239380D01*
X230280Y239620D01*
X229870Y239730D01*
X229460Y239670D01*
X229110Y239500D01*
X228880Y239090D01*
X228760Y238740D01*
Y238390D01*
X228880Y238040D01*
X229170Y237690D01*
X229520Y237460D01*
X229930Y237400D01*
X230330Y237520D01*
X230740Y237870D01*
G01X232880Y237810D02*
X233170Y237570D01*
X233570Y237400D01*
X233930D01*
X234280Y237520D01*
X234510Y237690D01*
X234620Y237920D01*
X234570Y238280D01*
X234330Y238450D01*
X233280Y238800D01*
X233050Y239210D01*
X233170Y239500D01*
X233400Y239670D01*
X233750Y239730D01*
X234100Y239670D01*
X234450Y239500D01*
G01X236880Y238970D02*
X238740D01*
X238570Y239380D01*
X238280Y239620D01*
X237870Y239730D01*
X237460Y239670D01*
X237110Y239500D01*
X236880Y239090D01*
X236760Y238740D01*
Y238390D01*
X236880Y238040D01*
X237170Y237690D01*
X237520Y237460D01*
X237930Y237400D01*
X238330Y237520D01*
X238740Y237870D01*
G01X241750Y240900D02*
Y237400D01*
G01X240930Y239730D02*
X242570D01*
G01X248880Y238970D02*
X250740D01*
X250570Y239380D01*
X250280Y239620D01*
X249870Y239730D01*
X249460Y239670D01*
X249110Y239500D01*
X248880Y239090D01*
X248760Y238740D01*
Y238390D01*
X248880Y238040D01*
X249170Y237690D01*
X249520Y237460D01*
X249930Y237400D01*
X250330Y237520D01*
X250740Y237870D01*
G01X252760Y237400D02*
Y239730D01*
G01Y239150D02*
X252990Y239440D01*
X253340Y239670D01*
X253810Y239730D01*
X254220Y239670D01*
X254570Y239440D01*
X254740Y239030D01*
Y237400D01*
G01X258800D02*
Y239730D01*
G01Y239330D02*
X258570Y239560D01*
X258220Y239670D01*
X257810Y239730D01*
X257400Y239620D01*
X257050Y239380D01*
X256820Y239030D01*
X256700Y238570D01*
X256820Y238100D01*
X257050Y237750D01*
X257400Y237520D01*
X257810Y237400D01*
X258220Y237460D01*
X258570Y237630D01*
X258800Y237870D01*
G01X260700Y237400D02*
Y240900D01*
G01Y239150D02*
X260990Y239500D01*
X261340Y239670D01*
X261690Y239730D01*
X262220Y239620D01*
X262570Y239380D01*
X262800Y238970D01*
Y238510D01*
X262680Y238040D01*
X262450Y237690D01*
X262040Y237460D01*
X261690Y237400D01*
X261340Y237460D01*
X260990Y237630D01*
X260700Y237920D01*
G01X265750Y237400D02*
Y240900D01*
G01X268880Y238970D02*
X270740D01*
X270570Y239380D01*
X270280Y239620D01*
X269870Y239730D01*
X269460Y239670D01*
X269110Y239500D01*
X268880Y239090D01*
X268760Y238740D01*
Y238390D01*
X268880Y238040D01*
X269170Y237690D01*
X269520Y237460D01*
X269930Y237400D01*
X270330Y237520D01*
X270740Y237870D01*
G01X203750Y269500D02*
X203280Y269560D01*
X202880Y269790D01*
X202520Y270140D01*
X202290Y270550D01*
X202170Y271020D01*
Y271480D01*
X202290Y271950D01*
X202520Y272360D01*
X202880Y272710D01*
X203280Y272940D01*
X203750Y273000D01*
X204220Y272940D01*
X204620Y272710D01*
X204980Y272360D01*
X205210Y271950D01*
X205330Y271480D01*
Y271020D01*
X205210Y270550D01*
X204980Y270140D01*
X204620Y269790D01*
X204220Y269560D01*
X203750Y269500D01*
G01X206640D02*
Y273000D01*
X208860D01*
G01X208040Y271310D02*
X206640D01*
G01X210640Y269500D02*
Y273000D01*
X212860D01*
G01X212040Y271310D02*
X210640D01*
G01X205250Y282000D02*
X204780Y282060D01*
X204380Y282290D01*
X204020Y282640D01*
X203790Y283050D01*
X203670Y283520D01*
Y283980D01*
X203790Y284450D01*
X204020Y284860D01*
X204380Y285210D01*
X204780Y285440D01*
X205250Y285500D01*
X205720Y285440D01*
X206120Y285210D01*
X206480Y284860D01*
X206710Y284450D01*
X206830Y283980D01*
Y283520D01*
X206710Y283050D01*
X206480Y282640D01*
X206120Y282290D01*
X205720Y282060D01*
X205250Y282000D01*
G01X207910D02*
Y285500D01*
X210590Y282000D01*
Y285500D01*
G01X210250Y296500D02*
Y300000D01*
X209550Y299300D01*
G01Y296500D02*
X210950D01*
G01X226250D02*
X225780Y296560D01*
X225380Y296790D01*
X225020Y297140D01*
X224790Y297550D01*
X224670Y298020D01*
Y298480D01*
X224790Y298950D01*
X225020Y299360D01*
X225380Y299710D01*
X225780Y299940D01*
X226250Y300000D01*
X226720Y299940D01*
X227120Y299710D01*
X227480Y299360D01*
X227710Y298950D01*
X227830Y298480D01*
Y298020D01*
X227710Y297550D01*
X227480Y297140D01*
X227120Y296790D01*
X226720Y296560D01*
X226250Y296500D01*
G01X228910D02*
Y300000D01*
X231590Y296500D01*
Y300000D01*
G01X250250Y296500D02*
X249780Y296560D01*
X249380Y296790D01*
X249020Y297140D01*
X248790Y297550D01*
X248670Y298020D01*
Y298480D01*
X248790Y298950D01*
X249020Y299360D01*
X249380Y299710D01*
X249780Y299940D01*
X250250Y300000D01*
X250720Y299940D01*
X251120Y299710D01*
X251480Y299360D01*
X251710Y298950D01*
X251830Y298480D01*
Y298020D01*
X251710Y297550D01*
X251480Y297140D01*
X251120Y296790D01*
X250720Y296560D01*
X250250Y296500D01*
G01X253140D02*
Y300000D01*
X255360D01*
G01X254540Y298310D02*
X253140D01*
G01X257140Y296500D02*
Y300000D01*
X259360D01*
G01X258540Y298310D02*
X257140D01*
G01X202640Y295420D02*
X202990Y295770D01*
X203400Y295940D01*
X203870Y296000D01*
X204450Y295880D01*
X204860Y295590D01*
X204980Y295240D01*
X204920Y294890D01*
X204680Y294600D01*
X203520Y294020D01*
X202990Y293610D01*
X202640Y293020D01*
X202520Y292500D01*
X204980D01*
G01X210970Y21000D02*
Y24500D01*
X212130D01*
X212600Y24320D01*
X212950Y24090D01*
X213240Y23740D01*
X213480Y23330D01*
X213530Y22750D01*
X213480Y22170D01*
X213240Y21760D01*
X212950Y21410D01*
X212600Y21170D01*
X212130Y21000D01*
X210970D01*
G01X215140Y23920D02*
X215490Y24270D01*
X215900Y24440D01*
X216370Y24500D01*
X216950Y24380D01*
X217360Y24090D01*
X217480Y23740D01*
X217420Y23390D01*
X217180Y23100D01*
X216020Y22520D01*
X215490Y22110D01*
X215140Y21520D01*
X215020Y21000D01*
X217480D01*
G01X219230Y283000D02*
Y286500D01*
X220750Y283580D01*
X222270Y286500D01*
Y283000D01*
G01X224630Y282360D02*
X224870Y283120D01*
G01X227520Y283470D02*
X227990Y283170D01*
X228520Y283000D01*
X228980D01*
X229450Y283170D01*
X229800Y283470D01*
X229980Y283880D01*
X229860Y284280D01*
X229570Y284630D01*
X229040Y284870D01*
X228340Y284980D01*
X227930Y285220D01*
X227760Y285620D01*
X227880Y286030D01*
X228170Y286320D01*
X228570Y286500D01*
X228980D01*
X229390Y286380D01*
X229740Y286090D01*
G01X231000Y286500D02*
X231820Y283000D01*
X232750Y286500D01*
X233680Y283000D01*
X234500Y286500D01*
G01X224750Y2500D02*
X224280Y2560D01*
X223880Y2790D01*
X223520Y3140D01*
X223290Y3550D01*
X223170Y4020D01*
Y4480D01*
X223290Y4950D01*
X223520Y5360D01*
X223880Y5710D01*
X224280Y5940D01*
X224750Y6000D01*
X225220Y5940D01*
X225620Y5710D01*
X225980Y5360D01*
X226210Y4950D01*
X226330Y4480D01*
Y4020D01*
X226210Y3550D01*
X225980Y3140D01*
X225620Y2790D01*
X225220Y2560D01*
X224750Y2500D01*
G01X225220Y3430D02*
X225920Y2500D01*
G01X227470Y3020D02*
X227820Y2730D01*
X228220Y2560D01*
X228750Y2500D01*
X229280Y2620D01*
X229680Y2850D01*
X229980Y3260D01*
X230030Y3720D01*
X229920Y4190D01*
X229620Y4480D01*
X229220Y4720D01*
X228810Y4770D01*
X228400Y4720D01*
X227880Y4480D01*
X228050Y6000D01*
X229620D01*
G01X219730Y271500D02*
Y275000D01*
X221250Y272080D01*
X222770Y275000D01*
Y271500D01*
G01X225130Y270860D02*
X225370Y271620D01*
G01X228020Y271500D02*
Y275000D01*
G01X230480D02*
Y271500D01*
G01Y273250D02*
X228020D01*
G01X231500Y275000D02*
X232320Y271500D01*
X233250Y275000D01*
X234180Y271500D01*
X235000Y275000D01*
G01X238000Y20580D02*
X234500D01*
Y22040D01*
X234680Y22510D01*
X234910Y22800D01*
X235380Y22920D01*
X235840Y22800D01*
X236130Y22450D01*
X236310Y22040D01*
Y20580D01*
G01Y22040D02*
X238000Y22920D01*
G01X235080Y24640D02*
X234730Y24990D01*
X234560Y25400D01*
X234500Y25870D01*
X234620Y26450D01*
X234910Y26860D01*
X235260Y26980D01*
X235610Y26920D01*
X235900Y26680D01*
X236480Y25520D01*
X236890Y24990D01*
X237480Y24640D01*
X238000Y24520D01*
Y26980D01*
G01Y30450D02*
X234500D01*
X237010Y28290D01*
Y31210D01*
G01X233790Y36530D02*
X233620Y36180D01*
X233500Y35780D01*
Y35310D01*
X233680Y34780D01*
X233970Y34380D01*
X234320Y34080D01*
X234900Y33850D01*
X235430Y33790D01*
X235950Y33910D01*
X236300Y34080D01*
X236650Y34430D01*
X236880Y34840D01*
X237000Y35250D01*
Y35660D01*
X236880Y36070D01*
X236710Y36420D01*
X236480Y36710D01*
G01X235540Y38140D02*
X235130Y38550D01*
X234900Y38900D01*
X234780Y39370D01*
X234900Y39780D01*
X235130Y40070D01*
X235480Y40300D01*
X235890Y40360D01*
X236240Y40300D01*
X236590Y40070D01*
X236880Y39720D01*
X237000Y39310D01*
X236880Y38840D01*
X236530Y38430D01*
X236010Y38200D01*
X235430Y38140D01*
X234670Y38260D01*
X234260Y38430D01*
X233850Y38720D01*
X233560Y39130D01*
X233500Y39540D01*
X233620Y39950D01*
X233910Y40240D01*
G01X248180Y18700D02*
Y15200D01*
X250520D01*
G01X254520D02*
X252180D01*
Y18700D01*
X254520D01*
G01X253580Y17010D02*
X252180D01*
G01X256070Y15200D02*
Y18700D01*
X257230D01*
X257700Y18520D01*
X258050Y18290D01*
X258340Y17940D01*
X258580Y17530D01*
X258630Y16950D01*
X258580Y16370D01*
X258340Y15960D01*
X258050Y15610D01*
X257700Y15370D01*
X257230Y15200D01*
X256070D01*
G01X260070Y15900D02*
X260420Y15490D01*
X260880Y15260D01*
X261410Y15200D01*
X261880Y15260D01*
X262340Y15550D01*
X262630Y15900D01*
X262690Y16250D01*
X262580Y16660D01*
X262170Y16950D01*
X261760Y17070D01*
X261230D01*
G01X261760D02*
X262110Y17240D01*
X262400Y17530D01*
X262520Y17880D01*
X262400Y18230D01*
X262110Y18520D01*
X261580Y18700D01*
X261060Y18640D01*
X260530Y18410D01*
G01X249700Y11050D02*
X250870D01*
Y10000D01*
X250520Y9650D01*
X250110Y9420D01*
X249530Y9300D01*
X248940Y9420D01*
X248530Y9650D01*
X248180Y10000D01*
X247950Y10410D01*
X247830Y10870D01*
Y11280D01*
X247950Y11630D01*
X248180Y12040D01*
X248530Y12390D01*
X248880Y12620D01*
X249350Y12800D01*
X249760D01*
X250220Y12680D01*
X250580Y12450D01*
G01X252240Y12220D02*
X252590Y12570D01*
X253000Y12740D01*
X253470Y12800D01*
X254050Y12680D01*
X254460Y12390D01*
X254580Y12040D01*
X254520Y11690D01*
X254280Y11400D01*
X253120Y10820D01*
X252590Y10410D01*
X252240Y9820D01*
X252120Y9300D01*
X254580D01*
G01X256240Y12220D02*
X256590Y12570D01*
X257000Y12740D01*
X257470Y12800D01*
X258050Y12680D01*
X258460Y12390D01*
X258580Y12040D01*
X258520Y11690D01*
X258280Y11400D01*
X257120Y10820D01*
X256590Y10410D01*
X256240Y9820D01*
X256120Y9300D01*
X258580D01*
G01X244500Y20580D02*
X241000D01*
Y22040D01*
X241180Y22510D01*
X241410Y22800D01*
X241880Y22920D01*
X242340Y22800D01*
X242630Y22450D01*
X242810Y22040D01*
Y20580D01*
G01Y22040D02*
X244500Y22920D01*
G01X241580Y24640D02*
X241230Y24990D01*
X241060Y25400D01*
X241000Y25870D01*
X241120Y26450D01*
X241410Y26860D01*
X241760Y26980D01*
X242110Y26920D01*
X242400Y26680D01*
X242980Y25520D01*
X243390Y24990D01*
X243980Y24640D01*
X244500Y24520D01*
Y26980D01*
G01Y29750D02*
X241000D01*
X241700Y29050D01*
G01X244500D02*
Y30450D01*
G01X243970Y60000D02*
Y57490D01*
X244200Y56970D01*
X244670Y56620D01*
X245250Y56500D01*
X245830Y56620D01*
X246300Y56970D01*
X246530Y57490D01*
Y60000D01*
G01X248260Y56910D02*
X248670Y56620D01*
X249130Y56500D01*
X249600Y56620D01*
X250010Y56970D01*
X250300Y57490D01*
X250420Y58020D01*
Y58660D01*
X250300Y59180D01*
X250010Y59650D01*
X249660Y59880D01*
X249250Y60000D01*
X248780Y59880D01*
X248430Y59650D01*
X248200Y59300D01*
X248080Y58830D01*
X248200Y58430D01*
X248490Y58020D01*
X248840Y57780D01*
X249250Y57720D01*
X249720Y57840D01*
X250070Y58130D01*
X250420Y58660D01*
G01X246000Y74580D02*
X242500D01*
Y76040D01*
X242680Y76510D01*
X242910Y76800D01*
X243380Y76920D01*
X243840Y76800D01*
X244130Y76450D01*
X244310Y76040D01*
Y74580D01*
G01Y76040D02*
X246000Y76920D01*
G01Y79750D02*
X242500D01*
X243200Y79050D01*
G01X246000D02*
Y80450D01*
G01Y84450D02*
X242500D01*
X245010Y82290D01*
Y85210D01*
G01X248080Y95500D02*
Y99000D01*
X249540D01*
X250010Y98820D01*
X250300Y98590D01*
X250420Y98120D01*
X250300Y97660D01*
X249950Y97370D01*
X249540Y97190D01*
X248080D01*
G01X249540D02*
X250420Y95500D01*
G01X253250D02*
Y99000D01*
X252550Y98300D01*
G01Y95500D02*
X253950D01*
G01X255970Y96200D02*
X256320Y95790D01*
X256780Y95560D01*
X257310Y95500D01*
X257780Y95560D01*
X258240Y95850D01*
X258530Y96200D01*
X258590Y96550D01*
X258480Y96960D01*
X258070Y97250D01*
X257660Y97370D01*
X257130D01*
G01X257660D02*
X258010Y97540D01*
X258300Y97830D01*
X258420Y98180D01*
X258300Y98530D01*
X258010Y98820D01*
X257480Y99000D01*
X256960Y98940D01*
X256430Y98710D01*
G01X242520Y272970D02*
X242990Y272670D01*
X243520Y272500D01*
X243980D01*
X244450Y272670D01*
X244800Y272970D01*
X244980Y273380D01*
X244860Y273780D01*
X244570Y274130D01*
X244040Y274370D01*
X243340Y274480D01*
X242930Y274720D01*
X242760Y275120D01*
X242880Y275530D01*
X243170Y275820D01*
X243570Y276000D01*
X243980D01*
X244390Y275880D01*
X244740Y275590D01*
G01X247630Y271860D02*
X247870Y272620D01*
G01X250520Y272500D02*
Y276000D01*
G01X252980D02*
Y272500D01*
G01Y274250D02*
X250520D01*
G01X254000Y276000D02*
X254820Y272500D01*
X255750Y276000D01*
X256680Y272500D01*
X257500Y276000D01*
G01X242520Y283970D02*
X242990Y283670D01*
X243520Y283500D01*
X243980D01*
X244450Y283670D01*
X244800Y283970D01*
X244980Y284380D01*
X244860Y284780D01*
X244570Y285130D01*
X244040Y285370D01*
X243340Y285480D01*
X242930Y285720D01*
X242760Y286120D01*
X242880Y286530D01*
X243170Y286820D01*
X243570Y287000D01*
X243980D01*
X244390Y286880D01*
X244740Y286590D01*
G01X247630Y282860D02*
X247870Y283620D01*
G01X250520Y283970D02*
X250990Y283670D01*
X251520Y283500D01*
X251980D01*
X252450Y283670D01*
X252800Y283970D01*
X252980Y284380D01*
X252860Y284780D01*
X252570Y285130D01*
X252040Y285370D01*
X251340Y285480D01*
X250930Y285720D01*
X250760Y286120D01*
X250880Y286530D01*
X251170Y286820D01*
X251570Y287000D01*
X251980D01*
X252390Y286880D01*
X252740Y286590D01*
G01X254000Y287000D02*
X254820Y283500D01*
X255750Y287000D01*
X256680Y283500D01*
X257500Y287000D01*
G01X256000Y61080D02*
X252500D01*
Y62540D01*
X252680Y63010D01*
X252910Y63300D01*
X253380Y63420D01*
X253840Y63300D01*
X254130Y62950D01*
X254310Y62540D01*
Y61080D01*
G01Y62540D02*
X256000Y63420D01*
G01Y66250D02*
X252500D01*
X253200Y65550D01*
G01X256000D02*
Y66950D01*
G01X253080Y69140D02*
X252730Y69490D01*
X252560Y69900D01*
X252500Y70370D01*
X252620Y70950D01*
X252910Y71360D01*
X253260Y71480D01*
X253610Y71420D01*
X253900Y71180D01*
X254480Y70020D01*
X254890Y69490D01*
X255480Y69140D01*
X256000Y69020D01*
Y71480D01*
G01X260530Y122210D02*
X260180Y122380D01*
X259780Y122500D01*
X259310D01*
X258780Y122320D01*
X258380Y122030D01*
X258080Y121680D01*
X257850Y121100D01*
X257790Y120570D01*
X257910Y120050D01*
X258080Y119700D01*
X258430Y119350D01*
X258840Y119120D01*
X259250Y119000D01*
X259660D01*
X260070Y119120D01*
X260420Y119290D01*
X260710Y119520D01*
G01X261970Y119700D02*
X262320Y119290D01*
X262780Y119060D01*
X263310Y119000D01*
X263780Y119060D01*
X264240Y119350D01*
X264530Y119700D01*
X264590Y120050D01*
X264480Y120460D01*
X264070Y120750D01*
X263660Y120870D01*
X263130D01*
G01X263660D02*
X264010Y121040D01*
X264300Y121330D01*
X264420Y121680D01*
X264300Y122030D01*
X264010Y122320D01*
X263480Y122500D01*
X262960Y122440D01*
X262430Y122210D01*
G01X264750Y84000D02*
X264280Y84060D01*
X263880Y84290D01*
X263520Y84640D01*
X263290Y85050D01*
X263170Y85520D01*
Y85980D01*
X263290Y86450D01*
X263520Y86860D01*
X263880Y87210D01*
X264280Y87440D01*
X264750Y87500D01*
X265220Y87440D01*
X265620Y87210D01*
X265980Y86860D01*
X266210Y86450D01*
X266330Y85980D01*
Y85520D01*
X266210Y85050D01*
X265980Y84640D01*
X265620Y84290D01*
X265220Y84060D01*
X264750Y84000D01*
G01X265220Y84930D02*
X265920Y84000D01*
G01X269450D02*
Y87500D01*
X267290Y84990D01*
X270210D01*
G01X262970Y99000D02*
Y96490D01*
X263200Y95970D01*
X263670Y95620D01*
X264250Y95500D01*
X264830Y95620D01*
X265300Y95970D01*
X265530Y96490D01*
Y99000D01*
G01X268250Y95500D02*
X268660Y95560D01*
X269120Y95730D01*
X269420Y96020D01*
X269530Y96430D01*
X269420Y96840D01*
X269070Y97190D01*
X268540Y97370D01*
X267960D01*
X267610Y97480D01*
X267320Y97770D01*
X267200Y98180D01*
X267380Y98590D01*
X267780Y98880D01*
X268250Y99000D01*
X268720Y98880D01*
X269120Y98590D01*
X269300Y98180D01*
X269180Y97770D01*
X268890Y97480D01*
X268540Y97370D01*
X267960D01*
X267430Y97190D01*
X267080Y96840D01*
X266970Y96430D01*
X267080Y96020D01*
X267380Y95730D01*
X267840Y95560D01*
X268250Y95500D01*
G01X266070Y126900D02*
X266420Y126490D01*
X266880Y126260D01*
X267410Y126200D01*
X267880Y126260D01*
X268340Y126550D01*
X268630Y126900D01*
X268690Y127250D01*
X268580Y127660D01*
X268170Y127950D01*
X267760Y128070D01*
X267230D01*
G01X267760D02*
X268110Y128240D01*
X268400Y128530D01*
X268520Y128880D01*
X268400Y129230D01*
X268110Y129520D01*
X267580Y129700D01*
X267060Y129640D01*
X266530Y129410D01*
G01X269890Y129700D02*
X271350Y126200D01*
X272810Y129700D01*
G01X274070Y126900D02*
X274420Y126490D01*
X274880Y126260D01*
X275410Y126200D01*
X275880Y126260D01*
X276340Y126550D01*
X276630Y126900D01*
X276690Y127250D01*
X276580Y127660D01*
X276170Y127950D01*
X275760Y128070D01*
X275230D01*
G01X275760D02*
X276110Y128240D01*
X276400Y128530D01*
X276520Y128880D01*
X276400Y129230D01*
X276110Y129520D01*
X275580Y129700D01*
X275060Y129640D01*
X274530Y129410D01*
G01X265770Y135400D02*
Y138900D01*
X266930D01*
X267400Y138720D01*
X267750Y138490D01*
X268040Y138140D01*
X268280Y137730D01*
X268330Y137150D01*
X268280Y136570D01*
X268040Y136160D01*
X267750Y135810D01*
X267400Y135570D01*
X266930Y135400D01*
X265770D01*
G01X270350Y138900D02*
X271750D01*
G01X271050D02*
Y135400D01*
G01X270350D02*
X271750D01*
G01X273710D02*
Y138900D01*
X276390Y135400D01*
Y138900D01*
G01X263670Y145300D02*
Y148800D01*
X264830D01*
X265300Y148620D01*
X265650Y148390D01*
X265940Y148040D01*
X266180Y147630D01*
X266230Y147050D01*
X266180Y146470D01*
X265940Y146060D01*
X265650Y145710D01*
X265300Y145470D01*
X264830Y145300D01*
X263670D01*
G01X268950D02*
X268480Y145360D01*
X268080Y145590D01*
X267720Y145940D01*
X267490Y146350D01*
X267370Y146820D01*
Y147280D01*
X267490Y147750D01*
X267720Y148160D01*
X268080Y148510D01*
X268480Y148740D01*
X268950Y148800D01*
X269420Y148740D01*
X269820Y148510D01*
X270180Y148160D01*
X270410Y147750D01*
X270530Y147280D01*
Y146820D01*
X270410Y146350D01*
X270180Y145940D01*
X269820Y145590D01*
X269420Y145360D01*
X268950Y145300D01*
G01X271670Y148800D02*
Y146290D01*
X271900Y145770D01*
X272370Y145420D01*
X272950Y145300D01*
X273530Y145420D01*
X274000Y145770D01*
X274230Y146290D01*
Y148800D01*
G01X276950D02*
Y145300D01*
G01X275610Y148800D02*
X278290D01*
G01X267770Y165900D02*
Y169400D01*
X268930D01*
X269400Y169220D01*
X269750Y168990D01*
X270040Y168640D01*
X270280Y168230D01*
X270330Y167650D01*
X270280Y167070D01*
X270040Y166660D01*
X269750Y166310D01*
X269400Y166070D01*
X268930Y165900D01*
X267770D01*
G01X272000Y165780D02*
X274100Y169400D01*
G01X278330Y169110D02*
X277980Y169280D01*
X277580Y169400D01*
X277110D01*
X276580Y169220D01*
X276180Y168930D01*
X275880Y168580D01*
X275650Y168000D01*
X275590Y167470D01*
X275710Y166950D01*
X275880Y166600D01*
X276230Y166250D01*
X276640Y166020D01*
X277050Y165900D01*
X277460D01*
X277870Y166020D01*
X278220Y166190D01*
X278510Y166420D01*
G01X267480Y186200D02*
Y189700D01*
X268940D01*
X269410Y189520D01*
X269700Y189290D01*
X269820Y188820D01*
X269700Y188360D01*
X269350Y188070D01*
X268940Y187890D01*
X267480D01*
G01X268940D02*
X269820Y186200D01*
G01X271420Y186670D02*
X271890Y186370D01*
X272420Y186200D01*
X272880D01*
X273350Y186370D01*
X273700Y186670D01*
X273880Y187080D01*
X273760Y187480D01*
X273470Y187830D01*
X272940Y188070D01*
X272240Y188180D01*
X271830Y188420D01*
X271660Y188820D01*
X271780Y189230D01*
X272070Y189520D01*
X272470Y189700D01*
X272880D01*
X273290Y189580D01*
X273640Y189290D01*
G01X276650Y189700D02*
Y186200D01*
G01X275310Y189700D02*
X277990D01*
G01X268700Y197150D02*
X269870D01*
Y196100D01*
X269520Y195750D01*
X269110Y195520D01*
X268530Y195400D01*
X267940Y195520D01*
X267530Y195750D01*
X267180Y196100D01*
X266950Y196510D01*
X266830Y196970D01*
Y197380D01*
X266950Y197730D01*
X267180Y198140D01*
X267530Y198490D01*
X267880Y198720D01*
X268350Y198900D01*
X268760D01*
X269220Y198780D01*
X269580Y198550D01*
G01X271010Y195400D02*
Y198900D01*
X273690Y195400D01*
Y198900D01*
G01X275070Y195400D02*
Y198900D01*
X276230D01*
X276700Y198720D01*
X277050Y198490D01*
X277340Y198140D01*
X277580Y197730D01*
X277630Y197150D01*
X277580Y196570D01*
X277340Y196160D01*
X277050Y195810D01*
X276700Y195570D01*
X276230Y195400D01*
X275070D01*
G01X260580Y229200D02*
X260880Y228850D01*
X261220Y228620D01*
X261630Y228500D01*
X262100Y228620D01*
X262450Y228850D01*
X262800Y229200D01*
X262920Y229670D01*
Y232000D01*
G01X265750Y228500D02*
Y232000D01*
X265050Y231300D01*
G01Y228500D02*
X266450D01*
G01X268470Y229020D02*
X268820Y228730D01*
X269220Y228560D01*
X269750Y228500D01*
X270280Y228620D01*
X270680Y228850D01*
X270980Y229260D01*
X271030Y229720D01*
X270920Y230190D01*
X270620Y230480D01*
X270220Y230720D01*
X269810Y230770D01*
X269400Y230720D01*
X268880Y230480D01*
X269050Y232000D01*
X270620D01*
G01X273740Y11520D02*
Y8020D01*
G01X272400Y11520D02*
X275080D01*
G01X276570Y8020D02*
Y11520D01*
X277970D01*
X278440Y11340D01*
X278790Y10940D01*
X278910Y10470D01*
X278790Y10000D01*
X278500Y9650D01*
X277970Y9480D01*
X276570D01*
G01X281740Y8020D02*
Y11520D01*
X281040Y10820D01*
G01Y8020D02*
X282440D01*
G01X270000Y54470D02*
X272510D01*
X273030Y54700D01*
X273380Y55170D01*
X273500Y55750D01*
X273380Y56330D01*
X273030Y56800D01*
X272510Y57030D01*
X270000D01*
G01X273500Y60450D02*
X270000D01*
X272510Y58290D01*
Y61210D01*
G01X272920Y117870D02*
X273150Y118040D01*
X273320Y118330D01*
X273440Y118740D01*
X273320Y119090D01*
X273090Y119320D01*
X272680Y119500D01*
X271110D01*
Y116000D01*
X273030D01*
X273440Y116230D01*
X273680Y116580D01*
X273790Y116990D01*
X273680Y117400D01*
X273320Y117750D01*
X272920Y117870D01*
X271110D01*
G01X275280Y119500D02*
Y116000D01*
X277620D01*
G01X273630Y158710D02*
X273280Y158880D01*
X272880Y159000D01*
X272410D01*
X271880Y158820D01*
X271480Y158530D01*
X271180Y158180D01*
X270950Y157600D01*
X270890Y157070D01*
X271010Y156550D01*
X271180Y156200D01*
X271530Y155850D01*
X271940Y155620D01*
X272350Y155500D01*
X272760D01*
X273170Y155620D01*
X273520Y155790D01*
X273810Y156020D01*
G01X275120Y155970D02*
X275590Y155670D01*
X276120Y155500D01*
X276580D01*
X277050Y155670D01*
X277400Y155970D01*
X277580Y156380D01*
X277460Y156780D01*
X277170Y157130D01*
X276640Y157370D01*
X275940Y157480D01*
X275530Y157720D01*
X275360Y158120D01*
X275480Y158530D01*
X275770Y158820D01*
X276170Y159000D01*
X276580D01*
X276990Y158880D01*
X277340Y158590D01*
G01X268020Y176170D02*
X268490Y175870D01*
X269020Y175700D01*
X269480D01*
X269950Y175870D01*
X270300Y176170D01*
X270480Y176580D01*
X270360Y176980D01*
X270070Y177330D01*
X269540Y177570D01*
X268840Y177680D01*
X268430Y177920D01*
X268260Y178320D01*
X268380Y178730D01*
X268670Y179020D01*
X269070Y179200D01*
X269480D01*
X269890Y179080D01*
X270240Y178790D01*
G01X274530Y178910D02*
X274180Y179080D01*
X273780Y179200D01*
X273310D01*
X272780Y179020D01*
X272380Y178730D01*
X272080Y178380D01*
X271850Y177800D01*
X271790Y177270D01*
X271910Y176750D01*
X272080Y176400D01*
X272430Y176050D01*
X272840Y175820D01*
X273250Y175700D01*
X273660D01*
X274070Y175820D01*
X274420Y175990D01*
X274710Y176220D01*
G01X275970Y175700D02*
Y179200D01*
G01X278180D02*
X275970Y177040D01*
G01X278530Y175700D02*
X276960Y178030D01*
G01X275080Y253700D02*
X275380Y253350D01*
X275720Y253120D01*
X276130Y253000D01*
X276600Y253120D01*
X276950Y253350D01*
X277300Y253700D01*
X277420Y254170D01*
Y256500D01*
G01X280250Y253000D02*
Y256500D01*
X279550Y255800D01*
G01Y253000D02*
X280950D01*
G01X284950D02*
Y256500D01*
X282790Y253990D01*
X285710D01*
G01X272000Y292580D02*
X268500D01*
Y294040D01*
X268680Y294510D01*
X268910Y294800D01*
X269380Y294920D01*
X269840Y294800D01*
X270130Y294450D01*
X270310Y294040D01*
Y292580D01*
G01Y294040D02*
X272000Y294920D01*
G01X271300Y296470D02*
X271710Y296820D01*
X271940Y297280D01*
X272000Y297810D01*
X271940Y298280D01*
X271650Y298740D01*
X271300Y299030D01*
X270950Y299090D01*
X270540Y298980D01*
X270250Y298570D01*
X270130Y298160D01*
Y297630D01*
G01Y298160D02*
X269960Y298510D01*
X269670Y298800D01*
X269320Y298920D01*
X268970Y298800D01*
X268680Y298510D01*
X268500Y297980D01*
X268560Y297460D01*
X268790Y296930D01*
G01X268500Y301750D02*
X268620Y301280D01*
X268910Y300930D01*
X269260Y300700D01*
X269730Y300520D01*
X270250Y300470D01*
X270780Y300520D01*
X271240Y300700D01*
X271590Y300930D01*
X271880Y301280D01*
X272000Y301750D01*
X271880Y302220D01*
X271590Y302570D01*
X271240Y302800D01*
X270780Y302980D01*
X270250Y303030D01*
X269730Y302980D01*
X269260Y302800D01*
X268910Y302570D01*
X268620Y302220D01*
X268500Y301750D01*
G01X268580Y308000D02*
Y311500D01*
X270040D01*
X270510Y311320D01*
X270800Y311090D01*
X270920Y310620D01*
X270800Y310160D01*
X270450Y309870D01*
X270040Y309690D01*
X268580D01*
G01X270040D02*
X270920Y308000D01*
G01X272640Y310920D02*
X272990Y311270D01*
X273400Y311440D01*
X273870Y311500D01*
X274450Y311380D01*
X274860Y311090D01*
X274980Y310740D01*
X274920Y310390D01*
X274680Y310100D01*
X273520Y309520D01*
X272990Y309110D01*
X272640Y308520D01*
X272520Y308000D01*
X274980D01*
G01X276760Y308410D02*
X277170Y308120D01*
X277630Y308000D01*
X278100Y308120D01*
X278510Y308470D01*
X278800Y308990D01*
X278920Y309520D01*
Y310160D01*
X278800Y310680D01*
X278510Y311150D01*
X278160Y311380D01*
X277750Y311500D01*
X277280Y311380D01*
X276930Y311150D01*
X276700Y310800D01*
X276580Y310330D01*
X276700Y309930D01*
X276990Y309520D01*
X277340Y309280D01*
X277750Y309220D01*
X278220Y309340D01*
X278570Y309630D01*
X278920Y310160D01*
G01X276080Y317000D02*
Y320500D01*
X277540D01*
X278010Y320320D01*
X278300Y320090D01*
X278420Y319620D01*
X278300Y319160D01*
X277950Y318870D01*
X277540Y318690D01*
X276080D01*
G01X277540D02*
X278420Y317000D01*
G01X280140Y319920D02*
X280490Y320270D01*
X280900Y320440D01*
X281370Y320500D01*
X281950Y320380D01*
X282360Y320090D01*
X282480Y319740D01*
X282420Y319390D01*
X282180Y319100D01*
X281020Y318520D01*
X280490Y318110D01*
X280140Y317520D01*
X280020Y317000D01*
X282480D01*
G01X285250D02*
X285660Y317060D01*
X286120Y317230D01*
X286420Y317520D01*
X286530Y317930D01*
X286420Y318340D01*
X286070Y318690D01*
X285540Y318870D01*
X284960D01*
X284610Y318980D01*
X284320Y319270D01*
X284200Y319680D01*
X284380Y320090D01*
X284780Y320380D01*
X285250Y320500D01*
X285720Y320380D01*
X286120Y320090D01*
X286300Y319680D01*
X286180Y319270D01*
X285890Y318980D01*
X285540Y318870D01*
X284960D01*
X284430Y318690D01*
X284080Y318340D01*
X283970Y317930D01*
X284080Y317520D01*
X284380Y317230D01*
X284840Y317060D01*
X285250Y317000D01*
G01X276020Y356470D02*
X276490Y356170D01*
X277020Y356000D01*
X277480D01*
X277950Y356170D01*
X278300Y356470D01*
X278480Y356880D01*
X278360Y357280D01*
X278070Y357630D01*
X277540Y357870D01*
X276840Y357980D01*
X276430Y358220D01*
X276260Y358620D01*
X276380Y359030D01*
X276670Y359320D01*
X277070Y359500D01*
X277480D01*
X277890Y359380D01*
X278240Y359090D01*
G01X279500Y359500D02*
X280320Y356000D01*
X281250Y359500D01*
X282180Y356000D01*
X283000Y359500D01*
G01X285250Y356000D02*
Y359500D01*
X284550Y358800D01*
G01Y356000D02*
X285950D01*
G01X284030Y40210D02*
X283680Y40380D01*
X283280Y40500D01*
X282810D01*
X282280Y40320D01*
X281880Y40030D01*
X281580Y39680D01*
X281350Y39100D01*
X281290Y38570D01*
X281410Y38050D01*
X281580Y37700D01*
X281930Y37350D01*
X282340Y37120D01*
X282750Y37000D01*
X283160D01*
X283570Y37120D01*
X283920Y37290D01*
X284210Y37520D01*
G01X286630Y37000D02*
X286750Y37760D01*
X286930Y38400D01*
X287160Y38980D01*
X287450Y39620D01*
X287920Y40500D01*
X285580D01*
G01X284290Y105030D02*
X284120Y104680D01*
X284000Y104280D01*
Y103810D01*
X284180Y103280D01*
X284470Y102880D01*
X284820Y102580D01*
X285400Y102350D01*
X285930Y102290D01*
X286450Y102410D01*
X286800Y102580D01*
X287150Y102930D01*
X287380Y103340D01*
X287500Y103750D01*
Y104160D01*
X287380Y104570D01*
X287210Y104920D01*
X286980Y105210D01*
G01Y106470D02*
X287270Y106820D01*
X287440Y107220D01*
X287500Y107750D01*
X287380Y108280D01*
X287150Y108680D01*
X286740Y108980D01*
X286280Y109030D01*
X285810Y108920D01*
X285520Y108620D01*
X285280Y108220D01*
X285230Y107810D01*
X285280Y107400D01*
X285520Y106880D01*
X284000Y107050D01*
Y108620D01*
G01X280580Y203500D02*
Y207000D01*
X281980D01*
X282450Y206820D01*
X282800Y206420D01*
X282920Y205950D01*
X282800Y205480D01*
X282510Y205130D01*
X281980Y204960D01*
X280580D01*
G01X285750Y203500D02*
Y207000D01*
X285050Y206300D01*
G01Y203500D02*
X286450D01*
G01X289080Y18700D02*
X289380Y18350D01*
X289720Y18120D01*
X290130Y18000D01*
X290600Y18120D01*
X290950Y18350D01*
X291300Y18700D01*
X291420Y19170D01*
Y21500D01*
G01X294250Y18000D02*
Y21500D01*
X293550Y20800D01*
G01Y18000D02*
X294950D01*
G01X298130D02*
X298250Y18760D01*
X298430Y19400D01*
X298660Y19980D01*
X298950Y20620D01*
X299420Y21500D01*
X297080D01*
G01X294580Y176000D02*
Y179500D01*
X296040D01*
X296510Y179320D01*
X296800Y179090D01*
X296920Y178620D01*
X296800Y178160D01*
X296450Y177870D01*
X296040Y177690D01*
X294580D01*
G01X296040D02*
X296920Y176000D01*
G01X298470Y176520D02*
X298820Y176230D01*
X299220Y176060D01*
X299750Y176000D01*
X300280Y176120D01*
X300680Y176350D01*
X300980Y176760D01*
X301030Y177220D01*
X300920Y177690D01*
X300620Y177980D01*
X300220Y178220D01*
X299810Y178270D01*
X299400Y178220D01*
X298880Y177980D01*
X299050Y179500D01*
X300620D01*
G01X289000Y260250D02*
X292500D01*
X291800Y260950D01*
G01X289000D02*
Y259550D01*
G01X290020Y280470D02*
X290490Y280170D01*
X291020Y280000D01*
X291480D01*
X291950Y280170D01*
X292300Y280470D01*
X292480Y280880D01*
X292360Y281280D01*
X292070Y281630D01*
X291540Y281870D01*
X290840Y281980D01*
X290430Y282220D01*
X290260Y282620D01*
X290380Y283030D01*
X290670Y283320D01*
X291070Y283500D01*
X291480D01*
X291890Y283380D01*
X292240Y283090D01*
G01X293500Y283500D02*
X294320Y280000D01*
X295250Y283500D01*
X296180Y280000D01*
X297000Y283500D01*
G01X297970Y280700D02*
X298320Y280290D01*
X298780Y280060D01*
X299310Y280000D01*
X299780Y280060D01*
X300240Y280350D01*
X300530Y280700D01*
X300590Y281050D01*
X300480Y281460D01*
X300070Y281750D01*
X299660Y281870D01*
X299130D01*
G01X299660D02*
X300010Y282040D01*
X300300Y282330D01*
X300420Y282680D01*
X300300Y283030D01*
X300010Y283320D01*
X299480Y283500D01*
X298960Y283440D01*
X298430Y283210D01*
G01X289380Y373300D02*
X289680Y372950D01*
X290020Y372720D01*
X290430Y372600D01*
X290900Y372720D01*
X291250Y372950D01*
X291600Y373300D01*
X291720Y373770D01*
Y376100D01*
G01X294550Y372600D02*
Y376100D01*
X293850Y375400D01*
G01Y372600D02*
X295250D01*
G01X298550D02*
X298960Y372660D01*
X299420Y372830D01*
X299720Y373120D01*
X299830Y373530D01*
X299720Y373940D01*
X299370Y374290D01*
X298840Y374470D01*
X298260D01*
X297910Y374580D01*
X297620Y374870D01*
X297500Y375280D01*
X297680Y375690D01*
X298080Y375980D01*
X298550Y376100D01*
X299020Y375980D01*
X299420Y375690D01*
X299600Y375280D01*
X299480Y374870D01*
X299190Y374580D01*
X298840Y374470D01*
X298260D01*
X297730Y374290D01*
X297380Y373940D01*
X297270Y373530D01*
X297380Y373120D01*
X297680Y372830D01*
X298140Y372660D01*
X298550Y372600D01*
G01X296970Y49000D02*
Y52500D01*
X298130D01*
X298600Y52320D01*
X298950Y52090D01*
X299240Y51740D01*
X299480Y51330D01*
X299530Y50750D01*
X299480Y50170D01*
X299240Y49760D01*
X298950Y49410D01*
X298600Y49170D01*
X298130Y49000D01*
X296970D01*
G01X302130D02*
X302250Y49760D01*
X302430Y50400D01*
X302660Y50980D01*
X302950Y51620D01*
X303420Y52500D01*
X301080D01*
G01X301970Y94500D02*
Y91990D01*
X302200Y91470D01*
X302670Y91120D01*
X303250Y91000D01*
X303830Y91120D01*
X304300Y91470D01*
X304530Y91990D01*
Y94500D01*
G01X305970Y91700D02*
X306320Y91290D01*
X306780Y91060D01*
X307310Y91000D01*
X307780Y91060D01*
X308240Y91350D01*
X308530Y91700D01*
X308590Y92050D01*
X308480Y92460D01*
X308070Y92750D01*
X307660Y92870D01*
X307130D01*
G01X307660D02*
X308010Y93040D01*
X308300Y93330D01*
X308420Y93680D01*
X308300Y94030D01*
X308010Y94320D01*
X307480Y94500D01*
X306960Y94440D01*
X306430Y94210D01*
G01X305530Y107210D02*
X305180Y107380D01*
X304780Y107500D01*
X304310D01*
X303780Y107320D01*
X303380Y107030D01*
X303080Y106680D01*
X302850Y106100D01*
X302790Y105570D01*
X302910Y105050D01*
X303080Y104700D01*
X303430Y104350D01*
X303840Y104120D01*
X304250Y104000D01*
X304660D01*
X305070Y104120D01*
X305420Y104290D01*
X305710Y104520D01*
G01X308950Y104000D02*
Y107500D01*
X306790Y104990D01*
X309710D01*
G01X304250Y112500D02*
Y109000D01*
G01X302910Y112500D02*
X305590D01*
G01X307080Y109000D02*
Y112500D01*
X308480D01*
X308950Y112320D01*
X309300Y111920D01*
X309420Y111450D01*
X309300Y110980D01*
X309010Y110630D01*
X308480Y110460D01*
X307080D01*
G01X311140Y111920D02*
X311490Y112270D01*
X311900Y112440D01*
X312370Y112500D01*
X312950Y112380D01*
X313360Y112090D01*
X313480Y111740D01*
X313420Y111390D01*
X313180Y111100D01*
X312020Y110520D01*
X311490Y110110D01*
X311140Y109520D01*
X311020Y109000D01*
X313480D01*
G01X299470Y131000D02*
Y134500D01*
X300630D01*
X301100Y134320D01*
X301450Y134090D01*
X301740Y133740D01*
X301980Y133330D01*
X302030Y132750D01*
X301980Y132170D01*
X301740Y131760D01*
X301450Y131410D01*
X301100Y131170D01*
X300630Y131000D01*
X299470D01*
G01X303640Y132460D02*
X304050Y132870D01*
X304400Y133100D01*
X304870Y133220D01*
X305280Y133100D01*
X305570Y132870D01*
X305800Y132520D01*
X305860Y132110D01*
X305800Y131760D01*
X305570Y131410D01*
X305220Y131120D01*
X304810Y131000D01*
X304340Y131120D01*
X303930Y131470D01*
X303700Y131990D01*
X303640Y132570D01*
X303760Y133330D01*
X303930Y133740D01*
X304220Y134150D01*
X304630Y134440D01*
X305040Y134500D01*
X305450Y134380D01*
X305740Y134090D01*
G01X299580Y135000D02*
Y138500D01*
X301040D01*
X301510Y138320D01*
X301800Y138090D01*
X301920Y137620D01*
X301800Y137160D01*
X301450Y136870D01*
X301040Y136690D01*
X299580D01*
G01X301040D02*
X301920Y135000D01*
G01X303470Y135700D02*
X303820Y135290D01*
X304280Y135060D01*
X304810Y135000D01*
X305280Y135060D01*
X305740Y135350D01*
X306030Y135700D01*
X306090Y136050D01*
X305980Y136460D01*
X305570Y136750D01*
X305160Y136870D01*
X304630D01*
G01X305160D02*
X305510Y137040D01*
X305800Y137330D01*
X305920Y137680D01*
X305800Y138030D01*
X305510Y138320D01*
X304980Y138500D01*
X304460Y138440D01*
X303930Y138210D01*
G01X307470Y135520D02*
X307820Y135230D01*
X308220Y135060D01*
X308750Y135000D01*
X309280Y135120D01*
X309680Y135350D01*
X309980Y135760D01*
X310030Y136220D01*
X309920Y136690D01*
X309620Y136980D01*
X309220Y137220D01*
X308810Y137270D01*
X308400Y137220D01*
X307880Y136980D01*
X308050Y138500D01*
X309620D01*
G01X307250Y145500D02*
X306780Y145560D01*
X306380Y145790D01*
X306020Y146140D01*
X305790Y146550D01*
X305670Y147020D01*
Y147480D01*
X305790Y147950D01*
X306020Y148360D01*
X306380Y148710D01*
X306780Y148940D01*
X307250Y149000D01*
X307720Y148940D01*
X308120Y148710D01*
X308480Y148360D01*
X308710Y147950D01*
X308830Y147480D01*
Y147020D01*
X308710Y146550D01*
X308480Y146140D01*
X308120Y145790D01*
X307720Y145560D01*
X307250Y145500D01*
G01X307720Y146430D02*
X308420Y145500D01*
G01X310140Y148420D02*
X310490Y148770D01*
X310900Y148940D01*
X311370Y149000D01*
X311950Y148880D01*
X312360Y148590D01*
X312480Y148240D01*
X312420Y147890D01*
X312180Y147600D01*
X311020Y147020D01*
X310490Y146610D01*
X310140Y146020D01*
X310020Y145500D01*
X312480D01*
G01X305750Y157000D02*
X305280Y157060D01*
X304880Y157290D01*
X304520Y157640D01*
X304290Y158050D01*
X304170Y158520D01*
Y158980D01*
X304290Y159450D01*
X304520Y159860D01*
X304880Y160210D01*
X305280Y160440D01*
X305750Y160500D01*
X306220Y160440D01*
X306620Y160210D01*
X306980Y159860D01*
X307210Y159450D01*
X307330Y158980D01*
Y158520D01*
X307210Y158050D01*
X306980Y157640D01*
X306620Y157290D01*
X306220Y157060D01*
X305750Y157000D01*
G01X306220Y157930D02*
X306920Y157000D01*
G01X309750D02*
Y160500D01*
X309050Y159800D01*
G01Y157000D02*
X310450D01*
G01X297170Y211300D02*
X297520Y210890D01*
X297980Y210660D01*
X298510Y210600D01*
X298980Y210660D01*
X299440Y210950D01*
X299730Y211300D01*
X299790Y211650D01*
X299680Y212060D01*
X299270Y212350D01*
X298860Y212470D01*
X298330D01*
G01X298860D02*
X299210Y212640D01*
X299500Y212930D01*
X299620Y213280D01*
X299500Y213630D01*
X299210Y213920D01*
X298680Y214100D01*
X298160Y214040D01*
X297630Y213810D01*
G01X300990Y214100D02*
X302450Y210600D01*
X303910Y214100D01*
G01X305170Y211300D02*
X305520Y210890D01*
X305980Y210660D01*
X306510Y210600D01*
X306980Y210660D01*
X307440Y210950D01*
X307730Y211300D01*
X307790Y211650D01*
X307680Y212060D01*
X307270Y212350D01*
X306860Y212470D01*
X306330D01*
G01X306860D02*
X307210Y212640D01*
X307500Y212930D01*
X307620Y213280D01*
X307500Y213630D01*
X307210Y213920D01*
X306680Y214100D01*
X306160Y214040D01*
X305630Y213810D01*
G01X297770Y220700D02*
Y224200D01*
X298930D01*
X299400Y224020D01*
X299750Y223790D01*
X300040Y223440D01*
X300280Y223030D01*
X300330Y222450D01*
X300280Y221870D01*
X300040Y221460D01*
X299750Y221110D01*
X299400Y220870D01*
X298930Y220700D01*
X297770D01*
G01X301590D02*
X303050Y224200D01*
X304510Y220700D01*
G01X303980Y221920D02*
X302120D01*
G01X307050Y224200D02*
Y220700D01*
G01X305710Y224200D02*
X308390D01*
G01X309590Y220700D02*
X311050Y224200D01*
X312510Y220700D01*
G01X311980Y221920D02*
X310120D01*
G01X300330Y233310D02*
X299980Y233480D01*
X299580Y233600D01*
X299110D01*
X298580Y233420D01*
X298180Y233130D01*
X297880Y232780D01*
X297650Y232200D01*
X297590Y231670D01*
X297710Y231150D01*
X297880Y230800D01*
X298230Y230450D01*
X298640Y230220D01*
X299050Y230100D01*
X299460D01*
X299870Y230220D01*
X300220Y230390D01*
X300510Y230620D01*
G01X301880Y233600D02*
Y230100D01*
X304220D01*
G01X305770D02*
Y233600D01*
G01X307980D02*
X305770Y231440D01*
G01X308330Y230100D02*
X306760Y232430D01*
G01X297880Y239800D02*
Y243300D01*
X299340D01*
X299810Y243120D01*
X300100Y242890D01*
X300220Y242420D01*
X300100Y241960D01*
X299750Y241670D01*
X299340Y241490D01*
X297880D01*
G01X299340D02*
X300220Y239800D01*
G01X301820Y240270D02*
X302290Y239970D01*
X302820Y239800D01*
X303280D01*
X303750Y239970D01*
X304100Y240270D01*
X304280Y240680D01*
X304160Y241080D01*
X303870Y241430D01*
X303340Y241670D01*
X302640Y241780D01*
X302230Y242020D01*
X302060Y242420D01*
X302180Y242830D01*
X302470Y243120D01*
X302870Y243300D01*
X303280D01*
X303690Y243180D01*
X304040Y242890D01*
G01X307050Y243300D02*
Y239800D01*
G01X305710Y243300D02*
X308390D01*
G01X299600Y252050D02*
X300770D01*
Y251000D01*
X300420Y250650D01*
X300010Y250420D01*
X299430Y250300D01*
X298840Y250420D01*
X298430Y250650D01*
X298080Y251000D01*
X297850Y251410D01*
X297730Y251870D01*
Y252280D01*
X297850Y252630D01*
X298080Y253040D01*
X298430Y253390D01*
X298780Y253620D01*
X299250Y253800D01*
X299660D01*
X300120Y253680D01*
X300480Y253450D01*
G01X301910Y250300D02*
Y253800D01*
X304590Y250300D01*
Y253800D01*
G01X305970Y250300D02*
Y253800D01*
X307130D01*
X307600Y253620D01*
X307950Y253390D01*
X308240Y253040D01*
X308480Y252630D01*
X308530Y252050D01*
X308480Y251470D01*
X308240Y251060D01*
X307950Y250710D01*
X307600Y250470D01*
X307130Y250300D01*
X305970D01*
G01X296970Y314000D02*
Y317500D01*
X298130D01*
X298600Y317320D01*
X298950Y317090D01*
X299240Y316740D01*
X299480Y316330D01*
X299530Y315750D01*
X299480Y315170D01*
X299240Y314760D01*
X298950Y314410D01*
X298600Y314170D01*
X298130Y314000D01*
X296970D01*
G01X300970Y314520D02*
X301320Y314230D01*
X301720Y314060D01*
X302250Y314000D01*
X302780Y314120D01*
X303180Y314350D01*
X303480Y314760D01*
X303530Y315220D01*
X303420Y315690D01*
X303120Y315980D01*
X302720Y316220D01*
X302310Y316270D01*
X301900Y316220D01*
X301380Y315980D01*
X301550Y317500D01*
X303120D01*
G01X302580Y323000D02*
Y326500D01*
X304040D01*
X304510Y326320D01*
X304800Y326090D01*
X304920Y325620D01*
X304800Y325160D01*
X304450Y324870D01*
X304040Y324690D01*
X302580D01*
G01X304040D02*
X304920Y323000D01*
G01X306640Y325920D02*
X306990Y326270D01*
X307400Y326440D01*
X307870Y326500D01*
X308450Y326380D01*
X308860Y326090D01*
X308980Y325740D01*
X308920Y325390D01*
X308680Y325100D01*
X307520Y324520D01*
X306990Y324110D01*
X306640Y323520D01*
X306520Y323000D01*
X308980D01*
G01X311630D02*
X311750Y323760D01*
X311930Y324400D01*
X312160Y324980D01*
X312450Y325620D01*
X312920Y326500D01*
X310580D01*
G01X311500Y58580D02*
X308000D01*
Y60040D01*
X308180Y60510D01*
X308410Y60800D01*
X308880Y60920D01*
X309340Y60800D01*
X309630Y60450D01*
X309810Y60040D01*
Y58580D01*
G01Y60040D02*
X311500Y60920D01*
G01X310800Y62470D02*
X311210Y62820D01*
X311440Y63280D01*
X311500Y63810D01*
X311440Y64280D01*
X311150Y64740D01*
X310800Y65030D01*
X310450Y65090D01*
X310040Y64980D01*
X309750Y64570D01*
X309630Y64160D01*
Y63630D01*
G01Y64160D02*
X309460Y64510D01*
X309170Y64800D01*
X308820Y64920D01*
X308470Y64800D01*
X308180Y64510D01*
X308000Y63980D01*
X308060Y63460D01*
X308290Y62930D01*
G01X310040Y66640D02*
X309630Y67050D01*
X309400Y67400D01*
X309280Y67870D01*
X309400Y68280D01*
X309630Y68570D01*
X309980Y68800D01*
X310390Y68860D01*
X310740Y68800D01*
X311090Y68570D01*
X311380Y68220D01*
X311500Y67810D01*
X311380Y67340D01*
X311030Y66930D01*
X310510Y66700D01*
X309930Y66640D01*
X309170Y66760D01*
X308760Y66930D01*
X308350Y67220D01*
X308060Y67630D01*
X308000Y68040D01*
X308120Y68450D01*
X308410Y68740D01*
G01X310500Y175580D02*
X307000D01*
Y177040D01*
X307180Y177510D01*
X307410Y177800D01*
X307880Y177920D01*
X308340Y177800D01*
X308630Y177450D01*
X308810Y177040D01*
Y175580D01*
G01Y177040D02*
X310500Y177920D01*
G01X309040Y179640D02*
X308630Y180050D01*
X308400Y180400D01*
X308280Y180870D01*
X308400Y181280D01*
X308630Y181570D01*
X308980Y181800D01*
X309390Y181860D01*
X309740Y181800D01*
X310090Y181570D01*
X310380Y181220D01*
X310500Y180810D01*
X310380Y180340D01*
X310030Y179930D01*
X309510Y179700D01*
X308930Y179640D01*
X308170Y179760D01*
X307760Y179930D01*
X307350Y180220D01*
X307060Y180630D01*
X307000Y181040D01*
X307120Y181450D01*
X307410Y181740D01*
G54D13*
G01X17240Y178500D02*
X9360D01*
G01X10540Y175740D02*
Y181260D01*
G54D14*
G01X70100Y12200D02*
X70200D01*
G01X139600Y12700D02*
X139700D01*
G01X209100D02*
X209200D01*
G01X305590Y48500D02*
X305490D01*
G01X309150Y124330D02*
X309050D01*
G01X306400Y313800D02*
X306300D01*
M02*
