M48
INCH,TZ
T01C.012
T02C.03
T03C.038
T04C.145
;LEADER: 12 
;HEADER: 
;CODE  : ASCII 
;FILE  : Smartlocker10x8-1-2.drl for board Smartlocker10x8.brd ... layers TOP and BOTTOM
;T01 Holesize 1. = 12.000000 Tolerance = +0.000000/-0.000000 PLATED MILS Quantity = 61
;T02 Holesize 2. = 30.000000 Tolerance = +2.000000/-2.000000 PLATED MILS Quantity = 3
;T03 Holesize 3. = 38.000000 Tolerance = +0.000000/-0.000000 PLATED MILS Quantity = 91
;T04 Holesize 4. = 145.000000 Tolerance = +0.000000/-0.000000 PLATED MILS Quantity = 4
%
G90
T01
X66500Y74600
X105700Y89700
X101720Y59780
X98570Y58570
X92280Y57780
X61500Y53500
X51500Y53500
X97500Y21500
X56500Y53500
X66500Y53000
X79500Y84500
X34020Y84480
X79500Y22500
X89500Y47000
X32560Y131340
X50300Y99200
X58980Y168550
X8690Y123190
X41500Y122000
X66980Y237060
X55330Y261170
X63520Y248480
X56000Y215000
X31820Y213390
X68600Y382400
X190290Y363590
X194740Y383880
X185780Y384840
X185780Y364110
X204500Y313000
X175500Y306500
X201000Y325000
X200870Y348920
X201080Y354820
X203170Y192880
X233500Y70000
X191000Y125500
X279980Y63510
X245580Y77420
X242140Y50140
X242210Y44710
X274890Y10390
X290100Y38900
X236500Y20500
X305300Y38210
X297640Y84130
X242210Y29790
X218000Y22000
X274130Y113370
X303820Y106680
X300510Y132990
X304630Y154130
X167000Y20500
X269610Y114390
X262280Y96780
X148200Y22800
X276500Y289500
X262390Y312110
X304200Y316190
X291300Y331160
X308560Y177040
T02
X26320Y142690
X21320Y132690
X16320Y142690
T03
X6640Y201570
X6640Y211570
X26820Y86690
X6820Y187690
X9320Y96190
X9320Y86190
X9320Y76190
X9320Y66190
X9320Y56190
X26820Y96690
X26820Y106690
X26820Y187690
X16820Y187690
X8320Y163190
X18320Y163190
X66920Y188200
X76920Y188200
X66920Y178200
X76920Y178200
X66920Y168200
X76920Y168200
X66920Y158200
X76920Y158200
X66920Y148200
X76920Y148200
X66920Y138200
X76920Y138200
X66920Y128200
X76920Y128200
X66920Y118200
X76920Y118200
X66920Y108200
X76920Y108200
X17590Y257220
X17590Y227300
X11530Y295840
X11530Y285840
X31810Y295910
X31810Y285910
X66920Y198200
X76920Y198200
X22930Y320110
X12930Y320110
X12930Y350110
X22930Y350110
X11530Y305840
X31810Y305910
X286410Y56910
X286410Y71090
X300590Y56910
X300590Y71090
X284000Y117500
X284000Y127500
X284000Y137500
X284000Y147500
X284000Y157500
X284000Y167500
X284000Y177500
X284000Y187500
X236920Y188200
X246920Y188200
X236920Y178200
X246920Y178200
X236920Y168200
X246920Y168200
X236920Y158200
X246920Y158200
X236920Y148200
X246920Y148200
X236920Y138200
X246920Y138200
X236920Y128200
X246920Y128200
X236920Y118200
X246920Y118200
X236920Y108200
X246920Y108200
X284000Y197500
X291500Y212000
X291500Y222000
X291500Y232000
X291500Y242000
X291500Y252000
X278500Y232000
X278500Y242000
X236920Y198200
X246920Y198200
X278000Y336500
X278000Y346500
X308000Y346500
X308000Y336500
T04
X20000Y20000
X20000Y373700
X295000Y20000
X295000Y373700
M30
